<svg version="1.1"
baseProfile="full"
width="270" height="233.827"
xmlns="http://www.w3.org/2000/svg">
<polygon points="135,0 0 ,233.827 270 ,233.827" fill="green"/>
<svg version="1.1"
baseProfile="full" xmlns="http://www.w3.org/2000/svg">
<polygon points="13.495,210.453 26.99 ,233.827 0 ,233.827" style="fill:red;stroke:purple;stroke-width:0.2" />
</svg><svg version="1.1"
baseProfile="full" xmlns="http://www.w3.org/2000/svg">
<polygon points="40.485,210.453 53.98 ,233.827 26.99 ,233.827" style="fill:red;stroke:purple;stroke-width:0.2" />
</svg><svg version="1.1"
baseProfile="full" xmlns="http://www.w3.org/2000/svg">
<polygon points="67.475,210.453 80.97 ,233.827 53.98 ,233.827" style="fill:red;stroke:purple;stroke-width:0.2" />
</svg><svg version="1.1"
baseProfile="full" xmlns="http://www.w3.org/2000/svg">
<polygon points="94.465,210.453 107.96 ,233.827 80.97 ,233.827" style="fill:red;stroke:purple;stroke-width:0.2" />
</svg><svg version="1.1"
baseProfile="full" xmlns="http://www.w3.org/2000/svg">
<polygon points="121.455,210.453 134.95 ,233.827 107.96 ,233.827" style="fill:red;stroke:purple;stroke-width:0.2" />
</svg><svg version="1.1"
baseProfile="full" xmlns="http://www.w3.org/2000/svg">
<polygon points="148.445,210.453 161.94 ,233.827 134.95 ,233.827" style="fill:red;stroke:purple;stroke-width:0.2" />
</svg><svg version="1.1"
baseProfile="full" xmlns="http://www.w3.org/2000/svg">
<polygon points="175.435,210.453 188.93 ,233.827 161.94 ,233.827" style="fill:red;stroke:purple;stroke-width:0.2" />
</svg><svg version="1.1"
baseProfile="full" xmlns="http://www.w3.org/2000/svg">
<polygon points="202.425,210.453 215.92 ,233.827 188.93 ,233.827" style="fill:red;stroke:purple;stroke-width:0.2" />
</svg><svg version="1.1"
baseProfile="full" xmlns="http://www.w3.org/2000/svg">
<polygon points="229.415,210.453 242.91 ,233.827 215.92 ,233.827" style="fill:red;stroke:purple;stroke-width:0.2" />
</svg><svg version="1.1"
baseProfile="full" xmlns="http://www.w3.org/2000/svg">
<polygon points="256.405,210.453 269.9 ,233.827 242.91 ,233.827" style="fill:red;stroke:purple;stroke-width:0.2" />
</svg><svg version="1.1"
baseProfile="full" xmlns="http://www.w3.org/2000/svg">
<polygon points="26.99,233.827 40.485 ,210.453 13.495 ,210.453" style="fill:red;stroke:purple;stroke-width:0.2" />
</svg><svg version="1.1"
baseProfile="full" xmlns="http://www.w3.org/2000/svg">
<polygon points="53.98,233.827 67.475 ,210.453 40.485 ,210.453" style="fill:red;stroke:purple;stroke-width:0.2" />
</svg><svg version="1.1"
baseProfile="full" xmlns="http://www.w3.org/2000/svg">
<polygon points="80.97,233.827 94.465 ,210.453 67.475 ,210.453" style="fill:red;stroke:purple;stroke-width:0.2" />
</svg><svg version="1.1"
baseProfile="full" xmlns="http://www.w3.org/2000/svg">
<polygon points="107.96,233.827 121.455 ,210.453 94.465 ,210.453" style="fill:red;stroke:purple;stroke-width:0.2" />
</svg><svg version="1.1"
baseProfile="full" xmlns="http://www.w3.org/2000/svg">
<polygon points="134.95,233.827 148.445 ,210.453 121.455 ,210.453" style="fill:red;stroke:purple;stroke-width:0.2" />
</svg><svg version="1.1"
baseProfile="full" xmlns="http://www.w3.org/2000/svg">
<polygon points="161.94,233.827 175.435 ,210.453 148.445 ,210.453" style="fill:red;stroke:purple;stroke-width:0.2" />
</svg><svg version="1.1"
baseProfile="full" xmlns="http://www.w3.org/2000/svg">
<polygon points="188.93,233.827 202.425 ,210.453 175.435 ,210.453" style="fill:red;stroke:purple;stroke-width:0.2" />
</svg><svg version="1.1"
baseProfile="full" xmlns="http://www.w3.org/2000/svg">
<polygon points="215.92,233.827 229.415 ,210.453 202.425 ,210.453" style="fill:red;stroke:purple;stroke-width:0.2" />
</svg><svg version="1.1"
baseProfile="full" xmlns="http://www.w3.org/2000/svg">
<polygon points="242.91,233.827 256.405 ,210.453 229.415 ,210.453" style="fill:red;stroke:purple;stroke-width:0.2" />
</svg><svg version="1.1"
baseProfile="full" xmlns="http://www.w3.org/2000/svg">
<polygon points="26.99,187.079 40.485 ,210.453 13.495 ,210.453" style="fill:red;stroke:purple;stroke-width:0.2" />
</svg><svg version="1.1"
baseProfile="full" xmlns="http://www.w3.org/2000/svg">
<polygon points="53.98,187.079 67.475 ,210.453 40.485 ,210.453" style="fill:red;stroke:purple;stroke-width:0.2" />
</svg><svg version="1.1"
baseProfile="full" xmlns="http://www.w3.org/2000/svg">
<polygon points="80.97,187.079 94.465 ,210.453 67.475 ,210.453" style="fill:red;stroke:purple;stroke-width:0.2" />
</svg><svg version="1.1"
baseProfile="full" xmlns="http://www.w3.org/2000/svg">
<polygon points="107.96,187.079 121.455 ,210.453 94.465 ,210.453" style="fill:red;stroke:purple;stroke-width:0.2" />
</svg><svg version="1.1"
baseProfile="full" xmlns="http://www.w3.org/2000/svg">
<polygon points="134.95,187.079 148.445 ,210.453 121.455 ,210.453" style="fill:red;stroke:purple;stroke-width:0.2" />
</svg><svg version="1.1"
baseProfile="full" xmlns="http://www.w3.org/2000/svg">
<polygon points="161.94,187.079 175.435 ,210.453 148.445 ,210.453" style="fill:red;stroke:purple;stroke-width:0.2" />
</svg><svg version="1.1"
baseProfile="full" xmlns="http://www.w3.org/2000/svg">
<polygon points="188.93,187.079 202.425 ,210.453 175.435 ,210.453" style="fill:red;stroke:purple;stroke-width:0.2" />
</svg><svg version="1.1"
baseProfile="full" xmlns="http://www.w3.org/2000/svg">
<polygon points="215.92,187.079 229.415 ,210.453 202.425 ,210.453" style="fill:red;stroke:purple;stroke-width:0.2" />
</svg><svg version="1.1"
baseProfile="full" xmlns="http://www.w3.org/2000/svg">
<polygon points="242.91,187.079 256.405 ,210.453 229.415 ,210.453" style="fill:red;stroke:purple;stroke-width:0.2" />
</svg><svg version="1.1"
baseProfile="full" xmlns="http://www.w3.org/2000/svg">
<polygon points="40.485,210.453 53.98 ,187.079 26.99 ,187.079" style="fill:red;stroke:purple;stroke-width:0.2" />
</svg><svg version="1.1"
baseProfile="full" xmlns="http://www.w3.org/2000/svg">
<polygon points="67.475,210.453 80.97 ,187.079 53.98 ,187.079" style="fill:red;stroke:purple;stroke-width:0.2" />
</svg><svg version="1.1"
baseProfile="full" xmlns="http://www.w3.org/2000/svg">
<polygon points="94.465,210.453 107.96 ,187.079 80.97 ,187.079" style="fill:red;stroke:purple;stroke-width:0.2" />
</svg><svg version="1.1"
baseProfile="full" xmlns="http://www.w3.org/2000/svg">
<polygon points="121.455,210.453 134.95 ,187.079 107.96 ,187.079" style="fill:red;stroke:purple;stroke-width:0.2" />
</svg><svg version="1.1"
baseProfile="full" xmlns="http://www.w3.org/2000/svg">
<polygon points="148.445,210.453 161.94 ,187.079 134.95 ,187.079" style="fill:red;stroke:purple;stroke-width:0.2" />
</svg><svg version="1.1"
baseProfile="full" xmlns="http://www.w3.org/2000/svg">
<polygon points="175.435,210.453 188.93 ,187.079 161.94 ,187.079" style="fill:red;stroke:purple;stroke-width:0.2" />
</svg><svg version="1.1"
baseProfile="full" xmlns="http://www.w3.org/2000/svg">
<polygon points="202.425,210.453 215.92 ,187.079 188.93 ,187.079" style="fill:red;stroke:purple;stroke-width:0.2" />
</svg><svg version="1.1"
baseProfile="full" xmlns="http://www.w3.org/2000/svg">
<polygon points="229.415,210.453 242.91 ,187.079 215.92 ,187.079" style="fill:red;stroke:purple;stroke-width:0.2" />
</svg><svg version="1.1"
baseProfile="full" xmlns="http://www.w3.org/2000/svg">
<polygon points="40.485,163.705 53.98 ,187.079 26.99 ,187.079" style="fill:red;stroke:purple;stroke-width:0.2" />
</svg><svg version="1.1"
baseProfile="full" xmlns="http://www.w3.org/2000/svg">
<polygon points="67.475,163.705 80.97 ,187.079 53.98 ,187.079" style="fill:red;stroke:purple;stroke-width:0.2" />
</svg><svg version="1.1"
baseProfile="full" xmlns="http://www.w3.org/2000/svg">
<polygon points="94.465,163.705 107.96 ,187.079 80.97 ,187.079" style="fill:red;stroke:purple;stroke-width:0.2" />
</svg><svg version="1.1"
baseProfile="full" xmlns="http://www.w3.org/2000/svg">
<polygon points="121.455,163.705 134.95 ,187.079 107.96 ,187.079" style="fill:red;stroke:purple;stroke-width:0.2" />
</svg><svg version="1.1"
baseProfile="full" xmlns="http://www.w3.org/2000/svg">
<polygon points="148.445,163.705 161.94 ,187.079 134.95 ,187.079" style="fill:red;stroke:purple;stroke-width:0.2" />
</svg><svg version="1.1"
baseProfile="full" xmlns="http://www.w3.org/2000/svg">
<polygon points="175.435,163.705 188.93 ,187.079 161.94 ,187.079" style="fill:red;stroke:purple;stroke-width:0.2" />
</svg><svg version="1.1"
baseProfile="full" xmlns="http://www.w3.org/2000/svg">
<polygon points="202.425,163.705 215.92 ,187.079 188.93 ,187.079" style="fill:red;stroke:purple;stroke-width:0.2" />
</svg><svg version="1.1"
baseProfile="full" xmlns="http://www.w3.org/2000/svg">
<polygon points="229.415,163.705 242.91 ,187.079 215.92 ,187.079" style="fill:red;stroke:purple;stroke-width:0.2" />
</svg><svg version="1.1"
baseProfile="full" xmlns="http://www.w3.org/2000/svg">
<polygon points="53.98,187.079 67.475 ,163.705 40.485 ,163.705" style="fill:red;stroke:purple;stroke-width:0.2" />
</svg><svg version="1.1"
baseProfile="full" xmlns="http://www.w3.org/2000/svg">
<polygon points="80.97,187.079 94.465 ,163.705 67.475 ,163.705" style="fill:red;stroke:purple;stroke-width:0.2" />
</svg><svg version="1.1"
baseProfile="full" xmlns="http://www.w3.org/2000/svg">
<polygon points="107.96,187.079 121.455 ,163.705 94.465 ,163.705" style="fill:red;stroke:purple;stroke-width:0.2" />
</svg><svg version="1.1"
baseProfile="full" xmlns="http://www.w3.org/2000/svg">
<polygon points="134.95,187.079 148.445 ,163.705 121.455 ,163.705" style="fill:red;stroke:purple;stroke-width:0.2" />
</svg><svg version="1.1"
baseProfile="full" xmlns="http://www.w3.org/2000/svg">
<polygon points="161.94,187.079 175.435 ,163.705 148.445 ,163.705" style="fill:red;stroke:purple;stroke-width:0.2" />
</svg><svg version="1.1"
baseProfile="full" xmlns="http://www.w3.org/2000/svg">
<polygon points="188.93,187.079 202.425 ,163.705 175.435 ,163.705" style="fill:red;stroke:purple;stroke-width:0.2" />
</svg><svg version="1.1"
baseProfile="full" xmlns="http://www.w3.org/2000/svg">
<polygon points="215.92,187.079 229.415 ,163.705 202.425 ,163.705" style="fill:red;stroke:purple;stroke-width:0.2" />
</svg><svg version="1.1"
baseProfile="full" xmlns="http://www.w3.org/2000/svg">
<polygon points="53.98,140.331 67.475 ,163.705 40.485 ,163.705" style="fill:red;stroke:purple;stroke-width:0.2" />
</svg><svg version="1.1"
baseProfile="full" xmlns="http://www.w3.org/2000/svg">
<polygon points="80.97,140.331 94.465 ,163.705 67.475 ,163.705" style="fill:red;stroke:purple;stroke-width:0.2" />
</svg><svg version="1.1"
baseProfile="full" xmlns="http://www.w3.org/2000/svg">
<polygon points="107.96,140.331 121.455 ,163.705 94.465 ,163.705" style="fill:red;stroke:purple;stroke-width:0.2" />
</svg><svg version="1.1"
baseProfile="full" xmlns="http://www.w3.org/2000/svg">
<polygon points="134.95,140.331 148.445 ,163.705 121.455 ,163.705" style="fill:red;stroke:purple;stroke-width:0.2" />
</svg><svg version="1.1"
baseProfile="full" xmlns="http://www.w3.org/2000/svg">
<polygon points="161.94,140.331 175.435 ,163.705 148.445 ,163.705" style="fill:red;stroke:purple;stroke-width:0.2" />
</svg><svg version="1.1"
baseProfile="full" xmlns="http://www.w3.org/2000/svg">
<polygon points="188.93,140.331 202.425 ,163.705 175.435 ,163.705" style="fill:red;stroke:purple;stroke-width:0.2" />
</svg><svg version="1.1"
baseProfile="full" xmlns="http://www.w3.org/2000/svg">
<polygon points="215.92,140.331 229.415 ,163.705 202.425 ,163.705" style="fill:red;stroke:purple;stroke-width:0.2" />
</svg><svg version="1.1"
baseProfile="full" xmlns="http://www.w3.org/2000/svg">
<polygon points="67.475,163.705 80.97 ,140.331 53.98 ,140.331" style="fill:red;stroke:purple;stroke-width:0.2" />
</svg><svg version="1.1"
baseProfile="full" xmlns="http://www.w3.org/2000/svg">
<polygon points="94.465,163.705 107.96 ,140.331 80.97 ,140.331" style="fill:red;stroke:purple;stroke-width:0.2" />
</svg><svg version="1.1"
baseProfile="full" xmlns="http://www.w3.org/2000/svg">
<polygon points="121.455,163.705 134.95 ,140.331 107.96 ,140.331" style="fill:red;stroke:purple;stroke-width:0.2" />
</svg><svg version="1.1"
baseProfile="full" xmlns="http://www.w3.org/2000/svg">
<polygon points="148.445,163.705 161.94 ,140.331 134.95 ,140.331" style="fill:red;stroke:purple;stroke-width:0.2" />
</svg><svg version="1.1"
baseProfile="full" xmlns="http://www.w3.org/2000/svg">
<polygon points="175.435,163.705 188.93 ,140.331 161.94 ,140.331" style="fill:red;stroke:purple;stroke-width:0.2" />
</svg><svg version="1.1"
baseProfile="full" xmlns="http://www.w3.org/2000/svg">
<polygon points="202.425,163.705 215.92 ,140.331 188.93 ,140.331" style="fill:red;stroke:purple;stroke-width:0.2" />
</svg><svg version="1.1"
baseProfile="full" xmlns="http://www.w3.org/2000/svg">
<polygon points="67.475,116.957 80.97 ,140.331 53.98 ,140.331" style="fill:red;stroke:purple;stroke-width:0.2" />
</svg><svg version="1.1"
baseProfile="full" xmlns="http://www.w3.org/2000/svg">
<polygon points="94.465,116.957 107.96 ,140.331 80.97 ,140.331" style="fill:red;stroke:purple;stroke-width:0.2" />
</svg><svg version="1.1"
baseProfile="full" xmlns="http://www.w3.org/2000/svg">
<polygon points="121.455,116.957 134.95 ,140.331 107.96 ,140.331" style="fill:red;stroke:purple;stroke-width:0.2" />
</svg><svg version="1.1"
baseProfile="full" xmlns="http://www.w3.org/2000/svg">
<polygon points="148.445,116.957 161.94 ,140.331 134.95 ,140.331" style="fill:red;stroke:purple;stroke-width:0.2" />
</svg><svg version="1.1"
baseProfile="full" xmlns="http://www.w3.org/2000/svg">
<polygon points="175.435,116.957 188.93 ,140.331 161.94 ,140.331" style="fill:red;stroke:purple;stroke-width:0.2" />
</svg><svg version="1.1"
baseProfile="full" xmlns="http://www.w3.org/2000/svg">
<polygon points="202.425,116.957 215.92 ,140.331 188.93 ,140.331" style="fill:red;stroke:purple;stroke-width:0.2" />
</svg><svg version="1.1"
baseProfile="full" xmlns="http://www.w3.org/2000/svg">
<polygon points="80.97,140.331 94.465 ,116.957 67.475 ,116.957" style="fill:red;stroke:purple;stroke-width:0.2" />
</svg><svg version="1.1"
baseProfile="full" xmlns="http://www.w3.org/2000/svg">
<polygon points="107.96,140.331 121.455 ,116.957 94.465 ,116.957" style="fill:red;stroke:purple;stroke-width:0.2" />
</svg><svg version="1.1"
baseProfile="full" xmlns="http://www.w3.org/2000/svg">
<polygon points="134.95,140.331 148.445 ,116.957 121.455 ,116.957" style="fill:red;stroke:purple;stroke-width:0.2" />
</svg><svg version="1.1"
baseProfile="full" xmlns="http://www.w3.org/2000/svg">
<polygon points="161.94,140.331 175.435 ,116.957 148.445 ,116.957" style="fill:red;stroke:purple;stroke-width:0.2" />
</svg><svg version="1.1"
baseProfile="full" xmlns="http://www.w3.org/2000/svg">
<polygon points="188.93,140.331 202.425 ,116.957 175.435 ,116.957" style="fill:red;stroke:purple;stroke-width:0.2" />
</svg><svg version="1.1"
baseProfile="full" xmlns="http://www.w3.org/2000/svg">
<polygon points="80.97,93.5827 94.465 ,116.957 67.475 ,116.957" style="fill:red;stroke:purple;stroke-width:0.2" />
</svg><svg version="1.1"
baseProfile="full" xmlns="http://www.w3.org/2000/svg">
<polygon points="107.96,93.5827 121.455 ,116.957 94.465 ,116.957" style="fill:red;stroke:purple;stroke-width:0.2" />
</svg><svg version="1.1"
baseProfile="full" xmlns="http://www.w3.org/2000/svg">
<polygon points="134.95,93.5827 148.445 ,116.957 121.455 ,116.957" style="fill:red;stroke:purple;stroke-width:0.2" />
</svg><svg version="1.1"
baseProfile="full" xmlns="http://www.w3.org/2000/svg">
<polygon points="161.94,93.5827 175.435 ,116.957 148.445 ,116.957" style="fill:red;stroke:purple;stroke-width:0.2" />
</svg><svg version="1.1"
baseProfile="full" xmlns="http://www.w3.org/2000/svg">
<polygon points="188.93,93.5827 202.425 ,116.957 175.435 ,116.957" style="fill:red;stroke:purple;stroke-width:0.2" />
</svg><svg version="1.1"
baseProfile="full" xmlns="http://www.w3.org/2000/svg">
<polygon points="94.465,116.957 107.96 ,93.5827 80.97 ,93.5827" style="fill:red;stroke:purple;stroke-width:0.2" />
</svg><svg version="1.1"
baseProfile="full" xmlns="http://www.w3.org/2000/svg">
<polygon points="121.455,116.957 134.95 ,93.5827 107.96 ,93.5827" style="fill:red;stroke:purple;stroke-width:0.2" />
</svg><svg version="1.1"
baseProfile="full" xmlns="http://www.w3.org/2000/svg">
<polygon points="148.445,116.957 161.94 ,93.5827 134.95 ,93.5827" style="fill:red;stroke:purple;stroke-width:0.2" />
</svg><svg version="1.1"
baseProfile="full" xmlns="http://www.w3.org/2000/svg">
<polygon points="175.435,116.957 188.93 ,93.5827 161.94 ,93.5827" style="fill:red;stroke:purple;stroke-width:0.2" />
</svg><svg version="1.1"
baseProfile="full" xmlns="http://www.w3.org/2000/svg">
<polygon points="94.465,70.2087 107.96 ,93.5827 80.97 ,93.5827" style="fill:red;stroke:purple;stroke-width:0.2" />
</svg><svg version="1.1"
baseProfile="full" xmlns="http://www.w3.org/2000/svg">
<polygon points="121.455,70.2087 134.95 ,93.5827 107.96 ,93.5827" style="fill:red;stroke:purple;stroke-width:0.2" />
</svg><svg version="1.1"
baseProfile="full" xmlns="http://www.w3.org/2000/svg">
<polygon points="148.445,70.2087 161.94 ,93.5827 134.95 ,93.5827" style="fill:red;stroke:purple;stroke-width:0.2" />
</svg><svg version="1.1"
baseProfile="full" xmlns="http://www.w3.org/2000/svg">
<polygon points="175.435,70.2087 188.93 ,93.5827 161.94 ,93.5827" style="fill:red;stroke:purple;stroke-width:0.2" />
</svg><svg version="1.1"
baseProfile="full" xmlns="http://www.w3.org/2000/svg">
<polygon points="107.96,93.5827 121.455 ,70.2087 94.465 ,70.2087" style="fill:red;stroke:purple;stroke-width:0.2" />
</svg><svg version="1.1"
baseProfile="full" xmlns="http://www.w3.org/2000/svg">
<polygon points="134.95,93.5827 148.445 ,70.2087 121.455 ,70.2087" style="fill:red;stroke:purple;stroke-width:0.2" />
</svg><svg version="1.1"
baseProfile="full" xmlns="http://www.w3.org/2000/svg">
<polygon points="161.94,93.5827 175.435 ,70.2087 148.445 ,70.2087" style="fill:red;stroke:purple;stroke-width:0.2" />
</svg><svg version="1.1"
baseProfile="full" xmlns="http://www.w3.org/2000/svg">
<polygon points="107.96,46.8347 121.455 ,70.2087 94.465 ,70.2087" style="fill:red;stroke:purple;stroke-width:0.2" />
</svg><svg version="1.1"
baseProfile="full" xmlns="http://www.w3.org/2000/svg">
<polygon points="134.95,46.8347 148.445 ,70.2087 121.455 ,70.2087" style="fill:red;stroke:purple;stroke-width:0.2" />
</svg><svg version="1.1"
baseProfile="full" xmlns="http://www.w3.org/2000/svg">
<polygon points="161.94,46.8347 175.435 ,70.2087 148.445 ,70.2087" style="fill:red;stroke:purple;stroke-width:0.2" />
</svg><svg version="1.1"
baseProfile="full" xmlns="http://www.w3.org/2000/svg">
<polygon points="121.455,70.2087 134.95 ,46.8347 107.96 ,46.8347" style="fill:red;stroke:purple;stroke-width:0.2" />
</svg><svg version="1.1"
baseProfile="full" xmlns="http://www.w3.org/2000/svg">
<polygon points="148.445,70.2087 161.94 ,46.8347 134.95 ,46.8347" style="fill:red;stroke:purple;stroke-width:0.2" />
</svg><svg version="1.1"
baseProfile="full" xmlns="http://www.w3.org/2000/svg">
<polygon points="121.455,23.4606 134.95 ,46.8347 107.96 ,46.8347" style="fill:red;stroke:purple;stroke-width:0.2" />
</svg><svg version="1.1"
baseProfile="full" xmlns="http://www.w3.org/2000/svg">
<polygon points="148.445,23.4606 161.94 ,46.8347 134.95 ,46.8347" style="fill:red;stroke:purple;stroke-width:0.2" />
</svg><svg version="1.1"
baseProfile="full" xmlns="http://www.w3.org/2000/svg">
<polygon points="134.95,46.8347 148.445 ,23.4606 121.455 ,23.4606" style="fill:red;stroke:purple;stroke-width:0.2" />
</svg><svg version="1.1"
baseProfile="full" xmlns="http://www.w3.org/2000/svg">
<polygon points="134.95,0.0866025 148.445 ,23.4606 121.455 ,23.4606" style="fill:red;stroke:purple;stroke-width:0.2" />
</svg></svg>