<svg version="1.1"
baseProfile="full"
width="270" height="233.827"
xmlns="http://www.w3.org/2000/svg">
<polygon points=" 135,0  270,233.827  0,233.827"
 fill="green" />
<svg version="1.1"
baseProfile="full" width="38.2487" height="233.827"  xmlns="http://www.w3.org/2000/svg">
<polygon points=" 24.2487,233.827  25.1278,233.799  26.0034,233.716  26.872,233.579  27.7304,233.387  28.5749,233.142  29.4025,232.844  30.2096,232.494  30.9933,232.095  31.7503,231.647  32.4777,231.153  33.1726,230.614  33.8324,230.032  34.4543,229.411  35.0359,228.751  35.5749,228.056  36.0693,227.328  36.517,226.571  36.9163,225.788  37.2656,224.981  37.5635,224.153  37.8089,223.309  38.0007,222.45  38.1383,221.582  38.2211,220.706  38.2487,219.827  38.2211,218.948  38.1383,218.072  38.0007,217.204  37.8089,216.345  37.5635,215.501  37.2656,214.673  36.9163,213.866  36.517,213.082  36.0693,212.325  35.575,211.598  35.0359,210.903  34.4543,210.243  33.8324,209.621  33.1727,209.04  32.4777,208.501  31.7503,208.006  30.9933,207.559  30.2096,207.159  29.4025,206.81  28.575,206.512  27.7304,206.267  26.8721,206.075  26.0034,205.937  25.1278,205.854  24.2487,205.827  23.3697,205.854  22.4941,205.937  21.6254,206.075  20.7671,206.267  19.9225,206.512  19.095,206.81  18.2878,207.159  17.5042,207.559  16.7471,208.006  16.0197,208.501  15.3248,209.04  14.6651,209.621  14.0432,210.243  13.4615,210.903  12.9225,211.598  12.4281,212.325  11.9804,213.082  11.5811,213.866  11.2318,214.673  10.9339,215.501  10.6886,216.345  10.4967,217.204  10.3591,218.072  10.2763,218.948  10.2487,219.827  10.2763,220.706  10.3591,221.582  10.4967,222.45  10.6885,223.309  10.9339,224.153  11.2318,224.981  11.5811,225.788  11.9804,226.571  12.4281,227.328  12.9225,228.056  13.4615,228.751  14.0431,229.411  14.665,230.032  15.3248,230.614  16.0197,231.153  16.7471,231.647  17.5041,232.095  18.2878,232.494  19.095,232.844  19.9225,233.142  20.767,233.387  21.6254,233.579  22.494,233.716  23.3696,233.799"
 style="fill:red;stroke:purple;stroke-width:0.2" />
</svg><svg version="1.1"
baseProfile="full" width="66.2487" height="233.827"  xmlns="http://www.w3.org/2000/svg">
<polygon points=" 52.2487,233.827  53.1278,233.799  54.0034,233.716  54.872,233.579  55.7304,233.387  56.5749,233.142  57.4025,232.844  58.2096,232.494  58.9933,232.095  59.7503,231.647  60.4777,231.153  61.1726,230.614  61.8324,230.032  62.4543,229.411  63.0359,228.751  63.5749,228.056  64.0693,227.328  64.517,226.571  64.9163,225.788  65.2656,224.981  65.5635,224.153  65.8089,223.309  66.0007,222.45  66.1383,221.582  66.2211,220.706  66.2487,219.827  66.2211,218.948  66.1383,218.072  66.0007,217.204  65.8089,216.345  65.5635,215.501  65.2656,214.673  64.9163,213.866  64.517,213.082  64.0693,212.325  63.575,211.598  63.0359,210.903  62.4543,210.243  61.8324,209.621  61.1727,209.04  60.4777,208.501  59.7503,208.006  58.9933,207.559  58.2096,207.159  57.4025,206.81  56.575,206.512  55.7304,206.267  54.8721,206.075  54.0034,205.937  53.1278,205.854  52.2487,205.827  51.3697,205.854  50.4941,205.937  49.6254,206.075  48.7671,206.267  47.9225,206.512  47.095,206.81  46.2878,207.159  45.5042,207.559  44.7471,208.006  44.0197,208.501  43.3248,209.04  42.6651,209.621  42.0432,210.243  41.4615,210.903  40.9225,211.598  40.4281,212.325  39.9804,213.082  39.5811,213.866  39.2318,214.673  38.9339,215.501  38.6886,216.345  38.4967,217.204  38.3591,218.072  38.2763,218.948  38.2487,219.827  38.2763,220.706  38.3591,221.582  38.4967,222.45  38.6885,223.309  38.9339,224.153  39.2318,224.981  39.5811,225.788  39.9804,226.571  40.4281,227.328  40.9225,228.056  41.4615,228.751  42.0431,229.411  42.665,230.032  43.3248,230.614  44.0197,231.153  44.7471,231.647  45.5041,232.095  46.2878,232.494  47.095,232.844  47.9225,233.142  48.767,233.387  49.6254,233.579  50.494,233.716  51.3696,233.799"
 style="fill:red;stroke:purple;stroke-width:0.2" />
</svg><svg version="1.1"
baseProfile="full" width="94.2487" height="233.827"  xmlns="http://www.w3.org/2000/svg">
<polygon points=" 80.2487,233.827  81.1278,233.799  82.0034,233.716  82.872,233.579  83.7304,233.387  84.5749,233.142  85.4025,232.844  86.2096,232.494  86.9933,232.095  87.7503,231.647  88.4777,231.153  89.1726,230.614  89.8324,230.032  90.4543,229.411  91.0359,228.751  91.5749,228.056  92.0693,227.328  92.517,226.571  92.9163,225.788  93.2656,224.981  93.5635,224.153  93.8089,223.309  94.0007,222.45  94.1383,221.582  94.2211,220.706  94.2487,219.827  94.2211,218.948  94.1383,218.072  94.0007,217.204  93.8089,216.345  93.5635,215.501  93.2656,214.673  92.9163,213.866  92.517,213.082  92.0693,212.325  91.575,211.598  91.0359,210.903  90.4543,210.243  89.8324,209.621  89.1727,209.04  88.4777,208.501  87.7503,208.006  86.9933,207.559  86.2096,207.159  85.4025,206.81  84.575,206.512  83.7304,206.267  82.8721,206.075  82.0034,205.937  81.1278,205.854  80.2487,205.827  79.3697,205.854  78.4941,205.937  77.6254,206.075  76.7671,206.267  75.9225,206.512  75.095,206.81  74.2878,207.159  73.5042,207.559  72.7471,208.006  72.0197,208.501  71.3248,209.04  70.6651,209.621  70.0432,210.243  69.4615,210.903  68.9225,211.598  68.4281,212.325  67.9804,213.082  67.5811,213.866  67.2318,214.673  66.9339,215.501  66.6886,216.345  66.4967,217.204  66.3591,218.072  66.2763,218.948  66.2487,219.827  66.2763,220.706  66.3591,221.582  66.4967,222.45  66.6885,223.309  66.9339,224.153  67.2318,224.981  67.5811,225.788  67.9804,226.571  68.4281,227.328  68.9225,228.056  69.4615,228.751  70.0431,229.411  70.665,230.032  71.3248,230.614  72.0197,231.153  72.7471,231.647  73.5041,232.095  74.2878,232.494  75.095,232.844  75.9225,233.142  76.767,233.387  77.6254,233.579  78.494,233.716  79.3696,233.799"
 style="fill:red;stroke:purple;stroke-width:0.2" />
</svg><svg version="1.1"
baseProfile="full" width="122.249" height="233.827"  xmlns="http://www.w3.org/2000/svg">
<polygon points=" 108.249,233.827  109.128,233.799  110.003,233.716  110.872,233.579  111.73,233.387  112.575,233.142  113.402,232.844  114.21,232.494  114.993,232.095  115.75,231.647  116.478,231.153  117.173,230.614  117.832,230.032  118.454,229.411  119.036,228.751  119.575,228.056  120.069,227.328  120.517,226.571  120.916,225.788  121.266,224.981  121.564,224.153  121.809,223.309  122.001,222.45  122.138,221.582  122.221,220.706  122.249,219.827  122.221,218.948  122.138,218.072  122.001,217.204  121.809,216.345  121.564,215.501  121.266,214.673  120.916,213.866  120.517,213.082  120.069,212.325  119.575,211.598  119.036,210.903  118.454,210.243  117.832,209.621  117.173,209.04  116.478,208.501  115.75,208.006  114.993,207.559  114.21,207.159  113.402,206.81  112.575,206.512  111.73,206.267  110.872,206.075  110.003,205.937  109.128,205.854  108.249,205.827  107.37,205.854  106.494,205.937  105.625,206.075  104.767,206.267  103.922,206.512  103.095,206.81  102.288,207.159  101.504,207.559  100.747,208.006  100.02,208.501  99.3248,209.04  98.6651,209.621  98.0432,210.243  97.4615,210.903  96.9225,211.598  96.4281,212.325  95.9804,213.082  95.5811,213.866  95.2318,214.673  94.9339,215.501  94.6886,216.345  94.4967,217.204  94.3591,218.072  94.2763,218.948  94.2487,219.827  94.2763,220.706  94.3591,221.582  94.4967,222.45  94.6885,223.309  94.9339,224.153  95.2318,224.981  95.5811,225.788  95.9804,226.571  96.4281,227.328  96.9225,228.056  97.4615,228.751  98.0431,229.411  98.665,230.032  99.3248,230.614  100.02,231.153  100.747,231.647  101.504,232.095  102.288,232.494  103.095,232.844  103.922,233.142  104.767,233.387  105.625,233.579  106.494,233.716  107.37,233.799"
 style="fill:red;stroke:purple;stroke-width:0.2" />
</svg><svg version="1.1"
baseProfile="full" width="150.249" height="233.827"  xmlns="http://www.w3.org/2000/svg">
<polygon points=" 136.249,233.827  137.128,233.799  138.003,233.716  138.872,233.579  139.73,233.387  140.575,233.142  141.402,232.844  142.21,232.494  142.993,232.095  143.75,231.647  144.478,231.153  145.173,230.614  145.832,230.032  146.454,229.411  147.036,228.751  147.575,228.056  148.069,227.328  148.517,226.571  148.916,225.788  149.266,224.981  149.564,224.153  149.809,223.309  150.001,222.45  150.138,221.582  150.221,220.706  150.249,219.827  150.221,218.948  150.138,218.072  150.001,217.204  149.809,216.345  149.564,215.501  149.266,214.673  148.916,213.866  148.517,213.082  148.069,212.325  147.575,211.598  147.036,210.903  146.454,210.243  145.832,209.621  145.173,209.04  144.478,208.501  143.75,208.006  142.993,207.559  142.21,207.159  141.402,206.81  140.575,206.512  139.73,206.267  138.872,206.075  138.003,205.937  137.128,205.854  136.249,205.827  135.37,205.854  134.494,205.937  133.625,206.075  132.767,206.267  131.922,206.512  131.095,206.81  130.288,207.159  129.504,207.559  128.747,208.006  128.02,208.501  127.325,209.04  126.665,209.621  126.043,210.243  125.462,210.903  124.922,211.598  124.428,212.325  123.98,213.082  123.581,213.866  123.232,214.673  122.934,215.501  122.689,216.345  122.497,217.204  122.359,218.072  122.276,218.948  122.249,219.827  122.276,220.706  122.359,221.582  122.497,222.45  122.689,223.309  122.934,224.153  123.232,224.981  123.581,225.788  123.98,226.571  124.428,227.328  124.922,228.056  125.462,228.751  126.043,229.411  126.665,230.032  127.325,230.614  128.02,231.153  128.747,231.647  129.504,232.095  130.288,232.494  131.095,232.844  131.922,233.142  132.767,233.387  133.625,233.579  134.494,233.716  135.37,233.799"
 style="fill:red;stroke:purple;stroke-width:0.2" />
</svg><svg version="1.1"
baseProfile="full" width="178.249" height="233.827"  xmlns="http://www.w3.org/2000/svg">
<polygon points=" 164.249,233.827  165.128,233.799  166.003,233.716  166.872,233.579  167.73,233.387  168.575,233.142  169.402,232.844  170.21,232.494  170.993,232.095  171.75,231.647  172.478,231.153  173.173,230.614  173.832,230.032  174.454,229.411  175.036,228.751  175.575,228.056  176.069,227.328  176.517,226.571  176.916,225.788  177.266,224.981  177.564,224.153  177.809,223.309  178.001,222.45  178.138,221.582  178.221,220.706  178.249,219.827  178.221,218.948  178.138,218.072  178.001,217.204  177.809,216.345  177.564,215.501  177.266,214.673  176.916,213.866  176.517,213.082  176.069,212.325  175.575,211.598  175.036,210.903  174.454,210.243  173.832,209.621  173.173,209.04  172.478,208.501  171.75,208.006  170.993,207.559  170.21,207.159  169.402,206.81  168.575,206.512  167.73,206.267  166.872,206.075  166.003,205.937  165.128,205.854  164.249,205.827  163.37,205.854  162.494,205.937  161.625,206.075  160.767,206.267  159.922,206.512  159.095,206.81  158.288,207.159  157.504,207.559  156.747,208.006  156.02,208.501  155.325,209.04  154.665,209.621  154.043,210.243  153.462,210.903  152.922,211.598  152.428,212.325  151.98,213.082  151.581,213.866  151.232,214.673  150.934,215.501  150.689,216.345  150.497,217.204  150.359,218.072  150.276,218.948  150.249,219.827  150.276,220.706  150.359,221.582  150.497,222.45  150.689,223.309  150.934,224.153  151.232,224.981  151.581,225.788  151.98,226.571  152.428,227.328  152.922,228.056  153.462,228.751  154.043,229.411  154.665,230.032  155.325,230.614  156.02,231.153  156.747,231.647  157.504,232.095  158.288,232.494  159.095,232.844  159.922,233.142  160.767,233.387  161.625,233.579  162.494,233.716  163.37,233.799"
 style="fill:red;stroke:purple;stroke-width:0.2" />
</svg><svg version="1.1"
baseProfile="full" width="206.249" height="233.827"  xmlns="http://www.w3.org/2000/svg">
<polygon points=" 192.249,233.827  193.128,233.799  194.003,233.716  194.872,233.579  195.73,233.387  196.575,233.142  197.402,232.844  198.21,232.494  198.993,232.095  199.75,231.647  200.478,231.153  201.173,230.614  201.832,230.032  202.454,229.411  203.036,228.751  203.575,228.056  204.069,227.328  204.517,226.571  204.916,225.788  205.266,224.981  205.564,224.153  205.809,223.309  206.001,222.45  206.138,221.582  206.221,220.706  206.249,219.827  206.221,218.948  206.138,218.072  206.001,217.204  205.809,216.345  205.564,215.501  205.266,214.673  204.916,213.866  204.517,213.082  204.069,212.325  203.575,211.598  203.036,210.903  202.454,210.243  201.832,209.621  201.173,209.04  200.478,208.501  199.75,208.006  198.993,207.559  198.21,207.159  197.402,206.81  196.575,206.512  195.73,206.267  194.872,206.075  194.003,205.937  193.128,205.854  192.249,205.827  191.37,205.854  190.494,205.937  189.625,206.075  188.767,206.267  187.922,206.512  187.095,206.81  186.288,207.159  185.504,207.559  184.747,208.006  184.02,208.501  183.325,209.04  182.665,209.621  182.043,210.243  181.462,210.903  180.922,211.598  180.428,212.325  179.98,213.082  179.581,213.866  179.232,214.673  178.934,215.501  178.689,216.345  178.497,217.204  178.359,218.072  178.276,218.948  178.249,219.827  178.276,220.706  178.359,221.582  178.497,222.45  178.689,223.309  178.934,224.153  179.232,224.981  179.581,225.788  179.98,226.571  180.428,227.328  180.922,228.056  181.462,228.751  182.043,229.411  182.665,230.032  183.325,230.614  184.02,231.153  184.747,231.647  185.504,232.095  186.288,232.494  187.095,232.844  187.922,233.142  188.767,233.387  189.625,233.579  190.494,233.716  191.37,233.799"
 style="fill:red;stroke:purple;stroke-width:0.2" />
</svg><svg version="1.1"
baseProfile="full" width="234.249" height="233.827"  xmlns="http://www.w3.org/2000/svg">
<polygon points=" 220.249,233.827  221.128,233.799  222.003,233.716  222.872,233.579  223.73,233.387  224.575,233.142  225.402,232.844  226.21,232.494  226.993,232.095  227.75,231.647  228.478,231.153  229.173,230.614  229.832,230.032  230.454,229.411  231.036,228.751  231.575,228.056  232.069,227.328  232.517,226.571  232.916,225.788  233.266,224.981  233.564,224.153  233.809,223.309  234.001,222.45  234.138,221.582  234.221,220.706  234.249,219.827  234.221,218.948  234.138,218.072  234.001,217.204  233.809,216.345  233.564,215.501  233.266,214.673  232.916,213.866  232.517,213.082  232.069,212.325  231.575,211.598  231.036,210.903  230.454,210.243  229.832,209.621  229.173,209.04  228.478,208.501  227.75,208.006  226.993,207.559  226.21,207.159  225.402,206.81  224.575,206.512  223.73,206.267  222.872,206.075  222.003,205.937  221.128,205.854  220.249,205.827  219.37,205.854  218.494,205.937  217.625,206.075  216.767,206.267  215.922,206.512  215.095,206.81  214.288,207.159  213.504,207.559  212.747,208.006  212.02,208.501  211.325,209.04  210.665,209.621  210.043,210.243  209.462,210.903  208.922,211.598  208.428,212.325  207.98,213.082  207.581,213.866  207.232,214.673  206.934,215.501  206.689,216.345  206.497,217.204  206.359,218.072  206.276,218.948  206.249,219.827  206.276,220.706  206.359,221.582  206.497,222.45  206.689,223.309  206.934,224.153  207.232,224.981  207.581,225.788  207.98,226.571  208.428,227.328  208.922,228.056  209.462,228.751  210.043,229.411  210.665,230.032  211.325,230.614  212.02,231.153  212.747,231.647  213.504,232.095  214.288,232.494  215.095,232.844  215.922,233.142  216.767,233.387  217.625,233.579  218.494,233.716  219.37,233.799"
 style="fill:red;stroke:purple;stroke-width:0.2" />
</svg><svg version="1.1"
baseProfile="full" width="52.2487" height="209.578"  xmlns="http://www.w3.org/2000/svg">
<polygon points=" 38.2487,209.578  39.1278,209.551  40.0034,209.468  40.872,209.33  41.7304,209.138  42.5749,208.893  43.4025,208.595  44.2096,208.246  44.9933,207.846  45.7503,207.399  46.4777,206.904  47.1726,206.365  47.8324,205.784  48.4543,205.162  49.0359,204.502  49.5749,203.807  50.0693,203.08  50.517,202.323  50.9163,201.539  51.2656,200.732  51.5635,199.904  51.8089,199.06  52.0007,198.201  52.1383,197.333  52.2211,196.457  52.2487,195.578  52.2211,194.699  52.1383,193.823  52.0007,192.955  51.8089,192.096  51.5635,191.252  51.2656,190.424  50.9163,189.617  50.517,188.834  50.0693,188.077  49.575,187.349  49.0359,186.654  48.4543,185.994  47.8324,185.373  47.1727,184.791  46.4777,184.252  45.7503,183.758  44.9933,183.31  44.2096,182.911  43.4025,182.561  42.575,182.263  41.7304,182.018  40.8721,181.826  40.0034,181.689  39.1278,181.606  38.2487,181.578  37.3697,181.606  36.4941,181.689  35.6254,181.826  34.7671,182.018  33.9225,182.263  33.095,182.561  32.2878,182.911  31.5042,183.31  30.7471,183.758  30.0197,184.252  29.3248,184.791  28.6651,185.373  28.0432,185.994  27.4615,186.654  26.9225,187.349  26.4281,188.077  25.9804,188.834  25.5811,189.617  25.2318,190.424  24.9339,191.252  24.6886,192.096  24.4967,192.955  24.3591,193.823  24.2763,194.699  24.2487,195.578  24.2763,196.457  24.3591,197.333  24.4967,198.201  24.6885,199.06  24.9339,199.904  25.2318,200.732  25.5811,201.539  25.9804,202.323  26.4281,203.08  26.9225,203.807  27.4615,204.502  28.0431,205.162  28.665,205.784  29.3248,206.365  30.0197,206.904  30.7471,207.399  31.5041,207.846  32.2878,208.246  33.095,208.595  33.9225,208.893  34.767,209.138  35.6254,209.33  36.494,209.468  37.3696,209.551"
 style="fill:red;stroke:purple;stroke-width:0.2" />
</svg><svg version="1.1"
baseProfile="full" width="80.2487" height="209.578"  xmlns="http://www.w3.org/2000/svg">
<polygon points=" 66.2487,209.578  67.1278,209.551  68.0034,209.468  68.872,209.33  69.7304,209.138  70.5749,208.893  71.4025,208.595  72.2096,208.246  72.9933,207.846  73.7503,207.399  74.4777,206.904  75.1726,206.365  75.8324,205.784  76.4543,205.162  77.0359,204.502  77.5749,203.807  78.0693,203.08  78.517,202.323  78.9163,201.539  79.2656,200.732  79.5635,199.904  79.8089,199.06  80.0007,198.201  80.1383,197.333  80.2211,196.457  80.2487,195.578  80.2211,194.699  80.1383,193.823  80.0007,192.955  79.8089,192.096  79.5635,191.252  79.2656,190.424  78.9163,189.617  78.517,188.834  78.0693,188.077  77.575,187.349  77.0359,186.654  76.4543,185.994  75.8324,185.373  75.1727,184.791  74.4777,184.252  73.7503,183.758  72.9933,183.31  72.2096,182.911  71.4025,182.561  70.575,182.263  69.7304,182.018  68.8721,181.826  68.0034,181.689  67.1278,181.606  66.2487,181.578  65.3697,181.606  64.4941,181.689  63.6254,181.826  62.7671,182.018  61.9225,182.263  61.095,182.561  60.2878,182.911  59.5042,183.31  58.7471,183.758  58.0197,184.252  57.3248,184.791  56.6651,185.373  56.0432,185.994  55.4615,186.654  54.9225,187.349  54.4281,188.077  53.9804,188.834  53.5811,189.617  53.2318,190.424  52.9339,191.252  52.6886,192.096  52.4967,192.955  52.3591,193.823  52.2763,194.699  52.2487,195.578  52.2763,196.457  52.3591,197.333  52.4967,198.201  52.6885,199.06  52.9339,199.904  53.2318,200.732  53.5811,201.539  53.9804,202.323  54.4281,203.08  54.9225,203.807  55.4615,204.502  56.0431,205.162  56.665,205.784  57.3248,206.365  58.0197,206.904  58.7471,207.399  59.5041,207.846  60.2878,208.246  61.095,208.595  61.9225,208.893  62.767,209.138  63.6254,209.33  64.494,209.468  65.3696,209.551"
 style="fill:red;stroke:purple;stroke-width:0.2" />
</svg><svg version="1.1"
baseProfile="full" width="108.249" height="209.578"  xmlns="http://www.w3.org/2000/svg">
<polygon points=" 94.2487,209.578  95.1278,209.551  96.0034,209.468  96.872,209.33  97.7304,209.138  98.5749,208.893  99.4025,208.595  100.21,208.246  100.993,207.846  101.75,207.399  102.478,206.904  103.173,206.365  103.832,205.784  104.454,205.162  105.036,204.502  105.575,203.807  106.069,203.08  106.517,202.323  106.916,201.539  107.266,200.732  107.564,199.904  107.809,199.06  108.001,198.201  108.138,197.333  108.221,196.457  108.249,195.578  108.221,194.699  108.138,193.823  108.001,192.955  107.809,192.096  107.564,191.252  107.266,190.424  106.916,189.617  106.517,188.834  106.069,188.077  105.575,187.349  105.036,186.654  104.454,185.994  103.832,185.373  103.173,184.791  102.478,184.252  101.75,183.758  100.993,183.31  100.21,182.911  99.4025,182.561  98.575,182.263  97.7304,182.018  96.8721,181.826  96.0034,181.689  95.1278,181.606  94.2487,181.578  93.3697,181.606  92.4941,181.689  91.6254,181.826  90.7671,182.018  89.9225,182.263  89.095,182.561  88.2878,182.911  87.5042,183.31  86.7471,183.758  86.0197,184.252  85.3248,184.791  84.6651,185.373  84.0432,185.994  83.4615,186.654  82.9225,187.349  82.4281,188.077  81.9804,188.834  81.5811,189.617  81.2318,190.424  80.9339,191.252  80.6886,192.096  80.4967,192.955  80.3591,193.823  80.2763,194.699  80.2487,195.578  80.2763,196.457  80.3591,197.333  80.4967,198.201  80.6885,199.06  80.9339,199.904  81.2318,200.732  81.5811,201.539  81.9804,202.323  82.4281,203.08  82.9225,203.807  83.4615,204.502  84.0431,205.162  84.665,205.784  85.3248,206.365  86.0197,206.904  86.7471,207.399  87.5041,207.846  88.2878,208.246  89.095,208.595  89.9225,208.893  90.767,209.138  91.6254,209.33  92.494,209.468  93.3696,209.551"
 style="fill:red;stroke:purple;stroke-width:0.2" />
</svg><svg version="1.1"
baseProfile="full" width="136.249" height="209.578"  xmlns="http://www.w3.org/2000/svg">
<polygon points=" 122.249,209.578  123.128,209.551  124.003,209.468  124.872,209.33  125.73,209.138  126.575,208.893  127.402,208.595  128.21,208.246  128.993,207.846  129.75,207.399  130.478,206.904  131.173,206.365  131.832,205.784  132.454,205.162  133.036,204.502  133.575,203.807  134.069,203.08  134.517,202.323  134.916,201.539  135.266,200.732  135.564,199.904  135.809,199.06  136.001,198.201  136.138,197.333  136.221,196.457  136.249,195.578  136.221,194.699  136.138,193.823  136.001,192.955  135.809,192.096  135.564,191.252  135.266,190.424  134.916,189.617  134.517,188.834  134.069,188.077  133.575,187.349  133.036,186.654  132.454,185.994  131.832,185.373  131.173,184.791  130.478,184.252  129.75,183.758  128.993,183.31  128.21,182.911  127.402,182.561  126.575,182.263  125.73,182.018  124.872,181.826  124.003,181.689  123.128,181.606  122.249,181.578  121.37,181.606  120.494,181.689  119.625,181.826  118.767,182.018  117.922,182.263  117.095,182.561  116.288,182.911  115.504,183.31  114.747,183.758  114.02,184.252  113.325,184.791  112.665,185.373  112.043,185.994  111.462,186.654  110.922,187.349  110.428,188.077  109.98,188.834  109.581,189.617  109.232,190.424  108.934,191.252  108.689,192.096  108.497,192.955  108.359,193.823  108.276,194.699  108.249,195.578  108.276,196.457  108.359,197.333  108.497,198.201  108.689,199.06  108.934,199.904  109.232,200.732  109.581,201.539  109.98,202.323  110.428,203.08  110.922,203.807  111.462,204.502  112.043,205.162  112.665,205.784  113.325,206.365  114.02,206.904  114.747,207.399  115.504,207.846  116.288,208.246  117.095,208.595  117.922,208.893  118.767,209.138  119.625,209.33  120.494,209.468  121.37,209.551"
 style="fill:red;stroke:purple;stroke-width:0.2" />
</svg><svg version="1.1"
baseProfile="full" width="164.249" height="209.578"  xmlns="http://www.w3.org/2000/svg">
<polygon points=" 150.249,209.578  151.128,209.551  152.003,209.468  152.872,209.33  153.73,209.138  154.575,208.893  155.402,208.595  156.21,208.246  156.993,207.846  157.75,207.399  158.478,206.904  159.173,206.365  159.832,205.784  160.454,205.162  161.036,204.502  161.575,203.807  162.069,203.08  162.517,202.323  162.916,201.539  163.266,200.732  163.564,199.904  163.809,199.06  164.001,198.201  164.138,197.333  164.221,196.457  164.249,195.578  164.221,194.699  164.138,193.823  164.001,192.955  163.809,192.096  163.564,191.252  163.266,190.424  162.916,189.617  162.517,188.834  162.069,188.077  161.575,187.349  161.036,186.654  160.454,185.994  159.832,185.373  159.173,184.791  158.478,184.252  157.75,183.758  156.993,183.31  156.21,182.911  155.402,182.561  154.575,182.263  153.73,182.018  152.872,181.826  152.003,181.689  151.128,181.606  150.249,181.578  149.37,181.606  148.494,181.689  147.625,181.826  146.767,182.018  145.922,182.263  145.095,182.561  144.288,182.911  143.504,183.31  142.747,183.758  142.02,184.252  141.325,184.791  140.665,185.373  140.043,185.994  139.462,186.654  138.922,187.349  138.428,188.077  137.98,188.834  137.581,189.617  137.232,190.424  136.934,191.252  136.689,192.096  136.497,192.955  136.359,193.823  136.276,194.699  136.249,195.578  136.276,196.457  136.359,197.333  136.497,198.201  136.689,199.06  136.934,199.904  137.232,200.732  137.581,201.539  137.98,202.323  138.428,203.08  138.922,203.807  139.462,204.502  140.043,205.162  140.665,205.784  141.325,206.365  142.02,206.904  142.747,207.399  143.504,207.846  144.288,208.246  145.095,208.595  145.922,208.893  146.767,209.138  147.625,209.33  148.494,209.468  149.37,209.551"
 style="fill:red;stroke:purple;stroke-width:0.2" />
</svg><svg version="1.1"
baseProfile="full" width="192.249" height="209.578"  xmlns="http://www.w3.org/2000/svg">
<polygon points=" 178.249,209.578  179.128,209.551  180.003,209.468  180.872,209.33  181.73,209.138  182.575,208.893  183.402,208.595  184.21,208.246  184.993,207.846  185.75,207.399  186.478,206.904  187.173,206.365  187.832,205.784  188.454,205.162  189.036,204.502  189.575,203.807  190.069,203.08  190.517,202.323  190.916,201.539  191.266,200.732  191.564,199.904  191.809,199.06  192.001,198.201  192.138,197.333  192.221,196.457  192.249,195.578  192.221,194.699  192.138,193.823  192.001,192.955  191.809,192.096  191.564,191.252  191.266,190.424  190.916,189.617  190.517,188.834  190.069,188.077  189.575,187.349  189.036,186.654  188.454,185.994  187.832,185.373  187.173,184.791  186.478,184.252  185.75,183.758  184.993,183.31  184.21,182.911  183.402,182.561  182.575,182.263  181.73,182.018  180.872,181.826  180.003,181.689  179.128,181.606  178.249,181.578  177.37,181.606  176.494,181.689  175.625,181.826  174.767,182.018  173.922,182.263  173.095,182.561  172.288,182.911  171.504,183.31  170.747,183.758  170.02,184.252  169.325,184.791  168.665,185.373  168.043,185.994  167.462,186.654  166.922,187.349  166.428,188.077  165.98,188.834  165.581,189.617  165.232,190.424  164.934,191.252  164.689,192.096  164.497,192.955  164.359,193.823  164.276,194.699  164.249,195.578  164.276,196.457  164.359,197.333  164.497,198.201  164.689,199.06  164.934,199.904  165.232,200.732  165.581,201.539  165.98,202.323  166.428,203.08  166.922,203.807  167.462,204.502  168.043,205.162  168.665,205.784  169.325,206.365  170.02,206.904  170.747,207.399  171.504,207.846  172.288,208.246  173.095,208.595  173.922,208.893  174.767,209.138  175.625,209.33  176.494,209.468  177.37,209.551"
 style="fill:red;stroke:purple;stroke-width:0.2" />
</svg><svg version="1.1"
baseProfile="full" width="220.249" height="209.578"  xmlns="http://www.w3.org/2000/svg">
<polygon points=" 206.249,209.578  207.128,209.551  208.003,209.468  208.872,209.33  209.73,209.138  210.575,208.893  211.402,208.595  212.21,208.246  212.993,207.846  213.75,207.399  214.478,206.904  215.173,206.365  215.832,205.784  216.454,205.162  217.036,204.502  217.575,203.807  218.069,203.08  218.517,202.323  218.916,201.539  219.266,200.732  219.564,199.904  219.809,199.06  220.001,198.201  220.138,197.333  220.221,196.457  220.249,195.578  220.221,194.699  220.138,193.823  220.001,192.955  219.809,192.096  219.564,191.252  219.266,190.424  218.916,189.617  218.517,188.834  218.069,188.077  217.575,187.349  217.036,186.654  216.454,185.994  215.832,185.373  215.173,184.791  214.478,184.252  213.75,183.758  212.993,183.31  212.21,182.911  211.402,182.561  210.575,182.263  209.73,182.018  208.872,181.826  208.003,181.689  207.128,181.606  206.249,181.578  205.37,181.606  204.494,181.689  203.625,181.826  202.767,182.018  201.922,182.263  201.095,182.561  200.288,182.911  199.504,183.31  198.747,183.758  198.02,184.252  197.325,184.791  196.665,185.373  196.043,185.994  195.462,186.654  194.922,187.349  194.428,188.077  193.98,188.834  193.581,189.617  193.232,190.424  192.934,191.252  192.689,192.096  192.497,192.955  192.359,193.823  192.276,194.699  192.249,195.578  192.276,196.457  192.359,197.333  192.497,198.201  192.689,199.06  192.934,199.904  193.232,200.732  193.581,201.539  193.98,202.323  194.428,203.08  194.922,203.807  195.462,204.502  196.043,205.162  196.665,205.784  197.325,206.365  198.02,206.904  198.747,207.399  199.504,207.846  200.288,208.246  201.095,208.595  201.922,208.893  202.767,209.138  203.625,209.33  204.494,209.468  205.37,209.551"
 style="fill:red;stroke:purple;stroke-width:0.2" />
</svg><svg version="1.1"
baseProfile="full" width="66.2487" height="185.329"  xmlns="http://www.w3.org/2000/svg">
<polygon points=" 52.2487,185.329  53.1278,185.302  54.0034,185.219  54.872,185.081  55.7304,184.89  56.5749,184.644  57.4025,184.346  58.2096,183.997  58.9933,183.598  59.7503,183.15  60.4777,182.656  61.1726,182.117  61.8324,181.535  62.4543,180.913  63.0359,180.253  63.5749,179.558  64.0693,178.831  64.517,178.074  64.9163,177.29  65.2656,176.483  65.5635,175.656  65.8089,174.811  66.0007,173.953  66.1383,173.084  66.2211,172.209  66.2487,171.329  66.2211,170.45  66.1383,169.575  66.0007,168.706  65.8089,167.848  65.5635,167.003  65.2656,166.176  64.9163,165.369  64.517,164.585  64.0693,163.828  63.575,163.1  63.0359,162.406  62.4543,161.746  61.8324,161.124  61.1727,160.542  60.4777,160.003  59.7503,159.509  58.9933,159.061  58.2096,158.662  57.4025,158.313  56.575,158.015  55.7304,157.769  54.8721,157.577  54.0034,157.44  53.1278,157.357  52.2487,157.329  51.3697,157.357  50.4941,157.44  49.6254,157.577  48.7671,157.769  47.9225,158.015  47.095,158.313  46.2878,158.662  45.5042,159.061  44.7471,159.509  44.0197,160.003  43.3248,160.542  42.6651,161.124  42.0432,161.746  41.4615,162.405  40.9225,163.1  40.4281,163.828  39.9804,164.585  39.5811,165.369  39.2318,166.176  38.9339,167.003  38.6886,167.848  38.4967,168.706  38.3591,169.575  38.2763,170.45  38.2487,171.329  38.2763,172.208  38.3591,173.084  38.4967,173.953  38.6885,174.811  38.9339,175.656  39.2318,176.483  39.5811,177.29  39.9804,178.074  40.4281,178.831  40.9225,179.558  41.4615,180.253  42.0431,180.913  42.665,181.535  43.3248,182.117  44.0197,182.656  44.7471,183.15  45.5041,183.598  46.2878,183.997  47.095,184.346  47.9225,184.644  48.767,184.89  49.6254,185.081  50.494,185.219  51.3696,185.302"
 style="fill:red;stroke:purple;stroke-width:0.2" />
</svg><svg version="1.1"
baseProfile="full" width="94.2487" height="185.329"  xmlns="http://www.w3.org/2000/svg">
<polygon points=" 80.2487,185.329  81.1278,185.302  82.0034,185.219  82.872,185.081  83.7304,184.89  84.5749,184.644  85.4025,184.346  86.2096,183.997  86.9933,183.598  87.7503,183.15  88.4777,182.656  89.1726,182.117  89.8324,181.535  90.4543,180.913  91.0359,180.253  91.5749,179.558  92.0693,178.831  92.517,178.074  92.9163,177.29  93.2656,176.483  93.5635,175.656  93.8089,174.811  94.0007,173.953  94.1383,173.084  94.2211,172.209  94.2487,171.329  94.2211,170.45  94.1383,169.575  94.0007,168.706  93.8089,167.848  93.5635,167.003  93.2656,166.176  92.9163,165.369  92.517,164.585  92.0693,163.828  91.575,163.1  91.0359,162.406  90.4543,161.746  89.8324,161.124  89.1727,160.542  88.4777,160.003  87.7503,159.509  86.9933,159.061  86.2096,158.662  85.4025,158.313  84.575,158.015  83.7304,157.769  82.8721,157.577  82.0034,157.44  81.1278,157.357  80.2487,157.329  79.3697,157.357  78.4941,157.44  77.6254,157.577  76.7671,157.769  75.9225,158.015  75.095,158.313  74.2878,158.662  73.5042,159.061  72.7471,159.509  72.0197,160.003  71.3248,160.542  70.6651,161.124  70.0432,161.746  69.4615,162.405  68.9225,163.1  68.4281,163.828  67.9804,164.585  67.5811,165.369  67.2318,166.176  66.9339,167.003  66.6886,167.848  66.4967,168.706  66.3591,169.575  66.2763,170.45  66.2487,171.329  66.2763,172.208  66.3591,173.084  66.4967,173.953  66.6885,174.811  66.9339,175.656  67.2318,176.483  67.5811,177.29  67.9804,178.074  68.4281,178.831  68.9225,179.558  69.4615,180.253  70.0431,180.913  70.665,181.535  71.3248,182.117  72.0197,182.656  72.7471,183.15  73.5041,183.598  74.2878,183.997  75.095,184.346  75.9225,184.644  76.767,184.89  77.6254,185.081  78.494,185.219  79.3696,185.302"
 style="fill:red;stroke:purple;stroke-width:0.2" />
</svg><svg version="1.1"
baseProfile="full" width="122.249" height="185.329"  xmlns="http://www.w3.org/2000/svg">
<polygon points=" 108.249,185.329  109.128,185.302  110.003,185.219  110.872,185.081  111.73,184.89  112.575,184.644  113.402,184.346  114.21,183.997  114.993,183.598  115.75,183.15  116.478,182.656  117.173,182.117  117.832,181.535  118.454,180.913  119.036,180.253  119.575,179.558  120.069,178.831  120.517,178.074  120.916,177.29  121.266,176.483  121.564,175.656  121.809,174.811  122.001,173.953  122.138,173.084  122.221,172.209  122.249,171.329  122.221,170.45  122.138,169.575  122.001,168.706  121.809,167.848  121.564,167.003  121.266,166.176  120.916,165.369  120.517,164.585  120.069,163.828  119.575,163.1  119.036,162.406  118.454,161.746  117.832,161.124  117.173,160.542  116.478,160.003  115.75,159.509  114.993,159.061  114.21,158.662  113.402,158.313  112.575,158.015  111.73,157.769  110.872,157.577  110.003,157.44  109.128,157.357  108.249,157.329  107.37,157.357  106.494,157.44  105.625,157.577  104.767,157.769  103.922,158.015  103.095,158.313  102.288,158.662  101.504,159.061  100.747,159.509  100.02,160.003  99.3248,160.542  98.6651,161.124  98.0432,161.746  97.4615,162.405  96.9225,163.1  96.4281,163.828  95.9804,164.585  95.5811,165.369  95.2318,166.176  94.9339,167.003  94.6886,167.848  94.4967,168.706  94.3591,169.575  94.2763,170.45  94.2487,171.329  94.2763,172.208  94.3591,173.084  94.4967,173.953  94.6885,174.811  94.9339,175.656  95.2318,176.483  95.5811,177.29  95.9804,178.074  96.4281,178.831  96.9225,179.558  97.4615,180.253  98.0431,180.913  98.665,181.535  99.3248,182.117  100.02,182.656  100.747,183.15  101.504,183.598  102.288,183.997  103.095,184.346  103.922,184.644  104.767,184.89  105.625,185.081  106.494,185.219  107.37,185.302"
 style="fill:red;stroke:purple;stroke-width:0.2" />
</svg><svg version="1.1"
baseProfile="full" width="150.249" height="185.329"  xmlns="http://www.w3.org/2000/svg">
<polygon points=" 136.249,185.329  137.128,185.302  138.003,185.219  138.872,185.081  139.73,184.89  140.575,184.644  141.402,184.346  142.21,183.997  142.993,183.598  143.75,183.15  144.478,182.656  145.173,182.117  145.832,181.535  146.454,180.913  147.036,180.253  147.575,179.558  148.069,178.831  148.517,178.074  148.916,177.29  149.266,176.483  149.564,175.656  149.809,174.811  150.001,173.953  150.138,173.084  150.221,172.209  150.249,171.329  150.221,170.45  150.138,169.575  150.001,168.706  149.809,167.848  149.564,167.003  149.266,166.176  148.916,165.369  148.517,164.585  148.069,163.828  147.575,163.1  147.036,162.406  146.454,161.746  145.832,161.124  145.173,160.542  144.478,160.003  143.75,159.509  142.993,159.061  142.21,158.662  141.402,158.313  140.575,158.015  139.73,157.769  138.872,157.577  138.003,157.44  137.128,157.357  136.249,157.329  135.37,157.357  134.494,157.44  133.625,157.577  132.767,157.769  131.922,158.015  131.095,158.313  130.288,158.662  129.504,159.061  128.747,159.509  128.02,160.003  127.325,160.542  126.665,161.124  126.043,161.746  125.462,162.405  124.922,163.1  124.428,163.828  123.98,164.585  123.581,165.369  123.232,166.176  122.934,167.003  122.689,167.848  122.497,168.706  122.359,169.575  122.276,170.45  122.249,171.329  122.276,172.208  122.359,173.084  122.497,173.953  122.689,174.811  122.934,175.656  123.232,176.483  123.581,177.29  123.98,178.074  124.428,178.831  124.922,179.558  125.462,180.253  126.043,180.913  126.665,181.535  127.325,182.117  128.02,182.656  128.747,183.15  129.504,183.598  130.288,183.997  131.095,184.346  131.922,184.644  132.767,184.89  133.625,185.081  134.494,185.219  135.37,185.302"
 style="fill:red;stroke:purple;stroke-width:0.2" />
</svg><svg version="1.1"
baseProfile="full" width="178.249" height="185.329"  xmlns="http://www.w3.org/2000/svg">
<polygon points=" 164.249,185.329  165.128,185.302  166.003,185.219  166.872,185.081  167.73,184.89  168.575,184.644  169.402,184.346  170.21,183.997  170.993,183.598  171.75,183.15  172.478,182.656  173.173,182.117  173.832,181.535  174.454,180.913  175.036,180.253  175.575,179.558  176.069,178.831  176.517,178.074  176.916,177.29  177.266,176.483  177.564,175.656  177.809,174.811  178.001,173.953  178.138,173.084  178.221,172.209  178.249,171.329  178.221,170.45  178.138,169.575  178.001,168.706  177.809,167.848  177.564,167.003  177.266,166.176  176.916,165.369  176.517,164.585  176.069,163.828  175.575,163.1  175.036,162.406  174.454,161.746  173.832,161.124  173.173,160.542  172.478,160.003  171.75,159.509  170.993,159.061  170.21,158.662  169.402,158.313  168.575,158.015  167.73,157.769  166.872,157.577  166.003,157.44  165.128,157.357  164.249,157.329  163.37,157.357  162.494,157.44  161.625,157.577  160.767,157.769  159.922,158.015  159.095,158.313  158.288,158.662  157.504,159.061  156.747,159.509  156.02,160.003  155.325,160.542  154.665,161.124  154.043,161.746  153.462,162.405  152.922,163.1  152.428,163.828  151.98,164.585  151.581,165.369  151.232,166.176  150.934,167.003  150.689,167.848  150.497,168.706  150.359,169.575  150.276,170.45  150.249,171.329  150.276,172.208  150.359,173.084  150.497,173.953  150.689,174.811  150.934,175.656  151.232,176.483  151.581,177.29  151.98,178.074  152.428,178.831  152.922,179.558  153.462,180.253  154.043,180.913  154.665,181.535  155.325,182.117  156.02,182.656  156.747,183.15  157.504,183.598  158.288,183.997  159.095,184.346  159.922,184.644  160.767,184.89  161.625,185.081  162.494,185.219  163.37,185.302"
 style="fill:red;stroke:purple;stroke-width:0.2" />
</svg><svg version="1.1"
baseProfile="full" width="206.249" height="185.329"  xmlns="http://www.w3.org/2000/svg">
<polygon points=" 192.249,185.329  193.128,185.302  194.003,185.219  194.872,185.081  195.73,184.89  196.575,184.644  197.402,184.346  198.21,183.997  198.993,183.598  199.75,183.15  200.478,182.656  201.173,182.117  201.832,181.535  202.454,180.913  203.036,180.253  203.575,179.558  204.069,178.831  204.517,178.074  204.916,177.29  205.266,176.483  205.564,175.656  205.809,174.811  206.001,173.953  206.138,173.084  206.221,172.209  206.249,171.329  206.221,170.45  206.138,169.575  206.001,168.706  205.809,167.848  205.564,167.003  205.266,166.176  204.916,165.369  204.517,164.585  204.069,163.828  203.575,163.1  203.036,162.406  202.454,161.746  201.832,161.124  201.173,160.542  200.478,160.003  199.75,159.509  198.993,159.061  198.21,158.662  197.402,158.313  196.575,158.015  195.73,157.769  194.872,157.577  194.003,157.44  193.128,157.357  192.249,157.329  191.37,157.357  190.494,157.44  189.625,157.577  188.767,157.769  187.922,158.015  187.095,158.313  186.288,158.662  185.504,159.061  184.747,159.509  184.02,160.003  183.325,160.542  182.665,161.124  182.043,161.746  181.462,162.405  180.922,163.1  180.428,163.828  179.98,164.585  179.581,165.369  179.232,166.176  178.934,167.003  178.689,167.848  178.497,168.706  178.359,169.575  178.276,170.45  178.249,171.329  178.276,172.208  178.359,173.084  178.497,173.953  178.689,174.811  178.934,175.656  179.232,176.483  179.581,177.29  179.98,178.074  180.428,178.831  180.922,179.558  181.462,180.253  182.043,180.913  182.665,181.535  183.325,182.117  184.02,182.656  184.747,183.15  185.504,183.598  186.288,183.997  187.095,184.346  187.922,184.644  188.767,184.89  189.625,185.081  190.494,185.219  191.37,185.302"
 style="fill:red;stroke:purple;stroke-width:0.2" />
</svg><svg version="1.1"
baseProfile="full" width="80.2487" height="161.081"  xmlns="http://www.w3.org/2000/svg">
<polygon points=" 66.2487,161.081  67.1278,161.053  68.0034,160.97  68.872,160.833  69.7304,160.641  70.5749,160.396  71.4025,160.098  72.2096,159.748  72.9933,159.349  73.7503,158.901  74.4777,158.407  75.1726,157.868  75.8324,157.286  76.4543,156.664  77.0359,156.005  77.5749,155.31  78.0693,154.582  78.517,153.825  78.9163,153.042  79.2656,152.234  79.5635,151.407  79.8089,150.562  80.0007,149.704  80.1383,148.835  80.2211,147.96  80.2487,147.081  80.2211,146.202  80.1383,145.326  80.0007,144.457  79.8089,143.599  79.5635,142.754  79.2656,141.927  78.9163,141.12  78.517,140.336  78.0693,139.579  77.575,138.852  77.0359,138.157  76.4543,137.497  75.8324,136.875  75.1727,136.294  74.4777,135.754  73.7503,135.26  72.9933,134.812  72.2096,134.413  71.4025,134.064  70.575,133.766  69.7304,133.521  68.8721,133.329  68.0034,133.191  67.1278,133.108  66.2487,133.081  65.3697,133.108  64.4941,133.191  63.6254,133.329  62.7671,133.521  61.9225,133.766  61.095,134.064  60.2878,134.413  59.5042,134.812  58.7471,135.26  58.0197,135.754  57.3248,136.294  56.6651,136.875  56.0432,137.497  55.4615,138.157  54.9225,138.852  54.4281,139.579  53.9804,140.336  53.5811,141.12  53.2318,141.927  52.9339,142.754  52.6886,143.599  52.4967,144.457  52.3591,145.326  52.2763,146.202  52.2487,147.081  52.2763,147.96  52.3591,148.835  52.4967,149.704  52.6885,150.562  52.9339,151.407  53.2318,152.234  53.5811,153.042  53.9804,153.825  54.4281,154.582  54.9225,155.31  55.4615,156.005  56.0431,156.664  56.665,157.286  57.3248,157.868  58.0197,158.407  58.7471,158.901  59.5041,159.349  60.2878,159.748  61.095,160.098  61.9225,160.396  62.767,160.641  63.6254,160.833  64.494,160.97  65.3696,161.053"
 style="fill:red;stroke:purple;stroke-width:0.2" />
</svg><svg version="1.1"
baseProfile="full" width="108.249" height="161.081"  xmlns="http://www.w3.org/2000/svg">
<polygon points=" 94.2487,161.081  95.1278,161.053  96.0034,160.97  96.872,160.833  97.7304,160.641  98.5749,160.396  99.4025,160.098  100.21,159.748  100.993,159.349  101.75,158.901  102.478,158.407  103.173,157.868  103.832,157.286  104.454,156.664  105.036,156.005  105.575,155.31  106.069,154.582  106.517,153.825  106.916,153.042  107.266,152.234  107.564,151.407  107.809,150.562  108.001,149.704  108.138,148.835  108.221,147.96  108.249,147.081  108.221,146.202  108.138,145.326  108.001,144.457  107.809,143.599  107.564,142.754  107.266,141.927  106.916,141.12  106.517,140.336  106.069,139.579  105.575,138.852  105.036,138.157  104.454,137.497  103.832,136.875  103.173,136.294  102.478,135.754  101.75,135.26  100.993,134.812  100.21,134.413  99.4025,134.064  98.575,133.766  97.7304,133.521  96.8721,133.329  96.0034,133.191  95.1278,133.108  94.2487,133.081  93.3697,133.108  92.4941,133.191  91.6254,133.329  90.7671,133.521  89.9225,133.766  89.095,134.064  88.2878,134.413  87.5042,134.812  86.7471,135.26  86.0197,135.754  85.3248,136.294  84.6651,136.875  84.0432,137.497  83.4615,138.157  82.9225,138.852  82.4281,139.579  81.9804,140.336  81.5811,141.12  81.2318,141.927  80.9339,142.754  80.6886,143.599  80.4967,144.457  80.3591,145.326  80.2763,146.202  80.2487,147.081  80.2763,147.96  80.3591,148.835  80.4967,149.704  80.6885,150.562  80.9339,151.407  81.2318,152.234  81.5811,153.042  81.9804,153.825  82.4281,154.582  82.9225,155.31  83.4615,156.005  84.0431,156.664  84.665,157.286  85.3248,157.868  86.0197,158.407  86.7471,158.901  87.5041,159.349  88.2878,159.748  89.095,160.098  89.9225,160.396  90.767,160.641  91.6254,160.833  92.494,160.97  93.3696,161.053"
 style="fill:red;stroke:purple;stroke-width:0.2" />
</svg><svg version="1.1"
baseProfile="full" width="136.249" height="161.081"  xmlns="http://www.w3.org/2000/svg">
<polygon points=" 122.249,161.081  123.128,161.053  124.003,160.97  124.872,160.833  125.73,160.641  126.575,160.396  127.402,160.098  128.21,159.748  128.993,159.349  129.75,158.901  130.478,158.407  131.173,157.868  131.832,157.286  132.454,156.664  133.036,156.005  133.575,155.31  134.069,154.582  134.517,153.825  134.916,153.042  135.266,152.234  135.564,151.407  135.809,150.562  136.001,149.704  136.138,148.835  136.221,147.96  136.249,147.081  136.221,146.202  136.138,145.326  136.001,144.457  135.809,143.599  135.564,142.754  135.266,141.927  134.916,141.12  134.517,140.336  134.069,139.579  133.575,138.852  133.036,138.157  132.454,137.497  131.832,136.875  131.173,136.294  130.478,135.754  129.75,135.26  128.993,134.812  128.21,134.413  127.402,134.064  126.575,133.766  125.73,133.521  124.872,133.329  124.003,133.191  123.128,133.108  122.249,133.081  121.37,133.108  120.494,133.191  119.625,133.329  118.767,133.521  117.922,133.766  117.095,134.064  116.288,134.413  115.504,134.812  114.747,135.26  114.02,135.754  113.325,136.294  112.665,136.875  112.043,137.497  111.462,138.157  110.922,138.852  110.428,139.579  109.98,140.336  109.581,141.12  109.232,141.927  108.934,142.754  108.689,143.599  108.497,144.457  108.359,145.326  108.276,146.202  108.249,147.081  108.276,147.96  108.359,148.835  108.497,149.704  108.689,150.562  108.934,151.407  109.232,152.234  109.581,153.042  109.98,153.825  110.428,154.582  110.922,155.31  111.462,156.005  112.043,156.664  112.665,157.286  113.325,157.868  114.02,158.407  114.747,158.901  115.504,159.349  116.288,159.748  117.095,160.098  117.922,160.396  118.767,160.641  119.625,160.833  120.494,160.97  121.37,161.053"
 style="fill:red;stroke:purple;stroke-width:0.2" />
</svg><svg version="1.1"
baseProfile="full" width="164.249" height="161.081"  xmlns="http://www.w3.org/2000/svg">
<polygon points=" 150.249,161.081  151.128,161.053  152.003,160.97  152.872,160.833  153.73,160.641  154.575,160.396  155.402,160.098  156.21,159.748  156.993,159.349  157.75,158.901  158.478,158.407  159.173,157.868  159.832,157.286  160.454,156.664  161.036,156.005  161.575,155.31  162.069,154.582  162.517,153.825  162.916,153.042  163.266,152.234  163.564,151.407  163.809,150.562  164.001,149.704  164.138,148.835  164.221,147.96  164.249,147.081  164.221,146.202  164.138,145.326  164.001,144.457  163.809,143.599  163.564,142.754  163.266,141.927  162.916,141.12  162.517,140.336  162.069,139.579  161.575,138.852  161.036,138.157  160.454,137.497  159.832,136.875  159.173,136.294  158.478,135.754  157.75,135.26  156.993,134.812  156.21,134.413  155.402,134.064  154.575,133.766  153.73,133.521  152.872,133.329  152.003,133.191  151.128,133.108  150.249,133.081  149.37,133.108  148.494,133.191  147.625,133.329  146.767,133.521  145.922,133.766  145.095,134.064  144.288,134.413  143.504,134.812  142.747,135.26  142.02,135.754  141.325,136.294  140.665,136.875  140.043,137.497  139.462,138.157  138.922,138.852  138.428,139.579  137.98,140.336  137.581,141.12  137.232,141.927  136.934,142.754  136.689,143.599  136.497,144.457  136.359,145.326  136.276,146.202  136.249,147.081  136.276,147.96  136.359,148.835  136.497,149.704  136.689,150.562  136.934,151.407  137.232,152.234  137.581,153.042  137.98,153.825  138.428,154.582  138.922,155.31  139.462,156.005  140.043,156.664  140.665,157.286  141.325,157.868  142.02,158.407  142.747,158.901  143.504,159.349  144.288,159.748  145.095,160.098  145.922,160.396  146.767,160.641  147.625,160.833  148.494,160.97  149.37,161.053"
 style="fill:red;stroke:purple;stroke-width:0.2" />
</svg><svg version="1.1"
baseProfile="full" width="192.249" height="161.081"  xmlns="http://www.w3.org/2000/svg">
<polygon points=" 178.249,161.081  179.128,161.053  180.003,160.97  180.872,160.833  181.73,160.641  182.575,160.396  183.402,160.098  184.21,159.748  184.993,159.349  185.75,158.901  186.478,158.407  187.173,157.868  187.832,157.286  188.454,156.664  189.036,156.005  189.575,155.31  190.069,154.582  190.517,153.825  190.916,153.042  191.266,152.234  191.564,151.407  191.809,150.562  192.001,149.704  192.138,148.835  192.221,147.96  192.249,147.081  192.221,146.202  192.138,145.326  192.001,144.457  191.809,143.599  191.564,142.754  191.266,141.927  190.916,141.12  190.517,140.336  190.069,139.579  189.575,138.852  189.036,138.157  188.454,137.497  187.832,136.875  187.173,136.294  186.478,135.754  185.75,135.26  184.993,134.812  184.21,134.413  183.402,134.064  182.575,133.766  181.73,133.521  180.872,133.329  180.003,133.191  179.128,133.108  178.249,133.081  177.37,133.108  176.494,133.191  175.625,133.329  174.767,133.521  173.922,133.766  173.095,134.064  172.288,134.413  171.504,134.812  170.747,135.26  170.02,135.754  169.325,136.294  168.665,136.875  168.043,137.497  167.462,138.157  166.922,138.852  166.428,139.579  165.98,140.336  165.581,141.12  165.232,141.927  164.934,142.754  164.689,143.599  164.497,144.457  164.359,145.326  164.276,146.202  164.249,147.081  164.276,147.96  164.359,148.835  164.497,149.704  164.689,150.562  164.934,151.407  165.232,152.234  165.581,153.042  165.98,153.825  166.428,154.582  166.922,155.31  167.462,156.005  168.043,156.664  168.665,157.286  169.325,157.868  170.02,158.407  170.747,158.901  171.504,159.349  172.288,159.748  173.095,160.098  173.922,160.396  174.767,160.641  175.625,160.833  176.494,160.97  177.37,161.053"
 style="fill:red;stroke:purple;stroke-width:0.2" />
</svg><svg version="1.1"
baseProfile="full" width="94.2487" height="136.832"  xmlns="http://www.w3.org/2000/svg">
<polygon points=" 80.2487,136.832  81.1278,136.804  82.0034,136.722  82.872,136.584  83.7304,136.392  84.5749,136.147  85.4025,135.849  86.2096,135.5  86.9933,135.1  87.7503,134.653  88.4777,134.158  89.1726,133.619  89.8324,133.038  90.4543,132.416  91.0359,131.756  91.5749,131.061  92.0693,130.334  92.517,129.577  92.9163,128.793  93.2656,127.986  93.5635,127.158  93.8089,126.314  94.0007,125.455  94.1383,124.587  94.2211,123.711  94.2487,122.832  94.2211,121.953  94.1383,121.077  94.0007,120.209  93.8089,119.35  93.5635,118.506  93.2656,117.678  92.9163,116.871  92.517,116.087  92.0693,115.33  91.575,114.603  91.0359,113.908  90.4543,113.248  89.8324,112.626  89.1727,112.045  88.4777,111.506  87.7503,111.011  86.9933,110.564  86.2096,110.164  85.4025,109.815  84.575,109.517  83.7304,109.272  82.8721,109.08  82.0034,108.942  81.1278,108.86  80.2487,108.832  79.3697,108.86  78.4941,108.942  77.6254,109.08  76.7671,109.272  75.9225,109.517  75.095,109.815  74.2878,110.164  73.5042,110.564  72.7471,111.011  72.0197,111.506  71.3248,112.045  70.6651,112.626  70.0432,113.248  69.4615,113.908  68.9225,114.603  68.4281,115.33  67.9804,116.087  67.5811,116.871  67.2318,117.678  66.9339,118.506  66.6886,119.35  66.4967,120.209  66.3591,121.077  66.2763,121.953  66.2487,122.832  66.2763,123.711  66.3591,124.587  66.4967,125.455  66.6885,126.314  66.9339,127.158  67.2318,127.986  67.5811,128.793  67.9804,129.577  68.4281,130.334  68.9225,131.061  69.4615,131.756  70.0431,132.416  70.665,133.038  71.3248,133.619  72.0197,134.158  72.7471,134.653  73.5041,135.1  74.2878,135.5  75.095,135.849  75.9225,136.147  76.767,136.392  77.6254,136.584  78.494,136.722  79.3696,136.804"
 style="fill:red;stroke:purple;stroke-width:0.2" />
</svg><svg version="1.1"
baseProfile="full" width="122.249" height="136.832"  xmlns="http://www.w3.org/2000/svg">
<polygon points=" 108.249,136.832  109.128,136.804  110.003,136.722  110.872,136.584  111.73,136.392  112.575,136.147  113.402,135.849  114.21,135.5  114.993,135.1  115.75,134.653  116.478,134.158  117.173,133.619  117.832,133.038  118.454,132.416  119.036,131.756  119.575,131.061  120.069,130.334  120.517,129.577  120.916,128.793  121.266,127.986  121.564,127.158  121.809,126.314  122.001,125.455  122.138,124.587  122.221,123.711  122.249,122.832  122.221,121.953  122.138,121.077  122.001,120.209  121.809,119.35  121.564,118.506  121.266,117.678  120.916,116.871  120.517,116.087  120.069,115.33  119.575,114.603  119.036,113.908  118.454,113.248  117.832,112.626  117.173,112.045  116.478,111.506  115.75,111.011  114.993,110.564  114.21,110.164  113.402,109.815  112.575,109.517  111.73,109.272  110.872,109.08  110.003,108.942  109.128,108.86  108.249,108.832  107.37,108.86  106.494,108.942  105.625,109.08  104.767,109.272  103.922,109.517  103.095,109.815  102.288,110.164  101.504,110.564  100.747,111.011  100.02,111.506  99.3248,112.045  98.6651,112.626  98.0432,113.248  97.4615,113.908  96.9225,114.603  96.4281,115.33  95.9804,116.087  95.5811,116.871  95.2318,117.678  94.9339,118.506  94.6886,119.35  94.4967,120.209  94.3591,121.077  94.2763,121.953  94.2487,122.832  94.2763,123.711  94.3591,124.587  94.4967,125.455  94.6885,126.314  94.9339,127.158  95.2318,127.986  95.5811,128.793  95.9804,129.577  96.4281,130.334  96.9225,131.061  97.4615,131.756  98.0431,132.416  98.665,133.038  99.3248,133.619  100.02,134.158  100.747,134.653  101.504,135.1  102.288,135.5  103.095,135.849  103.922,136.147  104.767,136.392  105.625,136.584  106.494,136.722  107.37,136.804"
 style="fill:red;stroke:purple;stroke-width:0.2" />
</svg><svg version="1.1"
baseProfile="full" width="150.249" height="136.832"  xmlns="http://www.w3.org/2000/svg">
<polygon points=" 136.249,136.832  137.128,136.804  138.003,136.722  138.872,136.584  139.73,136.392  140.575,136.147  141.402,135.849  142.21,135.5  142.993,135.1  143.75,134.653  144.478,134.158  145.173,133.619  145.832,133.038  146.454,132.416  147.036,131.756  147.575,131.061  148.069,130.334  148.517,129.577  148.916,128.793  149.266,127.986  149.564,127.158  149.809,126.314  150.001,125.455  150.138,124.587  150.221,123.711  150.249,122.832  150.221,121.953  150.138,121.077  150.001,120.209  149.809,119.35  149.564,118.506  149.266,117.678  148.916,116.871  148.517,116.087  148.069,115.33  147.575,114.603  147.036,113.908  146.454,113.248  145.832,112.626  145.173,112.045  144.478,111.506  143.75,111.011  142.993,110.564  142.21,110.164  141.402,109.815  140.575,109.517  139.73,109.272  138.872,109.08  138.003,108.942  137.128,108.86  136.249,108.832  135.37,108.86  134.494,108.942  133.625,109.08  132.767,109.272  131.922,109.517  131.095,109.815  130.288,110.164  129.504,110.564  128.747,111.011  128.02,111.506  127.325,112.045  126.665,112.626  126.043,113.248  125.462,113.908  124.922,114.603  124.428,115.33  123.98,116.087  123.581,116.871  123.232,117.678  122.934,118.506  122.689,119.35  122.497,120.209  122.359,121.077  122.276,121.953  122.249,122.832  122.276,123.711  122.359,124.587  122.497,125.455  122.689,126.314  122.934,127.158  123.232,127.986  123.581,128.793  123.98,129.577  124.428,130.334  124.922,131.061  125.462,131.756  126.043,132.416  126.665,133.038  127.325,133.619  128.02,134.158  128.747,134.653  129.504,135.1  130.288,135.5  131.095,135.849  131.922,136.147  132.767,136.392  133.625,136.584  134.494,136.722  135.37,136.804"
 style="fill:red;stroke:purple;stroke-width:0.2" />
</svg><svg version="1.1"
baseProfile="full" width="178.249" height="136.832"  xmlns="http://www.w3.org/2000/svg">
<polygon points=" 164.249,136.832  165.128,136.804  166.003,136.722  166.872,136.584  167.73,136.392  168.575,136.147  169.402,135.849  170.21,135.5  170.993,135.1  171.75,134.653  172.478,134.158  173.173,133.619  173.832,133.038  174.454,132.416  175.036,131.756  175.575,131.061  176.069,130.334  176.517,129.577  176.916,128.793  177.266,127.986  177.564,127.158  177.809,126.314  178.001,125.455  178.138,124.587  178.221,123.711  178.249,122.832  178.221,121.953  178.138,121.077  178.001,120.209  177.809,119.35  177.564,118.506  177.266,117.678  176.916,116.871  176.517,116.087  176.069,115.33  175.575,114.603  175.036,113.908  174.454,113.248  173.832,112.626  173.173,112.045  172.478,111.506  171.75,111.011  170.993,110.564  170.21,110.164  169.402,109.815  168.575,109.517  167.73,109.272  166.872,109.08  166.003,108.942  165.128,108.86  164.249,108.832  163.37,108.86  162.494,108.942  161.625,109.08  160.767,109.272  159.922,109.517  159.095,109.815  158.288,110.164  157.504,110.564  156.747,111.011  156.02,111.506  155.325,112.045  154.665,112.626  154.043,113.248  153.462,113.908  152.922,114.603  152.428,115.33  151.98,116.087  151.581,116.871  151.232,117.678  150.934,118.506  150.689,119.35  150.497,120.209  150.359,121.077  150.276,121.953  150.249,122.832  150.276,123.711  150.359,124.587  150.497,125.455  150.689,126.314  150.934,127.158  151.232,127.986  151.581,128.793  151.98,129.577  152.428,130.334  152.922,131.061  153.462,131.756  154.043,132.416  154.665,133.038  155.325,133.619  156.02,134.158  156.747,134.653  157.504,135.1  158.288,135.5  159.095,135.849  159.922,136.147  160.767,136.392  161.625,136.584  162.494,136.722  163.37,136.804"
 style="fill:red;stroke:purple;stroke-width:0.2" />
</svg><svg version="1.1"
baseProfile="full" width="108.249" height="112.583"  xmlns="http://www.w3.org/2000/svg">
<polygon points=" 94.2487,112.583  95.1278,112.556  96.0034,112.473  96.872,112.335  97.7304,112.143  98.5749,111.898  99.4025,111.6  100.21,111.251  100.993,110.852  101.75,110.404  102.478,109.91  103.173,109.37  103.832,108.789  104.454,108.167  105.036,107.507  105.575,106.812  106.069,106.085  106.517,105.328  106.916,104.544  107.266,103.737  107.564,102.91  107.809,102.065  108.001,101.207  108.138,100.338  108.221,99.4624  108.249,98.5833  108.221,97.7042  108.138,96.8286  108.001,95.96  107.809,95.1016  107.564,94.2571  107.266,93.4296  106.916,92.6224  106.517,91.8388  106.069,91.0817  105.575,90.3543  105.036,89.6594  104.454,88.9996  103.832,88.3777  103.173,87.7961  102.478,87.2571  101.75,86.7627  100.993,86.315  100.21,85.9157  99.4025,85.5664  98.575,85.2685  97.7304,85.0231  96.8721,84.8313  96.0034,84.6937  95.1278,84.6109  94.2487,84.5833  93.3697,84.6109  92.4941,84.6937  91.6254,84.8313  90.7671,85.0231  89.9225,85.2685  89.095,85.5664  88.2878,85.9157  87.5042,86.315  86.7471,86.7627  86.0197,87.2571  85.3248,87.7961  84.6651,88.3777  84.0432,88.9996  83.4615,89.6594  82.9225,90.3543  82.4281,91.0817  81.9804,91.8387  81.5811,92.6224  81.2318,93.4295  80.9339,94.2571  80.6886,95.1016  80.4967,95.96  80.3591,96.8286  80.2763,97.7042  80.2487,98.5833  80.2763,99.4624  80.3591,100.338  80.4967,101.207  80.6885,102.065  80.9339,102.91  81.2318,103.737  81.5811,104.544  81.9804,105.328  82.4281,106.085  82.9225,106.812  83.4615,107.507  84.0431,108.167  84.665,108.789  85.3248,109.37  86.0197,109.91  86.7471,110.404  87.5041,110.852  88.2878,111.251  89.095,111.6  89.9225,111.898  90.767,112.143  91.6254,112.335  92.494,112.473  93.3696,112.556"
 style="fill:red;stroke:purple;stroke-width:0.2" />
</svg><svg version="1.1"
baseProfile="full" width="136.249" height="112.583"  xmlns="http://www.w3.org/2000/svg">
<polygon points=" 122.249,112.583  123.128,112.556  124.003,112.473  124.872,112.335  125.73,112.143  126.575,111.898  127.402,111.6  128.21,111.251  128.993,110.852  129.75,110.404  130.478,109.91  131.173,109.37  131.832,108.789  132.454,108.167  133.036,107.507  133.575,106.812  134.069,106.085  134.517,105.328  134.916,104.544  135.266,103.737  135.564,102.91  135.809,102.065  136.001,101.207  136.138,100.338  136.221,99.4624  136.249,98.5833  136.221,97.7042  136.138,96.8286  136.001,95.96  135.809,95.1016  135.564,94.2571  135.266,93.4296  134.916,92.6224  134.517,91.8388  134.069,91.0817  133.575,90.3543  133.036,89.6594  132.454,88.9996  131.832,88.3777  131.173,87.7961  130.478,87.2571  129.75,86.7627  128.993,86.315  128.21,85.9157  127.402,85.5664  126.575,85.2685  125.73,85.0231  124.872,84.8313  124.003,84.6937  123.128,84.6109  122.249,84.5833  121.37,84.6109  120.494,84.6937  119.625,84.8313  118.767,85.0231  117.922,85.2685  117.095,85.5664  116.288,85.9157  115.504,86.315  114.747,86.7627  114.02,87.2571  113.325,87.7961  112.665,88.3777  112.043,88.9996  111.462,89.6594  110.922,90.3543  110.428,91.0817  109.98,91.8387  109.581,92.6224  109.232,93.4295  108.934,94.2571  108.689,95.1016  108.497,95.96  108.359,96.8286  108.276,97.7042  108.249,98.5833  108.276,99.4624  108.359,100.338  108.497,101.207  108.689,102.065  108.934,102.91  109.232,103.737  109.581,104.544  109.98,105.328  110.428,106.085  110.922,106.812  111.462,107.507  112.043,108.167  112.665,108.789  113.325,109.37  114.02,109.91  114.747,110.404  115.504,110.852  116.288,111.251  117.095,111.6  117.922,111.898  118.767,112.143  119.625,112.335  120.494,112.473  121.37,112.556"
 style="fill:red;stroke:purple;stroke-width:0.2" />
</svg><svg version="1.1"
baseProfile="full" width="164.249" height="112.583"  xmlns="http://www.w3.org/2000/svg">
<polygon points=" 150.249,112.583  151.128,112.556  152.003,112.473  152.872,112.335  153.73,112.143  154.575,111.898  155.402,111.6  156.21,111.251  156.993,110.852  157.75,110.404  158.478,109.91  159.173,109.37  159.832,108.789  160.454,108.167  161.036,107.507  161.575,106.812  162.069,106.085  162.517,105.328  162.916,104.544  163.266,103.737  163.564,102.91  163.809,102.065  164.001,101.207  164.138,100.338  164.221,99.4624  164.249,98.5833  164.221,97.7042  164.138,96.8286  164.001,95.96  163.809,95.1016  163.564,94.2571  163.266,93.4296  162.916,92.6224  162.517,91.8388  162.069,91.0817  161.575,90.3543  161.036,89.6594  160.454,88.9996  159.832,88.3777  159.173,87.7961  158.478,87.2571  157.75,86.7627  156.993,86.315  156.21,85.9157  155.402,85.5664  154.575,85.2685  153.73,85.0231  152.872,84.8313  152.003,84.6937  151.128,84.6109  150.249,84.5833  149.37,84.6109  148.494,84.6937  147.625,84.8313  146.767,85.0231  145.922,85.2685  145.095,85.5664  144.288,85.9157  143.504,86.315  142.747,86.7627  142.02,87.2571  141.325,87.7961  140.665,88.3777  140.043,88.9996  139.462,89.6594  138.922,90.3543  138.428,91.0817  137.98,91.8387  137.581,92.6224  137.232,93.4295  136.934,94.2571  136.689,95.1016  136.497,95.96  136.359,96.8286  136.276,97.7042  136.249,98.5833  136.276,99.4624  136.359,100.338  136.497,101.207  136.689,102.065  136.934,102.91  137.232,103.737  137.581,104.544  137.98,105.328  138.428,106.085  138.922,106.812  139.462,107.507  140.043,108.167  140.665,108.789  141.325,109.37  142.02,109.91  142.747,110.404  143.504,110.852  144.288,111.251  145.095,111.6  145.922,111.898  146.767,112.143  147.625,112.335  148.494,112.473  149.37,112.556"
 style="fill:red;stroke:purple;stroke-width:0.2" />
</svg><svg version="1.1"
baseProfile="full" width="122.249" height="88.3346"  xmlns="http://www.w3.org/2000/svg">
<polygon points=" 108.249,88.3346  109.128,88.307  110.003,88.2242  110.872,88.0866  111.73,87.8948  112.575,87.6494  113.402,87.3515  114.21,87.0022  114.993,86.6029  115.75,86.1552  116.478,85.6608  117.173,85.1218  117.832,84.5402  118.454,83.9183  119.036,83.2585  119.575,82.5636  120.069,81.8362  120.517,81.0791  120.916,80.2955  121.266,79.4883  121.564,78.6608  121.809,77.8163  122.001,76.9579  122.138,76.0893  122.221,75.2137  122.249,74.3346  122.221,73.4555  122.138,72.5799  122.001,71.7113  121.809,70.8529  121.564,70.0084  121.266,69.1809  120.916,68.3737  120.517,67.59  120.069,66.833  119.575,66.1056  119.036,65.4107  118.454,64.7509  117.832,64.129  117.173,63.5474  116.478,63.0084  115.75,62.514  114.993,62.0663  114.21,61.667  113.402,61.3177  112.575,61.0198  111.73,60.7744  110.872,60.5826  110.003,60.445  109.128,60.3622  108.249,60.3346  107.37,60.3622  106.494,60.445  105.625,60.5826  104.767,60.7744  103.922,61.0198  103.095,61.3177  102.288,61.667  101.504,62.0663  100.747,62.514  100.02,63.0083  99.3248,63.5474  98.6651,64.129  98.0432,64.7509  97.4615,65.4106  96.9225,66.1056  96.4281,66.833  95.9804,67.59  95.5811,68.3737  95.2318,69.1808  94.9339,70.0083  94.6886,70.8529  94.4967,71.7112  94.3591,72.5799  94.2763,73.4555  94.2487,74.3346  94.2763,75.2136  94.3591,76.0892  94.4967,76.9579  94.6885,77.8162  94.9339,78.6608  95.2318,79.4883  95.5811,80.2955  95.9804,81.0791  96.4281,81.8362  96.9225,82.5636  97.4615,83.2585  98.0431,83.9182  98.665,84.5401  99.3248,85.1218  100.02,85.6608  100.747,86.1552  101.504,86.6029  102.288,87.0022  103.095,87.3515  103.922,87.6494  104.767,87.8948  105.625,88.0866  106.494,88.2242  107.37,88.307"
 style="fill:red;stroke:purple;stroke-width:0.2" />
</svg><svg version="1.1"
baseProfile="full" width="150.249" height="88.3346"  xmlns="http://www.w3.org/2000/svg">
<polygon points=" 136.249,88.3346  137.128,88.307  138.003,88.2242  138.872,88.0866  139.73,87.8948  140.575,87.6494  141.402,87.3515  142.21,87.0022  142.993,86.6029  143.75,86.1552  144.478,85.6608  145.173,85.1218  145.832,84.5402  146.454,83.9183  147.036,83.2585  147.575,82.5636  148.069,81.8362  148.517,81.0791  148.916,80.2955  149.266,79.4883  149.564,78.6608  149.809,77.8163  150.001,76.9579  150.138,76.0893  150.221,75.2137  150.249,74.3346  150.221,73.4555  150.138,72.5799  150.001,71.7113  149.809,70.8529  149.564,70.0084  149.266,69.1809  148.916,68.3737  148.517,67.59  148.069,66.833  147.575,66.1056  147.036,65.4107  146.454,64.7509  145.832,64.129  145.173,63.5474  144.478,63.0084  143.75,62.514  142.993,62.0663  142.21,61.667  141.402,61.3177  140.575,61.0198  139.73,60.7744  138.872,60.5826  138.003,60.445  137.128,60.3622  136.249,60.3346  135.37,60.3622  134.494,60.445  133.625,60.5826  132.767,60.7744  131.922,61.0198  131.095,61.3177  130.288,61.667  129.504,62.0663  128.747,62.514  128.02,63.0083  127.325,63.5474  126.665,64.129  126.043,64.7509  125.462,65.4106  124.922,66.1056  124.428,66.833  123.98,67.59  123.581,68.3737  123.232,69.1808  122.934,70.0083  122.689,70.8529  122.497,71.7112  122.359,72.5799  122.276,73.4555  122.249,74.3346  122.276,75.2136  122.359,76.0892  122.497,76.9579  122.689,77.8162  122.934,78.6608  123.232,79.4883  123.581,80.2955  123.98,81.0791  124.428,81.8362  124.922,82.5636  125.462,83.2585  126.043,83.9182  126.665,84.5401  127.325,85.1218  128.02,85.6608  128.747,86.1552  129.504,86.6029  130.288,87.0022  131.095,87.3515  131.922,87.6494  132.767,87.8948  133.625,88.0866  134.494,88.2242  135.37,88.307"
 style="fill:red;stroke:purple;stroke-width:0.2" />
</svg><svg version="1.1"
baseProfile="full" width="136.249" height="64.0859"  xmlns="http://www.w3.org/2000/svg">
<polygon points=" 122.249,64.0859  123.128,64.0583  124.003,63.9755  124.872,63.8379  125.73,63.646  126.575,63.4007  127.402,63.1028  128.21,62.7535  128.993,62.3542  129.75,61.9065  130.478,61.4121  131.173,60.8731  131.832,60.2914  132.454,59.6695  133.036,59.0098  133.575,58.3149  134.069,57.5875  134.517,56.8304  134.916,56.0468  135.266,55.2396  135.564,54.4121  135.809,53.5675  136.001,52.7092  136.138,51.8405  136.221,50.965  136.249,50.0859  136.221,49.2068  136.138,48.3312  136.001,47.4625  135.809,46.6042  135.564,45.7596  135.266,44.9321  134.916,44.125  134.517,43.3413  134.069,42.5843  133.575,41.8569  133.036,41.1619  132.454,40.5022  131.832,39.8803  131.173,39.2987  130.478,38.7596  129.75,38.2653  128.993,37.8176  128.21,37.4183  127.402,37.069  126.575,36.7711  125.73,36.5257  124.872,36.3339  124.003,36.1963  123.128,36.1135  122.249,36.0859  121.37,36.1135  120.494,36.1963  119.625,36.3339  118.767,36.5257  117.922,36.7711  117.095,37.069  116.288,37.4183  115.504,37.8176  114.747,38.2653  114.02,38.7596  113.325,39.2987  112.665,39.8803  112.043,40.5022  111.462,41.1619  110.922,41.8569  110.428,42.5843  109.98,43.3413  109.581,44.125  109.232,44.9321  108.934,45.7596  108.689,46.6042  108.497,47.4625  108.359,48.3312  108.276,49.2068  108.249,50.0859  108.276,50.9649  108.359,51.8405  108.497,52.7092  108.689,53.5675  108.934,54.4121  109.232,55.2396  109.581,56.0468  109.98,56.8304  110.428,57.5874  110.922,58.3149  111.462,59.0098  112.043,59.6695  112.665,60.2914  113.325,60.8731  114.02,61.4121  114.747,61.9065  115.504,62.3542  116.288,62.7535  117.095,63.1027  117.922,63.4007  118.767,63.646  119.625,63.8379  120.494,63.9755  121.37,64.0583"
 style="fill:red;stroke:purple;stroke-width:0.2" />
</svg></svg>