<svg version="1.1"
baseProfile="full" width="412" height="413"  xmlns="http://www.w3.org/2000/svg">
<polygon points=" 212,413  224.558,412.605  237.067,411.423  249.476,409.457  261.738,406.717  273.803,403.211  285.625,398.955  297.156,393.965  308.351,388.261  319.165,381.866  329.557,374.803  339.485,367.103  348.909,358.794  357.794,349.909  366.103,340.485  373.803,330.557  380.866,320.165  387.261,309.351  392.965,298.156  397.955,286.625  402.211,274.803  405.717,262.738  408.457,250.476  410.423,238.067  411.605,225.558  412,213  411.605,200.442  410.423,187.933  408.457,175.524  405.717,163.262  402.211,151.197  397.955,139.375  392.965,127.844  387.261,116.649  380.866,105.835  373.803,95.443  366.103,85.5153  357.794,76.0906  348.909,67.2063  339.485,58.8974  329.557,51.1967  319.165,44.1345  308.351,37.7387  297.156,32.0346  285.625,27.0447  273.804,22.7887  261.738,19.2834  249.476,16.5426  237.067,14.5771  224.558,13.3947  212,13  199.442,13.3946  186.933,14.577  174.524,16.5425  162.262,19.2833  150.197,22.7887  138.375,27.0446  126.844,32.0345  115.649,37.7386  104.835,44.1343  94.4431,51.1965  84.5153,58.8972  75.0907,67.2062  66.2064,76.0905  57.8975,85.5151  50.1967,95.4428  43.1345,105.834  36.7387,116.649  31.0347,127.844  26.0448,139.375  21.7888,151.196  18.2834,163.262  15.5426,175.524  13.5771,187.933  12.3947,200.442  12,213  12.3946,225.558  13.577,238.066  15.5425,250.476  18.2833,262.738  21.7886,274.803  26.0446,286.625  31.0345,298.156  36.7386,309.351  43.1343,320.165  50.1965,330.557  57.8972,340.485  66.2061,349.909  75.0904,358.794  84.515,367.103  94.4428,374.803  104.834,381.865  115.649,388.261  126.844,393.965  138.375,398.955  150.196,403.211  162.262,406.717  174.523,409.457  186.933,411.423  199.442,412.605"
 style="fill:red;stroke:purple;stroke-width:0.2" />
</svg>