<svg version="1.1"
baseProfile="full" width="474" height="474"  xmlns="http://www.w3.org/2000/svg">
<polygon points=" 316,474  325.921,473.688  335.803,472.754  345.606,471.201  355.293,469.036  364.825,466.267  374.164,462.905  383.273,458.963  392.117,454.456  400.661,449.404  408.87,443.825  416.713,437.741  424.158,431.177  431.177,424.158  437.741,416.713  443.825,408.87  449.404,400.661  454.456,392.117  458.963,383.273  462.905,374.164  466.267,364.825  469.036,355.293  471.201,345.606  472.754,335.803  473.688,325.921  474,316  473.688,306.079  472.754,296.197  471.201,286.394  469.036,276.707  466.267,267.175  462.905,257.836  458.963,248.727  454.456,239.883  449.404,231.339  443.825,223.13  437.741,215.287  431.177,207.842  424.158,200.823  416.713,194.259  408.87,188.175  400.661,182.596  392.117,177.544  383.273,173.037  374.164,169.095  364.825,165.733  355.293,162.964  345.606,160.799  335.803,159.246  325.921,158.312  316,158  306.079,158.312  296.197,159.246  286.394,160.799  276.707,162.964  267.175,165.733  257.836,169.095  248.727,173.037  239.883,177.543  231.339,182.596  223.13,188.175  215.287,194.259  207.842,200.823  200.823,207.841  194.259,215.287  188.175,223.13  182.596,231.339  177.544,239.883  173.037,248.727  169.095,257.836  165.733,267.175  162.964,276.707  160.799,286.394  159.246,296.197  158.312,306.079  158,316  158.312,325.921  159.246,335.802  160.799,345.606  162.964,355.293  165.733,364.825  169.095,374.164  173.037,383.273  177.543,392.117  182.596,400.66  188.175,408.87  194.259,416.713  200.823,424.158  207.841,431.177  215.287,437.741  223.13,443.825  231.339,449.404  239.883,454.456  248.727,458.963  257.836,462.905  267.175,466.267  276.707,469.036  286.394,471.201  296.197,472.754  306.079,473.688"
 style="fill:red;stroke:purple;stroke-width:0.2" />
</svg>