<svg version="1.1"
baseProfile="full"
width="250" height="140"
xmlns="http://www.w3.org/2000/svg">
<polygon points=" 0,0  250,0  250,140  0,140"
 fill="green" />
<svg version="1.1"
baseProfile="full" width="13" height="15"  xmlns="http://www.w3.org/2000/svg">
<polygon points=" 0,0  13,0  13,15  0,15"
 style="fill:red;stroke:purple;stroke-width:0.2" />
</svg><svg version="1.1"
baseProfile="full" width="26" height="15"  xmlns="http://www.w3.org/2000/svg">
<polygon points=" 13,0  26,0  26,15  13,15"
 style="fill:red;stroke:purple;stroke-width:0.2" />
</svg><svg version="1.1"
baseProfile="full" width="39" height="15"  xmlns="http://www.w3.org/2000/svg">
<polygon points=" 26,0  39,0  39,15  26,15"
 style="fill:red;stroke:purple;stroke-width:0.2" />
</svg><svg version="1.1"
baseProfile="full" width="52" height="15"  xmlns="http://www.w3.org/2000/svg">
<polygon points=" 39,0  52,0  52,15  39,15"
 style="fill:red;stroke:purple;stroke-width:0.2" />
</svg><svg version="1.1"
baseProfile="full" width="65" height="15"  xmlns="http://www.w3.org/2000/svg">
<polygon points=" 52,0  65,0  65,15  52,15"
 style="fill:red;stroke:purple;stroke-width:0.2" />
</svg><svg version="1.1"
baseProfile="full" width="78" height="15"  xmlns="http://www.w3.org/2000/svg">
<polygon points=" 65,0  78,0  78,15  65,15"
 style="fill:red;stroke:purple;stroke-width:0.2" />
</svg><svg version="1.1"
baseProfile="full" width="91" height="15"  xmlns="http://www.w3.org/2000/svg">
<polygon points=" 78,0  91,0  91,15  78,15"
 style="fill:red;stroke:purple;stroke-width:0.2" />
</svg><svg version="1.1"
baseProfile="full" width="104" height="15"  xmlns="http://www.w3.org/2000/svg">
<polygon points=" 91,0  104,0  104,15  91,15"
 style="fill:red;stroke:purple;stroke-width:0.2" />
</svg><svg version="1.1"
baseProfile="full" width="117" height="15"  xmlns="http://www.w3.org/2000/svg">
<polygon points=" 104,0  117,0  117,15  104,15"
 style="fill:red;stroke:purple;stroke-width:0.2" />
</svg><svg version="1.1"
baseProfile="full" width="130" height="15"  xmlns="http://www.w3.org/2000/svg">
<polygon points=" 117,0  130,0  130,15  117,15"
 style="fill:red;stroke:purple;stroke-width:0.2" />
</svg><svg version="1.1"
baseProfile="full" width="143" height="15"  xmlns="http://www.w3.org/2000/svg">
<polygon points=" 130,0  143,0  143,15  130,15"
 style="fill:red;stroke:purple;stroke-width:0.2" />
</svg><svg version="1.1"
baseProfile="full" width="156" height="15"  xmlns="http://www.w3.org/2000/svg">
<polygon points=" 143,0  156,0  156,15  143,15"
 style="fill:red;stroke:purple;stroke-width:0.2" />
</svg><svg version="1.1"
baseProfile="full" width="169" height="15"  xmlns="http://www.w3.org/2000/svg">
<polygon points=" 156,0  169,0  169,15  156,15"
 style="fill:red;stroke:purple;stroke-width:0.2" />
</svg><svg version="1.1"
baseProfile="full" width="182" height="15"  xmlns="http://www.w3.org/2000/svg">
<polygon points=" 169,0  182,0  182,15  169,15"
 style="fill:red;stroke:purple;stroke-width:0.2" />
</svg><svg version="1.1"
baseProfile="full" width="195" height="15"  xmlns="http://www.w3.org/2000/svg">
<polygon points=" 182,0  195,0  195,15  182,15"
 style="fill:red;stroke:purple;stroke-width:0.2" />
</svg><svg version="1.1"
baseProfile="full" width="208" height="15"  xmlns="http://www.w3.org/2000/svg">
<polygon points=" 195,0  208,0  208,15  195,15"
 style="fill:red;stroke:purple;stroke-width:0.2" />
</svg><svg version="1.1"
baseProfile="full" width="221" height="15"  xmlns="http://www.w3.org/2000/svg">
<polygon points=" 208,0  221,0  221,15  208,15"
 style="fill:red;stroke:purple;stroke-width:0.2" />
</svg><svg version="1.1"
baseProfile="full" width="234" height="15"  xmlns="http://www.w3.org/2000/svg">
<polygon points=" 221,0  234,0  234,15  221,15"
 style="fill:red;stroke:purple;stroke-width:0.2" />
</svg><svg version="1.1"
baseProfile="full" width="247" height="15"  xmlns="http://www.w3.org/2000/svg">
<polygon points=" 234,0  247,0  247,15  234,15"
 style="fill:red;stroke:purple;stroke-width:0.2" />
</svg><svg version="1.1"
baseProfile="full" width="13" height="30"  xmlns="http://www.w3.org/2000/svg">
<polygon points=" 0,15  13,15  13,30  0,30"
 style="fill:red;stroke:purple;stroke-width:0.2" />
</svg><svg version="1.1"
baseProfile="full" width="26" height="30"  xmlns="http://www.w3.org/2000/svg">
<polygon points=" 13,15  26,15  26,30  13,30"
 style="fill:red;stroke:purple;stroke-width:0.2" />
</svg><svg version="1.1"
baseProfile="full" width="39" height="30"  xmlns="http://www.w3.org/2000/svg">
<polygon points=" 26,15  39,15  39,30  26,30"
 style="fill:red;stroke:purple;stroke-width:0.2" />
</svg><svg version="1.1"
baseProfile="full" width="52" height="30"  xmlns="http://www.w3.org/2000/svg">
<polygon points=" 39,15  52,15  52,30  39,30"
 style="fill:red;stroke:purple;stroke-width:0.2" />
</svg><svg version="1.1"
baseProfile="full" width="65" height="30"  xmlns="http://www.w3.org/2000/svg">
<polygon points=" 52,15  65,15  65,30  52,30"
 style="fill:red;stroke:purple;stroke-width:0.2" />
</svg><svg version="1.1"
baseProfile="full" width="78" height="30"  xmlns="http://www.w3.org/2000/svg">
<polygon points=" 65,15  78,15  78,30  65,30"
 style="fill:red;stroke:purple;stroke-width:0.2" />
</svg><svg version="1.1"
baseProfile="full" width="91" height="30"  xmlns="http://www.w3.org/2000/svg">
<polygon points=" 78,15  91,15  91,30  78,30"
 style="fill:red;stroke:purple;stroke-width:0.2" />
</svg><svg version="1.1"
baseProfile="full" width="104" height="30"  xmlns="http://www.w3.org/2000/svg">
<polygon points=" 91,15  104,15  104,30  91,30"
 style="fill:red;stroke:purple;stroke-width:0.2" />
</svg><svg version="1.1"
baseProfile="full" width="117" height="30"  xmlns="http://www.w3.org/2000/svg">
<polygon points=" 104,15  117,15  117,30  104,30"
 style="fill:red;stroke:purple;stroke-width:0.2" />
</svg><svg version="1.1"
baseProfile="full" width="130" height="30"  xmlns="http://www.w3.org/2000/svg">
<polygon points=" 117,15  130,15  130,30  117,30"
 style="fill:red;stroke:purple;stroke-width:0.2" />
</svg><svg version="1.1"
baseProfile="full" width="143" height="30"  xmlns="http://www.w3.org/2000/svg">
<polygon points=" 130,15  143,15  143,30  130,30"
 style="fill:red;stroke:purple;stroke-width:0.2" />
</svg><svg version="1.1"
baseProfile="full" width="156" height="30"  xmlns="http://www.w3.org/2000/svg">
<polygon points=" 143,15  156,15  156,30  143,30"
 style="fill:red;stroke:purple;stroke-width:0.2" />
</svg><svg version="1.1"
baseProfile="full" width="169" height="30"  xmlns="http://www.w3.org/2000/svg">
<polygon points=" 156,15  169,15  169,30  156,30"
 style="fill:red;stroke:purple;stroke-width:0.2" />
</svg><svg version="1.1"
baseProfile="full" width="182" height="30"  xmlns="http://www.w3.org/2000/svg">
<polygon points=" 169,15  182,15  182,30  169,30"
 style="fill:red;stroke:purple;stroke-width:0.2" />
</svg><svg version="1.1"
baseProfile="full" width="195" height="30"  xmlns="http://www.w3.org/2000/svg">
<polygon points=" 182,15  195,15  195,30  182,30"
 style="fill:red;stroke:purple;stroke-width:0.2" />
</svg><svg version="1.1"
baseProfile="full" width="208" height="30"  xmlns="http://www.w3.org/2000/svg">
<polygon points=" 195,15  208,15  208,30  195,30"
 style="fill:red;stroke:purple;stroke-width:0.2" />
</svg><svg version="1.1"
baseProfile="full" width="221" height="30"  xmlns="http://www.w3.org/2000/svg">
<polygon points=" 208,15  221,15  221,30  208,30"
 style="fill:red;stroke:purple;stroke-width:0.2" />
</svg><svg version="1.1"
baseProfile="full" width="234" height="30"  xmlns="http://www.w3.org/2000/svg">
<polygon points=" 221,15  234,15  234,30  221,30"
 style="fill:red;stroke:purple;stroke-width:0.2" />
</svg><svg version="1.1"
baseProfile="full" width="247" height="30"  xmlns="http://www.w3.org/2000/svg">
<polygon points=" 234,15  247,15  247,30  234,30"
 style="fill:red;stroke:purple;stroke-width:0.2" />
</svg><svg version="1.1"
baseProfile="full" width="13" height="45"  xmlns="http://www.w3.org/2000/svg">
<polygon points=" 0,30  13,30  13,45  0,45"
 style="fill:red;stroke:purple;stroke-width:0.2" />
</svg><svg version="1.1"
baseProfile="full" width="26" height="45"  xmlns="http://www.w3.org/2000/svg">
<polygon points=" 13,30  26,30  26,45  13,45"
 style="fill:red;stroke:purple;stroke-width:0.2" />
</svg><svg version="1.1"
baseProfile="full" width="39" height="45"  xmlns="http://www.w3.org/2000/svg">
<polygon points=" 26,30  39,30  39,45  26,45"
 style="fill:red;stroke:purple;stroke-width:0.2" />
</svg><svg version="1.1"
baseProfile="full" width="52" height="45"  xmlns="http://www.w3.org/2000/svg">
<polygon points=" 39,30  52,30  52,45  39,45"
 style="fill:red;stroke:purple;stroke-width:0.2" />
</svg><svg version="1.1"
baseProfile="full" width="65" height="45"  xmlns="http://www.w3.org/2000/svg">
<polygon points=" 52,30  65,30  65,45  52,45"
 style="fill:red;stroke:purple;stroke-width:0.2" />
</svg><svg version="1.1"
baseProfile="full" width="78" height="45"  xmlns="http://www.w3.org/2000/svg">
<polygon points=" 65,30  78,30  78,45  65,45"
 style="fill:red;stroke:purple;stroke-width:0.2" />
</svg><svg version="1.1"
baseProfile="full" width="91" height="45"  xmlns="http://www.w3.org/2000/svg">
<polygon points=" 78,30  91,30  91,45  78,45"
 style="fill:red;stroke:purple;stroke-width:0.2" />
</svg><svg version="1.1"
baseProfile="full" width="104" height="45"  xmlns="http://www.w3.org/2000/svg">
<polygon points=" 91,30  104,30  104,45  91,45"
 style="fill:red;stroke:purple;stroke-width:0.2" />
</svg><svg version="1.1"
baseProfile="full" width="117" height="45"  xmlns="http://www.w3.org/2000/svg">
<polygon points=" 104,30  117,30  117,45  104,45"
 style="fill:red;stroke:purple;stroke-width:0.2" />
</svg><svg version="1.1"
baseProfile="full" width="130" height="45"  xmlns="http://www.w3.org/2000/svg">
<polygon points=" 117,30  130,30  130,45  117,45"
 style="fill:red;stroke:purple;stroke-width:0.2" />
</svg><svg version="1.1"
baseProfile="full" width="143" height="45"  xmlns="http://www.w3.org/2000/svg">
<polygon points=" 130,30  143,30  143,45  130,45"
 style="fill:red;stroke:purple;stroke-width:0.2" />
</svg><svg version="1.1"
baseProfile="full" width="156" height="45"  xmlns="http://www.w3.org/2000/svg">
<polygon points=" 143,30  156,30  156,45  143,45"
 style="fill:red;stroke:purple;stroke-width:0.2" />
</svg><svg version="1.1"
baseProfile="full" width="169" height="45"  xmlns="http://www.w3.org/2000/svg">
<polygon points=" 156,30  169,30  169,45  156,45"
 style="fill:red;stroke:purple;stroke-width:0.2" />
</svg><svg version="1.1"
baseProfile="full" width="182" height="45"  xmlns="http://www.w3.org/2000/svg">
<polygon points=" 169,30  182,30  182,45  169,45"
 style="fill:red;stroke:purple;stroke-width:0.2" />
</svg><svg version="1.1"
baseProfile="full" width="195" height="45"  xmlns="http://www.w3.org/2000/svg">
<polygon points=" 182,30  195,30  195,45  182,45"
 style="fill:red;stroke:purple;stroke-width:0.2" />
</svg><svg version="1.1"
baseProfile="full" width="208" height="45"  xmlns="http://www.w3.org/2000/svg">
<polygon points=" 195,30  208,30  208,45  195,45"
 style="fill:red;stroke:purple;stroke-width:0.2" />
</svg><svg version="1.1"
baseProfile="full" width="221" height="45"  xmlns="http://www.w3.org/2000/svg">
<polygon points=" 208,30  221,30  221,45  208,45"
 style="fill:red;stroke:purple;stroke-width:0.2" />
</svg><svg version="1.1"
baseProfile="full" width="234" height="45"  xmlns="http://www.w3.org/2000/svg">
<polygon points=" 221,30  234,30  234,45  221,45"
 style="fill:red;stroke:purple;stroke-width:0.2" />
</svg><svg version="1.1"
baseProfile="full" width="247" height="45"  xmlns="http://www.w3.org/2000/svg">
<polygon points=" 234,30  247,30  247,45  234,45"
 style="fill:red;stroke:purple;stroke-width:0.2" />
</svg><svg version="1.1"
baseProfile="full" width="13" height="60"  xmlns="http://www.w3.org/2000/svg">
<polygon points=" 0,45  13,45  13,60  0,60"
 style="fill:red;stroke:purple;stroke-width:0.2" />
</svg><svg version="1.1"
baseProfile="full" width="26" height="60"  xmlns="http://www.w3.org/2000/svg">
<polygon points=" 13,45  26,45  26,60  13,60"
 style="fill:red;stroke:purple;stroke-width:0.2" />
</svg><svg version="1.1"
baseProfile="full" width="39" height="60"  xmlns="http://www.w3.org/2000/svg">
<polygon points=" 26,45  39,45  39,60  26,60"
 style="fill:red;stroke:purple;stroke-width:0.2" />
</svg><svg version="1.1"
baseProfile="full" width="52" height="60"  xmlns="http://www.w3.org/2000/svg">
<polygon points=" 39,45  52,45  52,60  39,60"
 style="fill:red;stroke:purple;stroke-width:0.2" />
</svg><svg version="1.1"
baseProfile="full" width="65" height="60"  xmlns="http://www.w3.org/2000/svg">
<polygon points=" 52,45  65,45  65,60  52,60"
 style="fill:red;stroke:purple;stroke-width:0.2" />
</svg><svg version="1.1"
baseProfile="full" width="78" height="60"  xmlns="http://www.w3.org/2000/svg">
<polygon points=" 65,45  78,45  78,60  65,60"
 style="fill:red;stroke:purple;stroke-width:0.2" />
</svg><svg version="1.1"
baseProfile="full" width="91" height="60"  xmlns="http://www.w3.org/2000/svg">
<polygon points=" 78,45  91,45  91,60  78,60"
 style="fill:red;stroke:purple;stroke-width:0.2" />
</svg><svg version="1.1"
baseProfile="full" width="104" height="60"  xmlns="http://www.w3.org/2000/svg">
<polygon points=" 91,45  104,45  104,60  91,60"
 style="fill:red;stroke:purple;stroke-width:0.2" />
</svg><svg version="1.1"
baseProfile="full" width="117" height="60"  xmlns="http://www.w3.org/2000/svg">
<polygon points=" 104,45  117,45  117,60  104,60"
 style="fill:red;stroke:purple;stroke-width:0.2" />
</svg><svg version="1.1"
baseProfile="full" width="130" height="60"  xmlns="http://www.w3.org/2000/svg">
<polygon points=" 117,45  130,45  130,60  117,60"
 style="fill:red;stroke:purple;stroke-width:0.2" />
</svg><svg version="1.1"
baseProfile="full" width="143" height="60"  xmlns="http://www.w3.org/2000/svg">
<polygon points=" 130,45  143,45  143,60  130,60"
 style="fill:red;stroke:purple;stroke-width:0.2" />
</svg><svg version="1.1"
baseProfile="full" width="156" height="60"  xmlns="http://www.w3.org/2000/svg">
<polygon points=" 143,45  156,45  156,60  143,60"
 style="fill:red;stroke:purple;stroke-width:0.2" />
</svg><svg version="1.1"
baseProfile="full" width="169" height="60"  xmlns="http://www.w3.org/2000/svg">
<polygon points=" 156,45  169,45  169,60  156,60"
 style="fill:red;stroke:purple;stroke-width:0.2" />
</svg><svg version="1.1"
baseProfile="full" width="182" height="60"  xmlns="http://www.w3.org/2000/svg">
<polygon points=" 169,45  182,45  182,60  169,60"
 style="fill:red;stroke:purple;stroke-width:0.2" />
</svg><svg version="1.1"
baseProfile="full" width="195" height="60"  xmlns="http://www.w3.org/2000/svg">
<polygon points=" 182,45  195,45  195,60  182,60"
 style="fill:red;stroke:purple;stroke-width:0.2" />
</svg><svg version="1.1"
baseProfile="full" width="208" height="60"  xmlns="http://www.w3.org/2000/svg">
<polygon points=" 195,45  208,45  208,60  195,60"
 style="fill:red;stroke:purple;stroke-width:0.2" />
</svg><svg version="1.1"
baseProfile="full" width="221" height="60"  xmlns="http://www.w3.org/2000/svg">
<polygon points=" 208,45  221,45  221,60  208,60"
 style="fill:red;stroke:purple;stroke-width:0.2" />
</svg><svg version="1.1"
baseProfile="full" width="234" height="60"  xmlns="http://www.w3.org/2000/svg">
<polygon points=" 221,45  234,45  234,60  221,60"
 style="fill:red;stroke:purple;stroke-width:0.2" />
</svg><svg version="1.1"
baseProfile="full" width="247" height="60"  xmlns="http://www.w3.org/2000/svg">
<polygon points=" 234,45  247,45  247,60  234,60"
 style="fill:red;stroke:purple;stroke-width:0.2" />
</svg><svg version="1.1"
baseProfile="full" width="13" height="75"  xmlns="http://www.w3.org/2000/svg">
<polygon points=" 0,60  13,60  13,75  0,75"
 style="fill:red;stroke:purple;stroke-width:0.2" />
</svg><svg version="1.1"
baseProfile="full" width="26" height="75"  xmlns="http://www.w3.org/2000/svg">
<polygon points=" 13,60  26,60  26,75  13,75"
 style="fill:red;stroke:purple;stroke-width:0.2" />
</svg><svg version="1.1"
baseProfile="full" width="39" height="75"  xmlns="http://www.w3.org/2000/svg">
<polygon points=" 26,60  39,60  39,75  26,75"
 style="fill:red;stroke:purple;stroke-width:0.2" />
</svg><svg version="1.1"
baseProfile="full" width="52" height="75"  xmlns="http://www.w3.org/2000/svg">
<polygon points=" 39,60  52,60  52,75  39,75"
 style="fill:red;stroke:purple;stroke-width:0.2" />
</svg><svg version="1.1"
baseProfile="full" width="65" height="75"  xmlns="http://www.w3.org/2000/svg">
<polygon points=" 52,60  65,60  65,75  52,75"
 style="fill:red;stroke:purple;stroke-width:0.2" />
</svg><svg version="1.1"
baseProfile="full" width="78" height="75"  xmlns="http://www.w3.org/2000/svg">
<polygon points=" 65,60  78,60  78,75  65,75"
 style="fill:red;stroke:purple;stroke-width:0.2" />
</svg><svg version="1.1"
baseProfile="full" width="91" height="75"  xmlns="http://www.w3.org/2000/svg">
<polygon points=" 78,60  91,60  91,75  78,75"
 style="fill:red;stroke:purple;stroke-width:0.2" />
</svg><svg version="1.1"
baseProfile="full" width="104" height="75"  xmlns="http://www.w3.org/2000/svg">
<polygon points=" 91,60  104,60  104,75  91,75"
 style="fill:red;stroke:purple;stroke-width:0.2" />
</svg><svg version="1.1"
baseProfile="full" width="117" height="75"  xmlns="http://www.w3.org/2000/svg">
<polygon points=" 104,60  117,60  117,75  104,75"
 style="fill:red;stroke:purple;stroke-width:0.2" />
</svg><svg version="1.1"
baseProfile="full" width="130" height="75"  xmlns="http://www.w3.org/2000/svg">
<polygon points=" 117,60  130,60  130,75  117,75"
 style="fill:red;stroke:purple;stroke-width:0.2" />
</svg><svg version="1.1"
baseProfile="full" width="143" height="75"  xmlns="http://www.w3.org/2000/svg">
<polygon points=" 130,60  143,60  143,75  130,75"
 style="fill:red;stroke:purple;stroke-width:0.2" />
</svg><svg version="1.1"
baseProfile="full" width="156" height="75"  xmlns="http://www.w3.org/2000/svg">
<polygon points=" 143,60  156,60  156,75  143,75"
 style="fill:red;stroke:purple;stroke-width:0.2" />
</svg><svg version="1.1"
baseProfile="full" width="169" height="75"  xmlns="http://www.w3.org/2000/svg">
<polygon points=" 156,60  169,60  169,75  156,75"
 style="fill:red;stroke:purple;stroke-width:0.2" />
</svg><svg version="1.1"
baseProfile="full" width="182" height="75"  xmlns="http://www.w3.org/2000/svg">
<polygon points=" 169,60  182,60  182,75  169,75"
 style="fill:red;stroke:purple;stroke-width:0.2" />
</svg><svg version="1.1"
baseProfile="full" width="195" height="75"  xmlns="http://www.w3.org/2000/svg">
<polygon points=" 182,60  195,60  195,75  182,75"
 style="fill:red;stroke:purple;stroke-width:0.2" />
</svg><svg version="1.1"
baseProfile="full" width="208" height="75"  xmlns="http://www.w3.org/2000/svg">
<polygon points=" 195,60  208,60  208,75  195,75"
 style="fill:red;stroke:purple;stroke-width:0.2" />
</svg><svg version="1.1"
baseProfile="full" width="221" height="75"  xmlns="http://www.w3.org/2000/svg">
<polygon points=" 208,60  221,60  221,75  208,75"
 style="fill:red;stroke:purple;stroke-width:0.2" />
</svg><svg version="1.1"
baseProfile="full" width="234" height="75"  xmlns="http://www.w3.org/2000/svg">
<polygon points=" 221,60  234,60  234,75  221,75"
 style="fill:red;stroke:purple;stroke-width:0.2" />
</svg><svg version="1.1"
baseProfile="full" width="247" height="75"  xmlns="http://www.w3.org/2000/svg">
<polygon points=" 234,60  247,60  247,75  234,75"
 style="fill:red;stroke:purple;stroke-width:0.2" />
</svg><svg version="1.1"
baseProfile="full" width="13" height="90"  xmlns="http://www.w3.org/2000/svg">
<polygon points=" 0,75  13,75  13,90  0,90"
 style="fill:red;stroke:purple;stroke-width:0.2" />
</svg><svg version="1.1"
baseProfile="full" width="26" height="90"  xmlns="http://www.w3.org/2000/svg">
<polygon points=" 13,75  26,75  26,90  13,90"
 style="fill:red;stroke:purple;stroke-width:0.2" />
</svg><svg version="1.1"
baseProfile="full" width="39" height="90"  xmlns="http://www.w3.org/2000/svg">
<polygon points=" 26,75  39,75  39,90  26,90"
 style="fill:red;stroke:purple;stroke-width:0.2" />
</svg><svg version="1.1"
baseProfile="full" width="52" height="90"  xmlns="http://www.w3.org/2000/svg">
<polygon points=" 39,75  52,75  52,90  39,90"
 style="fill:red;stroke:purple;stroke-width:0.2" />
</svg><svg version="1.1"
baseProfile="full" width="65" height="90"  xmlns="http://www.w3.org/2000/svg">
<polygon points=" 52,75  65,75  65,90  52,90"
 style="fill:red;stroke:purple;stroke-width:0.2" />
</svg><svg version="1.1"
baseProfile="full" width="78" height="90"  xmlns="http://www.w3.org/2000/svg">
<polygon points=" 65,75  78,75  78,90  65,90"
 style="fill:red;stroke:purple;stroke-width:0.2" />
</svg><svg version="1.1"
baseProfile="full" width="91" height="90"  xmlns="http://www.w3.org/2000/svg">
<polygon points=" 78,75  91,75  91,90  78,90"
 style="fill:red;stroke:purple;stroke-width:0.2" />
</svg><svg version="1.1"
baseProfile="full" width="104" height="90"  xmlns="http://www.w3.org/2000/svg">
<polygon points=" 91,75  104,75  104,90  91,90"
 style="fill:red;stroke:purple;stroke-width:0.2" />
</svg><svg version="1.1"
baseProfile="full" width="117" height="90"  xmlns="http://www.w3.org/2000/svg">
<polygon points=" 104,75  117,75  117,90  104,90"
 style="fill:red;stroke:purple;stroke-width:0.2" />
</svg><svg version="1.1"
baseProfile="full" width="130" height="90"  xmlns="http://www.w3.org/2000/svg">
<polygon points=" 117,75  130,75  130,90  117,90"
 style="fill:red;stroke:purple;stroke-width:0.2" />
</svg><svg version="1.1"
baseProfile="full" width="143" height="90"  xmlns="http://www.w3.org/2000/svg">
<polygon points=" 130,75  143,75  143,90  130,90"
 style="fill:red;stroke:purple;stroke-width:0.2" />
</svg><svg version="1.1"
baseProfile="full" width="156" height="90"  xmlns="http://www.w3.org/2000/svg">
<polygon points=" 143,75  156,75  156,90  143,90"
 style="fill:red;stroke:purple;stroke-width:0.2" />
</svg><svg version="1.1"
baseProfile="full" width="169" height="90"  xmlns="http://www.w3.org/2000/svg">
<polygon points=" 156,75  169,75  169,90  156,90"
 style="fill:red;stroke:purple;stroke-width:0.2" />
</svg><svg version="1.1"
baseProfile="full" width="182" height="90"  xmlns="http://www.w3.org/2000/svg">
<polygon points=" 169,75  182,75  182,90  169,90"
 style="fill:red;stroke:purple;stroke-width:0.2" />
</svg><svg version="1.1"
baseProfile="full" width="195" height="90"  xmlns="http://www.w3.org/2000/svg">
<polygon points=" 182,75  195,75  195,90  182,90"
 style="fill:red;stroke:purple;stroke-width:0.2" />
</svg><svg version="1.1"
baseProfile="full" width="208" height="90"  xmlns="http://www.w3.org/2000/svg">
<polygon points=" 195,75  208,75  208,90  195,90"
 style="fill:red;stroke:purple;stroke-width:0.2" />
</svg><svg version="1.1"
baseProfile="full" width="221" height="90"  xmlns="http://www.w3.org/2000/svg">
<polygon points=" 208,75  221,75  221,90  208,90"
 style="fill:red;stroke:purple;stroke-width:0.2" />
</svg><svg version="1.1"
baseProfile="full" width="234" height="90"  xmlns="http://www.w3.org/2000/svg">
<polygon points=" 221,75  234,75  234,90  221,90"
 style="fill:red;stroke:purple;stroke-width:0.2" />
</svg><svg version="1.1"
baseProfile="full" width="247" height="90"  xmlns="http://www.w3.org/2000/svg">
<polygon points=" 234,75  247,75  247,90  234,90"
 style="fill:red;stroke:purple;stroke-width:0.2" />
</svg><svg version="1.1"
baseProfile="full" width="13" height="105"  xmlns="http://www.w3.org/2000/svg">
<polygon points=" 0,90  13,90  13,105  0,105"
 style="fill:red;stroke:purple;stroke-width:0.2" />
</svg><svg version="1.1"
baseProfile="full" width="26" height="105"  xmlns="http://www.w3.org/2000/svg">
<polygon points=" 13,90  26,90  26,105  13,105"
 style="fill:red;stroke:purple;stroke-width:0.2" />
</svg><svg version="1.1"
baseProfile="full" width="39" height="105"  xmlns="http://www.w3.org/2000/svg">
<polygon points=" 26,90  39,90  39,105  26,105"
 style="fill:red;stroke:purple;stroke-width:0.2" />
</svg><svg version="1.1"
baseProfile="full" width="52" height="105"  xmlns="http://www.w3.org/2000/svg">
<polygon points=" 39,90  52,90  52,105  39,105"
 style="fill:red;stroke:purple;stroke-width:0.2" />
</svg><svg version="1.1"
baseProfile="full" width="65" height="105"  xmlns="http://www.w3.org/2000/svg">
<polygon points=" 52,90  65,90  65,105  52,105"
 style="fill:red;stroke:purple;stroke-width:0.2" />
</svg><svg version="1.1"
baseProfile="full" width="78" height="105"  xmlns="http://www.w3.org/2000/svg">
<polygon points=" 65,90  78,90  78,105  65,105"
 style="fill:red;stroke:purple;stroke-width:0.2" />
</svg><svg version="1.1"
baseProfile="full" width="91" height="105"  xmlns="http://www.w3.org/2000/svg">
<polygon points=" 78,90  91,90  91,105  78,105"
 style="fill:red;stroke:purple;stroke-width:0.2" />
</svg><svg version="1.1"
baseProfile="full" width="104" height="105"  xmlns="http://www.w3.org/2000/svg">
<polygon points=" 91,90  104,90  104,105  91,105"
 style="fill:red;stroke:purple;stroke-width:0.2" />
</svg><svg version="1.1"
baseProfile="full" width="117" height="105"  xmlns="http://www.w3.org/2000/svg">
<polygon points=" 104,90  117,90  117,105  104,105"
 style="fill:red;stroke:purple;stroke-width:0.2" />
</svg><svg version="1.1"
baseProfile="full" width="130" height="105"  xmlns="http://www.w3.org/2000/svg">
<polygon points=" 117,90  130,90  130,105  117,105"
 style="fill:red;stroke:purple;stroke-width:0.2" />
</svg><svg version="1.1"
baseProfile="full" width="143" height="105"  xmlns="http://www.w3.org/2000/svg">
<polygon points=" 130,90  143,90  143,105  130,105"
 style="fill:red;stroke:purple;stroke-width:0.2" />
</svg><svg version="1.1"
baseProfile="full" width="156" height="105"  xmlns="http://www.w3.org/2000/svg">
<polygon points=" 143,90  156,90  156,105  143,105"
 style="fill:red;stroke:purple;stroke-width:0.2" />
</svg><svg version="1.1"
baseProfile="full" width="169" height="105"  xmlns="http://www.w3.org/2000/svg">
<polygon points=" 156,90  169,90  169,105  156,105"
 style="fill:red;stroke:purple;stroke-width:0.2" />
</svg><svg version="1.1"
baseProfile="full" width="182" height="105"  xmlns="http://www.w3.org/2000/svg">
<polygon points=" 169,90  182,90  182,105  169,105"
 style="fill:red;stroke:purple;stroke-width:0.2" />
</svg><svg version="1.1"
baseProfile="full" width="195" height="105"  xmlns="http://www.w3.org/2000/svg">
<polygon points=" 182,90  195,90  195,105  182,105"
 style="fill:red;stroke:purple;stroke-width:0.2" />
</svg><svg version="1.1"
baseProfile="full" width="208" height="105"  xmlns="http://www.w3.org/2000/svg">
<polygon points=" 195,90  208,90  208,105  195,105"
 style="fill:red;stroke:purple;stroke-width:0.2" />
</svg><svg version="1.1"
baseProfile="full" width="221" height="105"  xmlns="http://www.w3.org/2000/svg">
<polygon points=" 208,90  221,90  221,105  208,105"
 style="fill:red;stroke:purple;stroke-width:0.2" />
</svg><svg version="1.1"
baseProfile="full" width="234" height="105"  xmlns="http://www.w3.org/2000/svg">
<polygon points=" 221,90  234,90  234,105  221,105"
 style="fill:red;stroke:purple;stroke-width:0.2" />
</svg><svg version="1.1"
baseProfile="full" width="247" height="105"  xmlns="http://www.w3.org/2000/svg">
<polygon points=" 234,90  247,90  247,105  234,105"
 style="fill:red;stroke:purple;stroke-width:0.2" />
</svg><svg version="1.1"
baseProfile="full" width="13" height="120"  xmlns="http://www.w3.org/2000/svg">
<polygon points=" 0,105  13,105  13,120  0,120"
 style="fill:red;stroke:purple;stroke-width:0.2" />
</svg><svg version="1.1"
baseProfile="full" width="26" height="120"  xmlns="http://www.w3.org/2000/svg">
<polygon points=" 13,105  26,105  26,120  13,120"
 style="fill:red;stroke:purple;stroke-width:0.2" />
</svg><svg version="1.1"
baseProfile="full" width="39" height="120"  xmlns="http://www.w3.org/2000/svg">
<polygon points=" 26,105  39,105  39,120  26,120"
 style="fill:red;stroke:purple;stroke-width:0.2" />
</svg><svg version="1.1"
baseProfile="full" width="52" height="120"  xmlns="http://www.w3.org/2000/svg">
<polygon points=" 39,105  52,105  52,120  39,120"
 style="fill:red;stroke:purple;stroke-width:0.2" />
</svg><svg version="1.1"
baseProfile="full" width="65" height="120"  xmlns="http://www.w3.org/2000/svg">
<polygon points=" 52,105  65,105  65,120  52,120"
 style="fill:red;stroke:purple;stroke-width:0.2" />
</svg><svg version="1.1"
baseProfile="full" width="78" height="120"  xmlns="http://www.w3.org/2000/svg">
<polygon points=" 65,105  78,105  78,120  65,120"
 style="fill:red;stroke:purple;stroke-width:0.2" />
</svg><svg version="1.1"
baseProfile="full" width="91" height="120"  xmlns="http://www.w3.org/2000/svg">
<polygon points=" 78,105  91,105  91,120  78,120"
 style="fill:red;stroke:purple;stroke-width:0.2" />
</svg><svg version="1.1"
baseProfile="full" width="104" height="120"  xmlns="http://www.w3.org/2000/svg">
<polygon points=" 91,105  104,105  104,120  91,120"
 style="fill:red;stroke:purple;stroke-width:0.2" />
</svg><svg version="1.1"
baseProfile="full" width="117" height="120"  xmlns="http://www.w3.org/2000/svg">
<polygon points=" 104,105  117,105  117,120  104,120"
 style="fill:red;stroke:purple;stroke-width:0.2" />
</svg><svg version="1.1"
baseProfile="full" width="130" height="120"  xmlns="http://www.w3.org/2000/svg">
<polygon points=" 117,105  130,105  130,120  117,120"
 style="fill:red;stroke:purple;stroke-width:0.2" />
</svg><svg version="1.1"
baseProfile="full" width="143" height="120"  xmlns="http://www.w3.org/2000/svg">
<polygon points=" 130,105  143,105  143,120  130,120"
 style="fill:red;stroke:purple;stroke-width:0.2" />
</svg><svg version="1.1"
baseProfile="full" width="156" height="120"  xmlns="http://www.w3.org/2000/svg">
<polygon points=" 143,105  156,105  156,120  143,120"
 style="fill:red;stroke:purple;stroke-width:0.2" />
</svg><svg version="1.1"
baseProfile="full" width="169" height="120"  xmlns="http://www.w3.org/2000/svg">
<polygon points=" 156,105  169,105  169,120  156,120"
 style="fill:red;stroke:purple;stroke-width:0.2" />
</svg><svg version="1.1"
baseProfile="full" width="182" height="120"  xmlns="http://www.w3.org/2000/svg">
<polygon points=" 169,105  182,105  182,120  169,120"
 style="fill:red;stroke:purple;stroke-width:0.2" />
</svg><svg version="1.1"
baseProfile="full" width="195" height="120"  xmlns="http://www.w3.org/2000/svg">
<polygon points=" 182,105  195,105  195,120  182,120"
 style="fill:red;stroke:purple;stroke-width:0.2" />
</svg><svg version="1.1"
baseProfile="full" width="208" height="120"  xmlns="http://www.w3.org/2000/svg">
<polygon points=" 195,105  208,105  208,120  195,120"
 style="fill:red;stroke:purple;stroke-width:0.2" />
</svg><svg version="1.1"
baseProfile="full" width="221" height="120"  xmlns="http://www.w3.org/2000/svg">
<polygon points=" 208,105  221,105  221,120  208,120"
 style="fill:red;stroke:purple;stroke-width:0.2" />
</svg><svg version="1.1"
baseProfile="full" width="234" height="120"  xmlns="http://www.w3.org/2000/svg">
<polygon points=" 221,105  234,105  234,120  221,120"
 style="fill:red;stroke:purple;stroke-width:0.2" />
</svg><svg version="1.1"
baseProfile="full" width="247" height="120"  xmlns="http://www.w3.org/2000/svg">
<polygon points=" 234,105  247,105  247,120  234,120"
 style="fill:red;stroke:purple;stroke-width:0.2" />
</svg><svg version="1.1"
baseProfile="full" width="13" height="135"  xmlns="http://www.w3.org/2000/svg">
<polygon points=" 0,120  13,120  13,135  0,135"
 style="fill:red;stroke:purple;stroke-width:0.2" />
</svg><svg version="1.1"
baseProfile="full" width="26" height="135"  xmlns="http://www.w3.org/2000/svg">
<polygon points=" 13,120  26,120  26,135  13,135"
 style="fill:red;stroke:purple;stroke-width:0.2" />
</svg><svg version="1.1"
baseProfile="full" width="39" height="135"  xmlns="http://www.w3.org/2000/svg">
<polygon points=" 26,120  39,120  39,135  26,135"
 style="fill:red;stroke:purple;stroke-width:0.2" />
</svg><svg version="1.1"
baseProfile="full" width="52" height="135"  xmlns="http://www.w3.org/2000/svg">
<polygon points=" 39,120  52,120  52,135  39,135"
 style="fill:red;stroke:purple;stroke-width:0.2" />
</svg><svg version="1.1"
baseProfile="full" width="65" height="135"  xmlns="http://www.w3.org/2000/svg">
<polygon points=" 52,120  65,120  65,135  52,135"
 style="fill:red;stroke:purple;stroke-width:0.2" />
</svg><svg version="1.1"
baseProfile="full" width="78" height="135"  xmlns="http://www.w3.org/2000/svg">
<polygon points=" 65,120  78,120  78,135  65,135"
 style="fill:red;stroke:purple;stroke-width:0.2" />
</svg><svg version="1.1"
baseProfile="full" width="91" height="135"  xmlns="http://www.w3.org/2000/svg">
<polygon points=" 78,120  91,120  91,135  78,135"
 style="fill:red;stroke:purple;stroke-width:0.2" />
</svg><svg version="1.1"
baseProfile="full" width="104" height="135"  xmlns="http://www.w3.org/2000/svg">
<polygon points=" 91,120  104,120  104,135  91,135"
 style="fill:red;stroke:purple;stroke-width:0.2" />
</svg><svg version="1.1"
baseProfile="full" width="117" height="135"  xmlns="http://www.w3.org/2000/svg">
<polygon points=" 104,120  117,120  117,135  104,135"
 style="fill:red;stroke:purple;stroke-width:0.2" />
</svg><svg version="1.1"
baseProfile="full" width="130" height="135"  xmlns="http://www.w3.org/2000/svg">
<polygon points=" 117,120  130,120  130,135  117,135"
 style="fill:red;stroke:purple;stroke-width:0.2" />
</svg><svg version="1.1"
baseProfile="full" width="143" height="135"  xmlns="http://www.w3.org/2000/svg">
<polygon points=" 130,120  143,120  143,135  130,135"
 style="fill:red;stroke:purple;stroke-width:0.2" />
</svg><svg version="1.1"
baseProfile="full" width="156" height="135"  xmlns="http://www.w3.org/2000/svg">
<polygon points=" 143,120  156,120  156,135  143,135"
 style="fill:red;stroke:purple;stroke-width:0.2" />
</svg><svg version="1.1"
baseProfile="full" width="169" height="135"  xmlns="http://www.w3.org/2000/svg">
<polygon points=" 156,120  169,120  169,135  156,135"
 style="fill:red;stroke:purple;stroke-width:0.2" />
</svg><svg version="1.1"
baseProfile="full" width="182" height="135"  xmlns="http://www.w3.org/2000/svg">
<polygon points=" 169,120  182,120  182,135  169,135"
 style="fill:red;stroke:purple;stroke-width:0.2" />
</svg><svg version="1.1"
baseProfile="full" width="195" height="135"  xmlns="http://www.w3.org/2000/svg">
<polygon points=" 182,120  195,120  195,135  182,135"
 style="fill:red;stroke:purple;stroke-width:0.2" />
</svg><svg version="1.1"
baseProfile="full" width="208" height="135"  xmlns="http://www.w3.org/2000/svg">
<polygon points=" 195,120  208,120  208,135  195,135"
 style="fill:red;stroke:purple;stroke-width:0.2" />
</svg><svg version="1.1"
baseProfile="full" width="221" height="135"  xmlns="http://www.w3.org/2000/svg">
<polygon points=" 208,120  221,120  221,135  208,135"
 style="fill:red;stroke:purple;stroke-width:0.2" />
</svg><svg version="1.1"
baseProfile="full" width="234" height="135"  xmlns="http://www.w3.org/2000/svg">
<polygon points=" 221,120  234,120  234,135  221,135"
 style="fill:red;stroke:purple;stroke-width:0.2" />
</svg><svg version="1.1"
baseProfile="full" width="247" height="135"  xmlns="http://www.w3.org/2000/svg">
<polygon points=" 234,120  247,120  247,135  234,135"
 style="fill:red;stroke:purple;stroke-width:0.2" />
</svg></svg>