<svg version="1.1"
baseProfile="full"
width="270" height="233.827"
xmlns="http://www.w3.org/2000/svg">
<polygon points=" 135,0  270,233.827  0,233.827"
 fill="green" />
<svg version="1.1"
baseProfile="full" width="23.3509" height="233.827"  xmlns="http://www.w3.org/2000/svg">
<polygon points=" 6.35085,222.827  23.3509,222.827  23.3509,233.827  6.35085,233.827"
 style="fill:red;stroke:purple;stroke-width:0.2" />
</svg><svg version="1.1"
baseProfile="full" width="40.3509" height="233.827"  xmlns="http://www.w3.org/2000/svg">
<polygon points=" 23.3509,222.827  40.3509,222.827  40.3509,233.827  23.3509,233.827"
 style="fill:red;stroke:purple;stroke-width:0.2" />
</svg><svg version="1.1"
baseProfile="full" width="57.3509" height="233.827"  xmlns="http://www.w3.org/2000/svg">
<polygon points=" 40.3509,222.827  57.3509,222.827  57.3509,233.827  40.3509,233.827"
 style="fill:red;stroke:purple;stroke-width:0.2" />
</svg><svg version="1.1"
baseProfile="full" width="74.3509" height="233.827"  xmlns="http://www.w3.org/2000/svg">
<polygon points=" 57.3509,222.827  74.3509,222.827  74.3509,233.827  57.3509,233.827"
 style="fill:red;stroke:purple;stroke-width:0.2" />
</svg><svg version="1.1"
baseProfile="full" width="91.3509" height="233.827"  xmlns="http://www.w3.org/2000/svg">
<polygon points=" 74.3509,222.827  91.3509,222.827  91.3509,233.827  74.3509,233.827"
 style="fill:red;stroke:purple;stroke-width:0.2" />
</svg><svg version="1.1"
baseProfile="full" width="108.351" height="233.827"  xmlns="http://www.w3.org/2000/svg">
<polygon points=" 91.3509,222.827  108.351,222.827  108.351,233.827  91.3509,233.827"
 style="fill:red;stroke:purple;stroke-width:0.2" />
</svg><svg version="1.1"
baseProfile="full" width="125.351" height="233.827"  xmlns="http://www.w3.org/2000/svg">
<polygon points=" 108.351,222.827  125.351,222.827  125.351,233.827  108.351,233.827"
 style="fill:red;stroke:purple;stroke-width:0.2" />
</svg><svg version="1.1"
baseProfile="full" width="142.351" height="233.827"  xmlns="http://www.w3.org/2000/svg">
<polygon points=" 125.351,222.827  142.351,222.827  142.351,233.827  125.351,233.827"
 style="fill:red;stroke:purple;stroke-width:0.2" />
</svg><svg version="1.1"
baseProfile="full" width="159.351" height="233.827"  xmlns="http://www.w3.org/2000/svg">
<polygon points=" 142.351,222.827  159.351,222.827  159.351,233.827  142.351,233.827"
 style="fill:red;stroke:purple;stroke-width:0.2" />
</svg><svg version="1.1"
baseProfile="full" width="176.351" height="233.827"  xmlns="http://www.w3.org/2000/svg">
<polygon points=" 159.351,222.827  176.351,222.827  176.351,233.827  159.351,233.827"
 style="fill:red;stroke:purple;stroke-width:0.2" />
</svg><svg version="1.1"
baseProfile="full" width="193.351" height="233.827"  xmlns="http://www.w3.org/2000/svg">
<polygon points=" 176.351,222.827  193.351,222.827  193.351,233.827  176.351,233.827"
 style="fill:red;stroke:purple;stroke-width:0.2" />
</svg><svg version="1.1"
baseProfile="full" width="210.351" height="233.827"  xmlns="http://www.w3.org/2000/svg">
<polygon points=" 193.351,222.827  210.351,222.827  210.351,233.827  193.351,233.827"
 style="fill:red;stroke:purple;stroke-width:0.2" />
</svg><svg version="1.1"
baseProfile="full" width="227.351" height="233.827"  xmlns="http://www.w3.org/2000/svg">
<polygon points=" 210.351,222.827  227.351,222.827  227.351,233.827  210.351,233.827"
 style="fill:red;stroke:purple;stroke-width:0.2" />
</svg><svg version="1.1"
baseProfile="full" width="244.351" height="233.827"  xmlns="http://www.w3.org/2000/svg">
<polygon points=" 227.351,222.827  244.351,222.827  244.351,233.827  227.351,233.827"
 style="fill:red;stroke:purple;stroke-width:0.2" />
</svg><svg version="1.1"
baseProfile="full" width="261.351" height="233.827"  xmlns="http://www.w3.org/2000/svg">
<polygon points=" 244.351,222.827  261.351,222.827  261.351,233.827  244.351,233.827"
 style="fill:red;stroke:purple;stroke-width:0.2" />
</svg><svg version="1.1"
baseProfile="full" width="29.7017" height="222.827"  xmlns="http://www.w3.org/2000/svg">
<polygon points=" 12.7017,211.827  29.7017,211.827  29.7017,222.827  12.7017,222.827"
 style="fill:red;stroke:purple;stroke-width:0.2" />
</svg><svg version="1.1"
baseProfile="full" width="46.7017" height="222.827"  xmlns="http://www.w3.org/2000/svg">
<polygon points=" 29.7017,211.827  46.7017,211.827  46.7017,222.827  29.7017,222.827"
 style="fill:red;stroke:purple;stroke-width:0.2" />
</svg><svg version="1.1"
baseProfile="full" width="63.7017" height="222.827"  xmlns="http://www.w3.org/2000/svg">
<polygon points=" 46.7017,211.827  63.7017,211.827  63.7017,222.827  46.7017,222.827"
 style="fill:red;stroke:purple;stroke-width:0.2" />
</svg><svg version="1.1"
baseProfile="full" width="80.7017" height="222.827"  xmlns="http://www.w3.org/2000/svg">
<polygon points=" 63.7017,211.827  80.7017,211.827  80.7017,222.827  63.7017,222.827"
 style="fill:red;stroke:purple;stroke-width:0.2" />
</svg><svg version="1.1"
baseProfile="full" width="97.7017" height="222.827"  xmlns="http://www.w3.org/2000/svg">
<polygon points=" 80.7017,211.827  97.7017,211.827  97.7017,222.827  80.7017,222.827"
 style="fill:red;stroke:purple;stroke-width:0.2" />
</svg><svg version="1.1"
baseProfile="full" width="114.702" height="222.827"  xmlns="http://www.w3.org/2000/svg">
<polygon points=" 97.7017,211.827  114.702,211.827  114.702,222.827  97.7017,222.827"
 style="fill:red;stroke:purple;stroke-width:0.2" />
</svg><svg version="1.1"
baseProfile="full" width="131.702" height="222.827"  xmlns="http://www.w3.org/2000/svg">
<polygon points=" 114.702,211.827  131.702,211.827  131.702,222.827  114.702,222.827"
 style="fill:red;stroke:purple;stroke-width:0.2" />
</svg><svg version="1.1"
baseProfile="full" width="148.702" height="222.827"  xmlns="http://www.w3.org/2000/svg">
<polygon points=" 131.702,211.827  148.702,211.827  148.702,222.827  131.702,222.827"
 style="fill:red;stroke:purple;stroke-width:0.2" />
</svg><svg version="1.1"
baseProfile="full" width="165.702" height="222.827"  xmlns="http://www.w3.org/2000/svg">
<polygon points=" 148.702,211.827  165.702,211.827  165.702,222.827  148.702,222.827"
 style="fill:red;stroke:purple;stroke-width:0.2" />
</svg><svg version="1.1"
baseProfile="full" width="182.702" height="222.827"  xmlns="http://www.w3.org/2000/svg">
<polygon points=" 165.702,211.827  182.702,211.827  182.702,222.827  165.702,222.827"
 style="fill:red;stroke:purple;stroke-width:0.2" />
</svg><svg version="1.1"
baseProfile="full" width="199.702" height="222.827"  xmlns="http://www.w3.org/2000/svg">
<polygon points=" 182.702,211.827  199.702,211.827  199.702,222.827  182.702,222.827"
 style="fill:red;stroke:purple;stroke-width:0.2" />
</svg><svg version="1.1"
baseProfile="full" width="216.702" height="222.827"  xmlns="http://www.w3.org/2000/svg">
<polygon points=" 199.702,211.827  216.702,211.827  216.702,222.827  199.702,222.827"
 style="fill:red;stroke:purple;stroke-width:0.2" />
</svg><svg version="1.1"
baseProfile="full" width="233.702" height="222.827"  xmlns="http://www.w3.org/2000/svg">
<polygon points=" 216.702,211.827  233.702,211.827  233.702,222.827  216.702,222.827"
 style="fill:red;stroke:purple;stroke-width:0.2" />
</svg><svg version="1.1"
baseProfile="full" width="250.702" height="222.827"  xmlns="http://www.w3.org/2000/svg">
<polygon points=" 233.702,211.827  250.702,211.827  250.702,222.827  233.702,222.827"
 style="fill:red;stroke:purple;stroke-width:0.2" />
</svg><svg version="1.1"
baseProfile="full" width="36.0526" height="211.827"  xmlns="http://www.w3.org/2000/svg">
<polygon points=" 19.0526,200.827  36.0526,200.827  36.0526,211.827  19.0526,211.827"
 style="fill:red;stroke:purple;stroke-width:0.2" />
</svg><svg version="1.1"
baseProfile="full" width="53.0526" height="211.827"  xmlns="http://www.w3.org/2000/svg">
<polygon points=" 36.0526,200.827  53.0526,200.827  53.0526,211.827  36.0526,211.827"
 style="fill:red;stroke:purple;stroke-width:0.2" />
</svg><svg version="1.1"
baseProfile="full" width="70.0526" height="211.827"  xmlns="http://www.w3.org/2000/svg">
<polygon points=" 53.0526,200.827  70.0526,200.827  70.0526,211.827  53.0526,211.827"
 style="fill:red;stroke:purple;stroke-width:0.2" />
</svg><svg version="1.1"
baseProfile="full" width="87.0526" height="211.827"  xmlns="http://www.w3.org/2000/svg">
<polygon points=" 70.0526,200.827  87.0526,200.827  87.0526,211.827  70.0526,211.827"
 style="fill:red;stroke:purple;stroke-width:0.2" />
</svg><svg version="1.1"
baseProfile="full" width="104.053" height="211.827"  xmlns="http://www.w3.org/2000/svg">
<polygon points=" 87.0526,200.827  104.053,200.827  104.053,211.827  87.0526,211.827"
 style="fill:red;stroke:purple;stroke-width:0.2" />
</svg><svg version="1.1"
baseProfile="full" width="121.053" height="211.827"  xmlns="http://www.w3.org/2000/svg">
<polygon points=" 104.053,200.827  121.053,200.827  121.053,211.827  104.053,211.827"
 style="fill:red;stroke:purple;stroke-width:0.2" />
</svg><svg version="1.1"
baseProfile="full" width="138.053" height="211.827"  xmlns="http://www.w3.org/2000/svg">
<polygon points=" 121.053,200.827  138.053,200.827  138.053,211.827  121.053,211.827"
 style="fill:red;stroke:purple;stroke-width:0.2" />
</svg><svg version="1.1"
baseProfile="full" width="155.053" height="211.827"  xmlns="http://www.w3.org/2000/svg">
<polygon points=" 138.053,200.827  155.053,200.827  155.053,211.827  138.053,211.827"
 style="fill:red;stroke:purple;stroke-width:0.2" />
</svg><svg version="1.1"
baseProfile="full" width="172.053" height="211.827"  xmlns="http://www.w3.org/2000/svg">
<polygon points=" 155.053,200.827  172.053,200.827  172.053,211.827  155.053,211.827"
 style="fill:red;stroke:purple;stroke-width:0.2" />
</svg><svg version="1.1"
baseProfile="full" width="189.053" height="211.827"  xmlns="http://www.w3.org/2000/svg">
<polygon points=" 172.053,200.827  189.053,200.827  189.053,211.827  172.053,211.827"
 style="fill:red;stroke:purple;stroke-width:0.2" />
</svg><svg version="1.1"
baseProfile="full" width="206.053" height="211.827"  xmlns="http://www.w3.org/2000/svg">
<polygon points=" 189.053,200.827  206.053,200.827  206.053,211.827  189.053,211.827"
 style="fill:red;stroke:purple;stroke-width:0.2" />
</svg><svg version="1.1"
baseProfile="full" width="223.053" height="211.827"  xmlns="http://www.w3.org/2000/svg">
<polygon points=" 206.053,200.827  223.053,200.827  223.053,211.827  206.053,211.827"
 style="fill:red;stroke:purple;stroke-width:0.2" />
</svg><svg version="1.1"
baseProfile="full" width="240.053" height="211.827"  xmlns="http://www.w3.org/2000/svg">
<polygon points=" 223.053,200.827  240.053,200.827  240.053,211.827  223.053,211.827"
 style="fill:red;stroke:purple;stroke-width:0.2" />
</svg><svg version="1.1"
baseProfile="full" width="42.4034" height="200.827"  xmlns="http://www.w3.org/2000/svg">
<polygon points=" 25.4034,189.827  42.4034,189.827  42.4034,200.827  25.4034,200.827"
 style="fill:red;stroke:purple;stroke-width:0.2" />
</svg><svg version="1.1"
baseProfile="full" width="59.4034" height="200.827"  xmlns="http://www.w3.org/2000/svg">
<polygon points=" 42.4034,189.827  59.4034,189.827  59.4034,200.827  42.4034,200.827"
 style="fill:red;stroke:purple;stroke-width:0.2" />
</svg><svg version="1.1"
baseProfile="full" width="76.4034" height="200.827"  xmlns="http://www.w3.org/2000/svg">
<polygon points=" 59.4034,189.827  76.4034,189.827  76.4034,200.827  59.4034,200.827"
 style="fill:red;stroke:purple;stroke-width:0.2" />
</svg><svg version="1.1"
baseProfile="full" width="93.4034" height="200.827"  xmlns="http://www.w3.org/2000/svg">
<polygon points=" 76.4034,189.827  93.4034,189.827  93.4034,200.827  76.4034,200.827"
 style="fill:red;stroke:purple;stroke-width:0.2" />
</svg><svg version="1.1"
baseProfile="full" width="110.403" height="200.827"  xmlns="http://www.w3.org/2000/svg">
<polygon points=" 93.4034,189.827  110.403,189.827  110.403,200.827  93.4034,200.827"
 style="fill:red;stroke:purple;stroke-width:0.2" />
</svg><svg version="1.1"
baseProfile="full" width="127.403" height="200.827"  xmlns="http://www.w3.org/2000/svg">
<polygon points=" 110.403,189.827  127.403,189.827  127.403,200.827  110.403,200.827"
 style="fill:red;stroke:purple;stroke-width:0.2" />
</svg><svg version="1.1"
baseProfile="full" width="144.403" height="200.827"  xmlns="http://www.w3.org/2000/svg">
<polygon points=" 127.403,189.827  144.403,189.827  144.403,200.827  127.403,200.827"
 style="fill:red;stroke:purple;stroke-width:0.2" />
</svg><svg version="1.1"
baseProfile="full" width="161.403" height="200.827"  xmlns="http://www.w3.org/2000/svg">
<polygon points=" 144.403,189.827  161.403,189.827  161.403,200.827  144.403,200.827"
 style="fill:red;stroke:purple;stroke-width:0.2" />
</svg><svg version="1.1"
baseProfile="full" width="178.403" height="200.827"  xmlns="http://www.w3.org/2000/svg">
<polygon points=" 161.403,189.827  178.403,189.827  178.403,200.827  161.403,200.827"
 style="fill:red;stroke:purple;stroke-width:0.2" />
</svg><svg version="1.1"
baseProfile="full" width="195.403" height="200.827"  xmlns="http://www.w3.org/2000/svg">
<polygon points=" 178.403,189.827  195.403,189.827  195.403,200.827  178.403,200.827"
 style="fill:red;stroke:purple;stroke-width:0.2" />
</svg><svg version="1.1"
baseProfile="full" width="212.403" height="200.827"  xmlns="http://www.w3.org/2000/svg">
<polygon points=" 195.403,189.827  212.403,189.827  212.403,200.827  195.403,200.827"
 style="fill:red;stroke:purple;stroke-width:0.2" />
</svg><svg version="1.1"
baseProfile="full" width="229.403" height="200.827"  xmlns="http://www.w3.org/2000/svg">
<polygon points=" 212.403,189.827  229.403,189.827  229.403,200.827  212.403,200.827"
 style="fill:red;stroke:purple;stroke-width:0.2" />
</svg><svg version="1.1"
baseProfile="full" width="48.7543" height="189.827"  xmlns="http://www.w3.org/2000/svg">
<polygon points=" 31.7543,178.827  48.7543,178.827  48.7543,189.827  31.7543,189.827"
 style="fill:red;stroke:purple;stroke-width:0.2" />
</svg><svg version="1.1"
baseProfile="full" width="65.7543" height="189.827"  xmlns="http://www.w3.org/2000/svg">
<polygon points=" 48.7543,178.827  65.7543,178.827  65.7543,189.827  48.7543,189.827"
 style="fill:red;stroke:purple;stroke-width:0.2" />
</svg><svg version="1.1"
baseProfile="full" width="82.7543" height="189.827"  xmlns="http://www.w3.org/2000/svg">
<polygon points=" 65.7543,178.827  82.7543,178.827  82.7543,189.827  65.7543,189.827"
 style="fill:red;stroke:purple;stroke-width:0.2" />
</svg><svg version="1.1"
baseProfile="full" width="99.7543" height="189.827"  xmlns="http://www.w3.org/2000/svg">
<polygon points=" 82.7543,178.827  99.7543,178.827  99.7543,189.827  82.7543,189.827"
 style="fill:red;stroke:purple;stroke-width:0.2" />
</svg><svg version="1.1"
baseProfile="full" width="116.754" height="189.827"  xmlns="http://www.w3.org/2000/svg">
<polygon points=" 99.7543,178.827  116.754,178.827  116.754,189.827  99.7543,189.827"
 style="fill:red;stroke:purple;stroke-width:0.2" />
</svg><svg version="1.1"
baseProfile="full" width="133.754" height="189.827"  xmlns="http://www.w3.org/2000/svg">
<polygon points=" 116.754,178.827  133.754,178.827  133.754,189.827  116.754,189.827"
 style="fill:red;stroke:purple;stroke-width:0.2" />
</svg><svg version="1.1"
baseProfile="full" width="150.754" height="189.827"  xmlns="http://www.w3.org/2000/svg">
<polygon points=" 133.754,178.827  150.754,178.827  150.754,189.827  133.754,189.827"
 style="fill:red;stroke:purple;stroke-width:0.2" />
</svg><svg version="1.1"
baseProfile="full" width="167.754" height="189.827"  xmlns="http://www.w3.org/2000/svg">
<polygon points=" 150.754,178.827  167.754,178.827  167.754,189.827  150.754,189.827"
 style="fill:red;stroke:purple;stroke-width:0.2" />
</svg><svg version="1.1"
baseProfile="full" width="184.754" height="189.827"  xmlns="http://www.w3.org/2000/svg">
<polygon points=" 167.754,178.827  184.754,178.827  184.754,189.827  167.754,189.827"
 style="fill:red;stroke:purple;stroke-width:0.2" />
</svg><svg version="1.1"
baseProfile="full" width="201.754" height="189.827"  xmlns="http://www.w3.org/2000/svg">
<polygon points=" 184.754,178.827  201.754,178.827  201.754,189.827  184.754,189.827"
 style="fill:red;stroke:purple;stroke-width:0.2" />
</svg><svg version="1.1"
baseProfile="full" width="218.754" height="189.827"  xmlns="http://www.w3.org/2000/svg">
<polygon points=" 201.754,178.827  218.754,178.827  218.754,189.827  201.754,189.827"
 style="fill:red;stroke:purple;stroke-width:0.2" />
</svg><svg version="1.1"
baseProfile="full" width="235.754" height="189.827"  xmlns="http://www.w3.org/2000/svg">
<polygon points=" 218.754,178.827  235.754,178.827  235.754,189.827  218.754,189.827"
 style="fill:red;stroke:purple;stroke-width:0.2" />
</svg><svg version="1.1"
baseProfile="full" width="55.1051" height="178.827"  xmlns="http://www.w3.org/2000/svg">
<polygon points=" 38.1051,167.827  55.1051,167.827  55.1051,178.827  38.1051,178.827"
 style="fill:red;stroke:purple;stroke-width:0.2" />
</svg><svg version="1.1"
baseProfile="full" width="72.1051" height="178.827"  xmlns="http://www.w3.org/2000/svg">
<polygon points=" 55.1051,167.827  72.1051,167.827  72.1051,178.827  55.1051,178.827"
 style="fill:red;stroke:purple;stroke-width:0.2" />
</svg><svg version="1.1"
baseProfile="full" width="89.1051" height="178.827"  xmlns="http://www.w3.org/2000/svg">
<polygon points=" 72.1051,167.827  89.1051,167.827  89.1051,178.827  72.1051,178.827"
 style="fill:red;stroke:purple;stroke-width:0.2" />
</svg><svg version="1.1"
baseProfile="full" width="106.105" height="178.827"  xmlns="http://www.w3.org/2000/svg">
<polygon points=" 89.1051,167.827  106.105,167.827  106.105,178.827  89.1051,178.827"
 style="fill:red;stroke:purple;stroke-width:0.2" />
</svg><svg version="1.1"
baseProfile="full" width="123.105" height="178.827"  xmlns="http://www.w3.org/2000/svg">
<polygon points=" 106.105,167.827  123.105,167.827  123.105,178.827  106.105,178.827"
 style="fill:red;stroke:purple;stroke-width:0.2" />
</svg><svg version="1.1"
baseProfile="full" width="140.105" height="178.827"  xmlns="http://www.w3.org/2000/svg">
<polygon points=" 123.105,167.827  140.105,167.827  140.105,178.827  123.105,178.827"
 style="fill:red;stroke:purple;stroke-width:0.2" />
</svg><svg version="1.1"
baseProfile="full" width="157.105" height="178.827"  xmlns="http://www.w3.org/2000/svg">
<polygon points=" 140.105,167.827  157.105,167.827  157.105,178.827  140.105,178.827"
 style="fill:red;stroke:purple;stroke-width:0.2" />
</svg><svg version="1.1"
baseProfile="full" width="174.105" height="178.827"  xmlns="http://www.w3.org/2000/svg">
<polygon points=" 157.105,167.827  174.105,167.827  174.105,178.827  157.105,178.827"
 style="fill:red;stroke:purple;stroke-width:0.2" />
</svg><svg version="1.1"
baseProfile="full" width="191.105" height="178.827"  xmlns="http://www.w3.org/2000/svg">
<polygon points=" 174.105,167.827  191.105,167.827  191.105,178.827  174.105,178.827"
 style="fill:red;stroke:purple;stroke-width:0.2" />
</svg><svg version="1.1"
baseProfile="full" width="208.105" height="178.827"  xmlns="http://www.w3.org/2000/svg">
<polygon points=" 191.105,167.827  208.105,167.827  208.105,178.827  191.105,178.827"
 style="fill:red;stroke:purple;stroke-width:0.2" />
</svg><svg version="1.1"
baseProfile="full" width="225.105" height="178.827"  xmlns="http://www.w3.org/2000/svg">
<polygon points=" 208.105,167.827  225.105,167.827  225.105,178.827  208.105,178.827"
 style="fill:red;stroke:purple;stroke-width:0.2" />
</svg><svg version="1.1"
baseProfile="full" width="61.456" height="167.827"  xmlns="http://www.w3.org/2000/svg">
<polygon points=" 44.456,156.827  61.456,156.827  61.456,167.827  44.456,167.827"
 style="fill:red;stroke:purple;stroke-width:0.2" />
</svg><svg version="1.1"
baseProfile="full" width="78.456" height="167.827"  xmlns="http://www.w3.org/2000/svg">
<polygon points=" 61.456,156.827  78.456,156.827  78.456,167.827  61.456,167.827"
 style="fill:red;stroke:purple;stroke-width:0.2" />
</svg><svg version="1.1"
baseProfile="full" width="95.456" height="167.827"  xmlns="http://www.w3.org/2000/svg">
<polygon points=" 78.456,156.827  95.456,156.827  95.456,167.827  78.456,167.827"
 style="fill:red;stroke:purple;stroke-width:0.2" />
</svg><svg version="1.1"
baseProfile="full" width="112.456" height="167.827"  xmlns="http://www.w3.org/2000/svg">
<polygon points=" 95.456,156.827  112.456,156.827  112.456,167.827  95.456,167.827"
 style="fill:red;stroke:purple;stroke-width:0.2" />
</svg><svg version="1.1"
baseProfile="full" width="129.456" height="167.827"  xmlns="http://www.w3.org/2000/svg">
<polygon points=" 112.456,156.827  129.456,156.827  129.456,167.827  112.456,167.827"
 style="fill:red;stroke:purple;stroke-width:0.2" />
</svg><svg version="1.1"
baseProfile="full" width="146.456" height="167.827"  xmlns="http://www.w3.org/2000/svg">
<polygon points=" 129.456,156.827  146.456,156.827  146.456,167.827  129.456,167.827"
 style="fill:red;stroke:purple;stroke-width:0.2" />
</svg><svg version="1.1"
baseProfile="full" width="163.456" height="167.827"  xmlns="http://www.w3.org/2000/svg">
<polygon points=" 146.456,156.827  163.456,156.827  163.456,167.827  146.456,167.827"
 style="fill:red;stroke:purple;stroke-width:0.2" />
</svg><svg version="1.1"
baseProfile="full" width="180.456" height="167.827"  xmlns="http://www.w3.org/2000/svg">
<polygon points=" 163.456,156.827  180.456,156.827  180.456,167.827  163.456,167.827"
 style="fill:red;stroke:purple;stroke-width:0.2" />
</svg><svg version="1.1"
baseProfile="full" width="197.456" height="167.827"  xmlns="http://www.w3.org/2000/svg">
<polygon points=" 180.456,156.827  197.456,156.827  197.456,167.827  180.456,167.827"
 style="fill:red;stroke:purple;stroke-width:0.2" />
</svg><svg version="1.1"
baseProfile="full" width="214.456" height="167.827"  xmlns="http://www.w3.org/2000/svg">
<polygon points=" 197.456,156.827  214.456,156.827  214.456,167.827  197.456,167.827"
 style="fill:red;stroke:purple;stroke-width:0.2" />
</svg><svg version="1.1"
baseProfile="full" width="67.8068" height="156.827"  xmlns="http://www.w3.org/2000/svg">
<polygon points=" 50.8068,145.827  67.8068,145.827  67.8068,156.827  50.8068,156.827"
 style="fill:red;stroke:purple;stroke-width:0.2" />
</svg><svg version="1.1"
baseProfile="full" width="84.8068" height="156.827"  xmlns="http://www.w3.org/2000/svg">
<polygon points=" 67.8068,145.827  84.8068,145.827  84.8068,156.827  67.8068,156.827"
 style="fill:red;stroke:purple;stroke-width:0.2" />
</svg><svg version="1.1"
baseProfile="full" width="101.807" height="156.827"  xmlns="http://www.w3.org/2000/svg">
<polygon points=" 84.8068,145.827  101.807,145.827  101.807,156.827  84.8068,156.827"
 style="fill:red;stroke:purple;stroke-width:0.2" />
</svg><svg version="1.1"
baseProfile="full" width="118.807" height="156.827"  xmlns="http://www.w3.org/2000/svg">
<polygon points=" 101.807,145.827  118.807,145.827  118.807,156.827  101.807,156.827"
 style="fill:red;stroke:purple;stroke-width:0.2" />
</svg><svg version="1.1"
baseProfile="full" width="135.807" height="156.827"  xmlns="http://www.w3.org/2000/svg">
<polygon points=" 118.807,145.827  135.807,145.827  135.807,156.827  118.807,156.827"
 style="fill:red;stroke:purple;stroke-width:0.2" />
</svg><svg version="1.1"
baseProfile="full" width="152.807" height="156.827"  xmlns="http://www.w3.org/2000/svg">
<polygon points=" 135.807,145.827  152.807,145.827  152.807,156.827  135.807,156.827"
 style="fill:red;stroke:purple;stroke-width:0.2" />
</svg><svg version="1.1"
baseProfile="full" width="169.807" height="156.827"  xmlns="http://www.w3.org/2000/svg">
<polygon points=" 152.807,145.827  169.807,145.827  169.807,156.827  152.807,156.827"
 style="fill:red;stroke:purple;stroke-width:0.2" />
</svg><svg version="1.1"
baseProfile="full" width="186.807" height="156.827"  xmlns="http://www.w3.org/2000/svg">
<polygon points=" 169.807,145.827  186.807,145.827  186.807,156.827  169.807,156.827"
 style="fill:red;stroke:purple;stroke-width:0.2" />
</svg><svg version="1.1"
baseProfile="full" width="203.807" height="156.827"  xmlns="http://www.w3.org/2000/svg">
<polygon points=" 186.807,145.827  203.807,145.827  203.807,156.827  186.807,156.827"
 style="fill:red;stroke:purple;stroke-width:0.2" />
</svg><svg version="1.1"
baseProfile="full" width="74.1577" height="145.827"  xmlns="http://www.w3.org/2000/svg">
<polygon points=" 57.1577,134.827  74.1577,134.827  74.1577,145.827  57.1577,145.827"
 style="fill:red;stroke:purple;stroke-width:0.2" />
</svg><svg version="1.1"
baseProfile="full" width="91.1577" height="145.827"  xmlns="http://www.w3.org/2000/svg">
<polygon points=" 74.1577,134.827  91.1577,134.827  91.1577,145.827  74.1577,145.827"
 style="fill:red;stroke:purple;stroke-width:0.2" />
</svg><svg version="1.1"
baseProfile="full" width="108.158" height="145.827"  xmlns="http://www.w3.org/2000/svg">
<polygon points=" 91.1577,134.827  108.158,134.827  108.158,145.827  91.1577,145.827"
 style="fill:red;stroke:purple;stroke-width:0.2" />
</svg><svg version="1.1"
baseProfile="full" width="125.158" height="145.827"  xmlns="http://www.w3.org/2000/svg">
<polygon points=" 108.158,134.827  125.158,134.827  125.158,145.827  108.158,145.827"
 style="fill:red;stroke:purple;stroke-width:0.2" />
</svg><svg version="1.1"
baseProfile="full" width="142.158" height="145.827"  xmlns="http://www.w3.org/2000/svg">
<polygon points=" 125.158,134.827  142.158,134.827  142.158,145.827  125.158,145.827"
 style="fill:red;stroke:purple;stroke-width:0.2" />
</svg><svg version="1.1"
baseProfile="full" width="159.158" height="145.827"  xmlns="http://www.w3.org/2000/svg">
<polygon points=" 142.158,134.827  159.158,134.827  159.158,145.827  142.158,145.827"
 style="fill:red;stroke:purple;stroke-width:0.2" />
</svg><svg version="1.1"
baseProfile="full" width="176.158" height="145.827"  xmlns="http://www.w3.org/2000/svg">
<polygon points=" 159.158,134.827  176.158,134.827  176.158,145.827  159.158,145.827"
 style="fill:red;stroke:purple;stroke-width:0.2" />
</svg><svg version="1.1"
baseProfile="full" width="193.158" height="145.827"  xmlns="http://www.w3.org/2000/svg">
<polygon points=" 176.158,134.827  193.158,134.827  193.158,145.827  176.158,145.827"
 style="fill:red;stroke:purple;stroke-width:0.2" />
</svg><svg version="1.1"
baseProfile="full" width="210.158" height="145.827"  xmlns="http://www.w3.org/2000/svg">
<polygon points=" 193.158,134.827  210.158,134.827  210.158,145.827  193.158,145.827"
 style="fill:red;stroke:purple;stroke-width:0.2" />
</svg><svg version="1.1"
baseProfile="full" width="80.5085" height="134.827"  xmlns="http://www.w3.org/2000/svg">
<polygon points=" 63.5085,123.827  80.5085,123.827  80.5085,134.827  63.5085,134.827"
 style="fill:red;stroke:purple;stroke-width:0.2" />
</svg><svg version="1.1"
baseProfile="full" width="97.5085" height="134.827"  xmlns="http://www.w3.org/2000/svg">
<polygon points=" 80.5085,123.827  97.5085,123.827  97.5085,134.827  80.5085,134.827"
 style="fill:red;stroke:purple;stroke-width:0.2" />
</svg><svg version="1.1"
baseProfile="full" width="114.509" height="134.827"  xmlns="http://www.w3.org/2000/svg">
<polygon points=" 97.5085,123.827  114.509,123.827  114.509,134.827  97.5085,134.827"
 style="fill:red;stroke:purple;stroke-width:0.2" />
</svg><svg version="1.1"
baseProfile="full" width="131.509" height="134.827"  xmlns="http://www.w3.org/2000/svg">
<polygon points=" 114.509,123.827  131.509,123.827  131.509,134.827  114.509,134.827"
 style="fill:red;stroke:purple;stroke-width:0.2" />
</svg><svg version="1.1"
baseProfile="full" width="148.509" height="134.827"  xmlns="http://www.w3.org/2000/svg">
<polygon points=" 131.509,123.827  148.509,123.827  148.509,134.827  131.509,134.827"
 style="fill:red;stroke:purple;stroke-width:0.2" />
</svg><svg version="1.1"
baseProfile="full" width="165.509" height="134.827"  xmlns="http://www.w3.org/2000/svg">
<polygon points=" 148.509,123.827  165.509,123.827  165.509,134.827  148.509,134.827"
 style="fill:red;stroke:purple;stroke-width:0.2" />
</svg><svg version="1.1"
baseProfile="full" width="182.509" height="134.827"  xmlns="http://www.w3.org/2000/svg">
<polygon points=" 165.509,123.827  182.509,123.827  182.509,134.827  165.509,134.827"
 style="fill:red;stroke:purple;stroke-width:0.2" />
</svg><svg version="1.1"
baseProfile="full" width="199.509" height="134.827"  xmlns="http://www.w3.org/2000/svg">
<polygon points=" 182.509,123.827  199.509,123.827  199.509,134.827  182.509,134.827"
 style="fill:red;stroke:purple;stroke-width:0.2" />
</svg><svg version="1.1"
baseProfile="full" width="86.8594" height="123.827"  xmlns="http://www.w3.org/2000/svg">
<polygon points=" 69.8594,112.827  86.8594,112.827  86.8594,123.827  69.8594,123.827"
 style="fill:red;stroke:purple;stroke-width:0.2" />
</svg><svg version="1.1"
baseProfile="full" width="103.859" height="123.827"  xmlns="http://www.w3.org/2000/svg">
<polygon points=" 86.8594,112.827  103.859,112.827  103.859,123.827  86.8594,123.827"
 style="fill:red;stroke:purple;stroke-width:0.2" />
</svg><svg version="1.1"
baseProfile="full" width="120.859" height="123.827"  xmlns="http://www.w3.org/2000/svg">
<polygon points=" 103.859,112.827  120.859,112.827  120.859,123.827  103.859,123.827"
 style="fill:red;stroke:purple;stroke-width:0.2" />
</svg><svg version="1.1"
baseProfile="full" width="137.859" height="123.827"  xmlns="http://www.w3.org/2000/svg">
<polygon points=" 120.859,112.827  137.859,112.827  137.859,123.827  120.859,123.827"
 style="fill:red;stroke:purple;stroke-width:0.2" />
</svg><svg version="1.1"
baseProfile="full" width="154.859" height="123.827"  xmlns="http://www.w3.org/2000/svg">
<polygon points=" 137.859,112.827  154.859,112.827  154.859,123.827  137.859,123.827"
 style="fill:red;stroke:purple;stroke-width:0.2" />
</svg><svg version="1.1"
baseProfile="full" width="171.859" height="123.827"  xmlns="http://www.w3.org/2000/svg">
<polygon points=" 154.859,112.827  171.859,112.827  171.859,123.827  154.859,123.827"
 style="fill:red;stroke:purple;stroke-width:0.2" />
</svg><svg version="1.1"
baseProfile="full" width="188.859" height="123.827"  xmlns="http://www.w3.org/2000/svg">
<polygon points=" 171.859,112.827  188.859,112.827  188.859,123.827  171.859,123.827"
 style="fill:red;stroke:purple;stroke-width:0.2" />
</svg><svg version="1.1"
baseProfile="full" width="93.2102" height="112.827"  xmlns="http://www.w3.org/2000/svg">
<polygon points=" 76.2102,101.827  93.2102,101.827  93.2102,112.827  76.2102,112.827"
 style="fill:red;stroke:purple;stroke-width:0.2" />
</svg><svg version="1.1"
baseProfile="full" width="110.21" height="112.827"  xmlns="http://www.w3.org/2000/svg">
<polygon points=" 93.2102,101.827  110.21,101.827  110.21,112.827  93.2102,112.827"
 style="fill:red;stroke:purple;stroke-width:0.2" />
</svg><svg version="1.1"
baseProfile="full" width="127.21" height="112.827"  xmlns="http://www.w3.org/2000/svg">
<polygon points=" 110.21,101.827  127.21,101.827  127.21,112.827  110.21,112.827"
 style="fill:red;stroke:purple;stroke-width:0.2" />
</svg><svg version="1.1"
baseProfile="full" width="144.21" height="112.827"  xmlns="http://www.w3.org/2000/svg">
<polygon points=" 127.21,101.827  144.21,101.827  144.21,112.827  127.21,112.827"
 style="fill:red;stroke:purple;stroke-width:0.2" />
</svg><svg version="1.1"
baseProfile="full" width="161.21" height="112.827"  xmlns="http://www.w3.org/2000/svg">
<polygon points=" 144.21,101.827  161.21,101.827  161.21,112.827  144.21,112.827"
 style="fill:red;stroke:purple;stroke-width:0.2" />
</svg><svg version="1.1"
baseProfile="full" width="178.21" height="112.827"  xmlns="http://www.w3.org/2000/svg">
<polygon points=" 161.21,101.827  178.21,101.827  178.21,112.827  161.21,112.827"
 style="fill:red;stroke:purple;stroke-width:0.2" />
</svg><svg version="1.1"
baseProfile="full" width="99.5611" height="101.827"  xmlns="http://www.w3.org/2000/svg">
<polygon points=" 82.5611,90.8269  99.5611,90.8269  99.5611,101.827  82.5611,101.827"
 style="fill:red;stroke:purple;stroke-width:0.2" />
</svg><svg version="1.1"
baseProfile="full" width="116.561" height="101.827"  xmlns="http://www.w3.org/2000/svg">
<polygon points=" 99.5611,90.8269  116.561,90.8269  116.561,101.827  99.5611,101.827"
 style="fill:red;stroke:purple;stroke-width:0.2" />
</svg><svg version="1.1"
baseProfile="full" width="133.561" height="101.827"  xmlns="http://www.w3.org/2000/svg">
<polygon points=" 116.561,90.8269  133.561,90.8269  133.561,101.827  116.561,101.827"
 style="fill:red;stroke:purple;stroke-width:0.2" />
</svg><svg version="1.1"
baseProfile="full" width="150.561" height="101.827"  xmlns="http://www.w3.org/2000/svg">
<polygon points=" 133.561,90.8269  150.561,90.8269  150.561,101.827  133.561,101.827"
 style="fill:red;stroke:purple;stroke-width:0.2" />
</svg><svg version="1.1"
baseProfile="full" width="167.561" height="101.827"  xmlns="http://www.w3.org/2000/svg">
<polygon points=" 150.561,90.8269  167.561,90.8269  167.561,101.827  150.561,101.827"
 style="fill:red;stroke:purple;stroke-width:0.2" />
</svg><svg version="1.1"
baseProfile="full" width="184.561" height="101.827"  xmlns="http://www.w3.org/2000/svg">
<polygon points=" 167.561,90.8269  184.561,90.8269  184.561,101.827  167.561,101.827"
 style="fill:red;stroke:purple;stroke-width:0.2" />
</svg><svg version="1.1"
baseProfile="full" width="105.912" height="90.8269"  xmlns="http://www.w3.org/2000/svg">
<polygon points=" 88.9119,79.8269  105.912,79.8269  105.912,90.8269  88.9119,90.8269"
 style="fill:red;stroke:purple;stroke-width:0.2" />
</svg><svg version="1.1"
baseProfile="full" width="122.912" height="90.8269"  xmlns="http://www.w3.org/2000/svg">
<polygon points=" 105.912,79.8269  122.912,79.8269  122.912,90.8269  105.912,90.8269"
 style="fill:red;stroke:purple;stroke-width:0.2" />
</svg><svg version="1.1"
baseProfile="full" width="139.912" height="90.8269"  xmlns="http://www.w3.org/2000/svg">
<polygon points=" 122.912,79.8269  139.912,79.8269  139.912,90.8269  122.912,90.8269"
 style="fill:red;stroke:purple;stroke-width:0.2" />
</svg><svg version="1.1"
baseProfile="full" width="156.912" height="90.8269"  xmlns="http://www.w3.org/2000/svg">
<polygon points=" 139.912,79.8269  156.912,79.8269  156.912,90.8269  139.912,90.8269"
 style="fill:red;stroke:purple;stroke-width:0.2" />
</svg><svg version="1.1"
baseProfile="full" width="173.912" height="90.8269"  xmlns="http://www.w3.org/2000/svg">
<polygon points=" 156.912,79.8269  173.912,79.8269  173.912,90.8269  156.912,90.8269"
 style="fill:red;stroke:purple;stroke-width:0.2" />
</svg><svg version="1.1"
baseProfile="full" width="112.263" height="79.8269"  xmlns="http://www.w3.org/2000/svg">
<polygon points=" 95.2628,68.8269  112.263,68.8269  112.263,79.8269  95.2628,79.8269"
 style="fill:red;stroke:purple;stroke-width:0.2" />
</svg><svg version="1.1"
baseProfile="full" width="129.263" height="79.8269"  xmlns="http://www.w3.org/2000/svg">
<polygon points=" 112.263,68.8269  129.263,68.8269  129.263,79.8269  112.263,79.8269"
 style="fill:red;stroke:purple;stroke-width:0.2" />
</svg><svg version="1.1"
baseProfile="full" width="146.263" height="79.8269"  xmlns="http://www.w3.org/2000/svg">
<polygon points=" 129.263,68.8269  146.263,68.8269  146.263,79.8269  129.263,79.8269"
 style="fill:red;stroke:purple;stroke-width:0.2" />
</svg><svg version="1.1"
baseProfile="full" width="163.263" height="79.8269"  xmlns="http://www.w3.org/2000/svg">
<polygon points=" 146.263,68.8269  163.263,68.8269  163.263,79.8269  146.263,79.8269"
 style="fill:red;stroke:purple;stroke-width:0.2" />
</svg><svg version="1.1"
baseProfile="full" width="118.614" height="68.8269"  xmlns="http://www.w3.org/2000/svg">
<polygon points=" 101.614,57.8269  118.614,57.8269  118.614,68.8269  101.614,68.8269"
 style="fill:red;stroke:purple;stroke-width:0.2" />
</svg><svg version="1.1"
baseProfile="full" width="135.614" height="68.8269"  xmlns="http://www.w3.org/2000/svg">
<polygon points=" 118.614,57.8269  135.614,57.8269  135.614,68.8269  118.614,68.8269"
 style="fill:red;stroke:purple;stroke-width:0.2" />
</svg><svg version="1.1"
baseProfile="full" width="152.614" height="68.8269"  xmlns="http://www.w3.org/2000/svg">
<polygon points=" 135.614,57.8269  152.614,57.8269  152.614,68.8269  135.614,68.8269"
 style="fill:red;stroke:purple;stroke-width:0.2" />
</svg><svg version="1.1"
baseProfile="full" width="124.965" height="57.8269"  xmlns="http://www.w3.org/2000/svg">
<polygon points=" 107.965,46.8269  124.965,46.8269  124.965,57.8269  107.965,57.8269"
 style="fill:red;stroke:purple;stroke-width:0.2" />
</svg><svg version="1.1"
baseProfile="full" width="141.965" height="57.8269"  xmlns="http://www.w3.org/2000/svg">
<polygon points=" 124.965,46.8269  141.965,46.8269  141.965,57.8269  124.965,57.8269"
 style="fill:red;stroke:purple;stroke-width:0.2" />
</svg><svg version="1.1"
baseProfile="full" width="158.965" height="57.8269"  xmlns="http://www.w3.org/2000/svg">
<polygon points=" 141.965,46.8269  158.965,46.8269  158.965,57.8269  141.965,57.8269"
 style="fill:red;stroke:purple;stroke-width:0.2" />
</svg><svg version="1.1"
baseProfile="full" width="131.315" height="46.8269"  xmlns="http://www.w3.org/2000/svg">
<polygon points=" 114.315,35.8269  131.315,35.8269  131.315,46.8269  114.315,46.8269"
 style="fill:red;stroke:purple;stroke-width:0.2" />
</svg><svg version="1.1"
baseProfile="full" width="148.315" height="46.8269"  xmlns="http://www.w3.org/2000/svg">
<polygon points=" 131.315,35.8269  148.315,35.8269  148.315,46.8269  131.315,46.8269"
 style="fill:red;stroke:purple;stroke-width:0.2" />
</svg><svg version="1.1"
baseProfile="full" width="137.666" height="35.8269"  xmlns="http://www.w3.org/2000/svg">
<polygon points=" 120.666,24.8269  137.666,24.8269  137.666,35.8269  120.666,35.8269"
 style="fill:red;stroke:purple;stroke-width:0.2" />
</svg></svg>