<svg version="1.1"
baseProfile="full"
width="90" height="77.9423"
xmlns="http://www.w3.org/2000/svg">
<polygon points="45,0 0 ,77.9423 90 ,77.9423" fill="green"/>
<circle cx="6.9282" cy="73.9423" r="4" stroke="black" stroke-width="0.1"   fill="red"/>
<circle cx="14.9282" cy="73.9423" r="4" stroke="black" stroke-width="0.1"   fill="red"/>
<circle cx="22.9282" cy="73.9423" r="4" stroke="black" stroke-width="0.1"   fill="red"/>
<circle cx="30.9282" cy="73.9423" r="4" stroke="black" stroke-width="0.1"   fill="red"/>
<circle cx="38.9282" cy="73.9423" r="4" stroke="black" stroke-width="0.1"   fill="red"/>
<circle cx="46.9282" cy="73.9423" r="4" stroke="black" stroke-width="0.1"   fill="red"/>
<circle cx="54.9282" cy="73.9423" r="4" stroke="black" stroke-width="0.1"   fill="red"/>
<circle cx="62.9282" cy="73.9423" r="4" stroke="black" stroke-width="0.1"   fill="red"/>
<circle cx="70.9282" cy="73.9423" r="4" stroke="black" stroke-width="0.1"   fill="red"/>
<circle cx="78.9282" cy="73.9423" r="4" stroke="black" stroke-width="0.1"   fill="red"/>
<circle cx="10.9282" cy="67.0141" r="4" stroke="black" stroke-width="0.1"   fill="red"/>
<circle cx="18.9282" cy="67.0141" r="4" stroke="black" stroke-width="0.1"   fill="red"/>
<circle cx="26.9282" cy="67.0141" r="4" stroke="black" stroke-width="0.1"   fill="red"/>
<circle cx="34.9282" cy="67.0141" r="4" stroke="black" stroke-width="0.1"   fill="red"/>
<circle cx="42.9282" cy="67.0141" r="4" stroke="black" stroke-width="0.1"   fill="red"/>
<circle cx="50.9282" cy="67.0141" r="4" stroke="black" stroke-width="0.1"   fill="red"/>
<circle cx="58.9282" cy="67.0141" r="4" stroke="black" stroke-width="0.1"   fill="red"/>
<circle cx="66.9282" cy="67.0141" r="4" stroke="black" stroke-width="0.1"   fill="red"/>
<circle cx="74.9282" cy="67.0141" r="4" stroke="black" stroke-width="0.1"   fill="red"/>
<circle cx="14.9282" cy="60.0859" r="4" stroke="black" stroke-width="0.1"   fill="red"/>
<circle cx="22.9282" cy="60.0859" r="4" stroke="black" stroke-width="0.1"   fill="red"/>
<circle cx="30.9282" cy="60.0859" r="4" stroke="black" stroke-width="0.1"   fill="red"/>
<circle cx="38.9282" cy="60.0859" r="4" stroke="black" stroke-width="0.1"   fill="red"/>
<circle cx="46.9282" cy="60.0859" r="4" stroke="black" stroke-width="0.1"   fill="red"/>
<circle cx="54.9282" cy="60.0859" r="4" stroke="black" stroke-width="0.1"   fill="red"/>
<circle cx="62.9282" cy="60.0859" r="4" stroke="black" stroke-width="0.1"   fill="red"/>
<circle cx="70.9282" cy="60.0859" r="4" stroke="black" stroke-width="0.1"   fill="red"/>
<circle cx="18.9282" cy="53.1577" r="4" stroke="black" stroke-width="0.1"   fill="red"/>
<circle cx="26.9282" cy="53.1577" r="4" stroke="black" stroke-width="0.1"   fill="red"/>
<circle cx="34.9282" cy="53.1577" r="4" stroke="black" stroke-width="0.1"   fill="red"/>
<circle cx="42.9282" cy="53.1577" r="4" stroke="black" stroke-width="0.1"   fill="red"/>
<circle cx="50.9282" cy="53.1577" r="4" stroke="black" stroke-width="0.1"   fill="red"/>
<circle cx="58.9282" cy="53.1577" r="4" stroke="black" stroke-width="0.1"   fill="red"/>
<circle cx="66.9282" cy="53.1577" r="4" stroke="black" stroke-width="0.1"   fill="red"/>
<circle cx="22.9282" cy="46.2295" r="4" stroke="black" stroke-width="0.1"   fill="red"/>
<circle cx="30.9282" cy="46.2295" r="4" stroke="black" stroke-width="0.1"   fill="red"/>
<circle cx="38.9282" cy="46.2295" r="4" stroke="black" stroke-width="0.1"   fill="red"/>
<circle cx="46.9282" cy="46.2295" r="4" stroke="black" stroke-width="0.1"   fill="red"/>
<circle cx="54.9282" cy="46.2295" r="4" stroke="black" stroke-width="0.1"   fill="red"/>
<circle cx="62.9282" cy="46.2295" r="4" stroke="black" stroke-width="0.1"   fill="red"/>
<circle cx="26.9282" cy="39.3013" r="4" stroke="black" stroke-width="0.1"   fill="red"/>
<circle cx="34.9282" cy="39.3013" r="4" stroke="black" stroke-width="0.1"   fill="red"/>
<circle cx="42.9282" cy="39.3013" r="4" stroke="black" stroke-width="0.1"   fill="red"/>
<circle cx="50.9282" cy="39.3013" r="4" stroke="black" stroke-width="0.1"   fill="red"/>
<circle cx="58.9282" cy="39.3013" r="4" stroke="black" stroke-width="0.1"   fill="red"/>
<circle cx="30.9282" cy="32.3731" r="4" stroke="black" stroke-width="0.1"   fill="red"/>
<circle cx="38.9282" cy="32.3731" r="4" stroke="black" stroke-width="0.1"   fill="red"/>
<circle cx="46.9282" cy="32.3731" r="4" stroke="black" stroke-width="0.1"   fill="red"/>
<circle cx="54.9282" cy="32.3731" r="4" stroke="black" stroke-width="0.1"   fill="red"/>
<circle cx="34.9282" cy="25.4449" r="4" stroke="black" stroke-width="0.1"   fill="red"/>
<circle cx="42.9282" cy="25.4449" r="4" stroke="black" stroke-width="0.1"   fill="red"/>
<circle cx="50.9282" cy="25.4449" r="4" stroke="black" stroke-width="0.1"   fill="red"/>
<circle cx="38.9282" cy="18.5167" r="4" stroke="black" stroke-width="0.1"   fill="red"/>
<circle cx="46.9282" cy="18.5167" r="4" stroke="black" stroke-width="0.1"   fill="red"/>
<circle cx="42.9282" cy="11.5885" r="4" stroke="black" stroke-width="0.1"   fill="red"/>
</svg>