<svg version="1.1"
baseProfile="full"
width="150" height="129.904"
xmlns="http://www.w3.org/2000/svg">
<polygon points="75,0 0 ,129.904 150 ,129.904" fill="green"/>
<rect x="4.04145" y="122.904" width="8" height="7" fill="red" stroke="purple" stroke-width="0.2" />
<rect x="12.0415" y="122.904" width="8" height="7" fill="red" stroke="purple" stroke-width="0.2" />
<rect x="20.0415" y="122.904" width="8" height="7" fill="red" stroke="purple" stroke-width="0.2" />
<rect x="28.0415" y="122.904" width="8" height="7" fill="red" stroke="purple" stroke-width="0.2" />
<rect x="36.0415" y="122.904" width="8" height="7" fill="red" stroke="purple" stroke-width="0.2" />
<rect x="44.0415" y="122.904" width="8" height="7" fill="red" stroke="purple" stroke-width="0.2" />
<rect x="52.0415" y="122.904" width="8" height="7" fill="red" stroke="purple" stroke-width="0.2" />
<rect x="60.0415" y="122.904" width="8" height="7" fill="red" stroke="purple" stroke-width="0.2" />
<rect x="68.0415" y="122.904" width="8" height="7" fill="red" stroke="purple" stroke-width="0.2" />
<rect x="76.0415" y="122.904" width="8" height="7" fill="red" stroke="purple" stroke-width="0.2" />
<rect x="84.0415" y="122.904" width="8" height="7" fill="red" stroke="purple" stroke-width="0.2" />
<rect x="92.0415" y="122.904" width="8" height="7" fill="red" stroke="purple" stroke-width="0.2" />
<rect x="100.041" y="122.904" width="8" height="7" fill="red" stroke="purple" stroke-width="0.2" />
<rect x="108.041" y="122.904" width="8" height="7" fill="red" stroke="purple" stroke-width="0.2" />
<rect x="116.041" y="122.904" width="8" height="7" fill="red" stroke="purple" stroke-width="0.2" />
<rect x="124.041" y="122.904" width="8" height="7" fill="red" stroke="purple" stroke-width="0.2" />
<rect x="132.041" y="122.904" width="8" height="7" fill="red" stroke="purple" stroke-width="0.2" />
<rect x="8.0829" y="115.904" width="8" height="7" fill="red" stroke="purple" stroke-width="0.2" />
<rect x="16.0829" y="115.904" width="8" height="7" fill="red" stroke="purple" stroke-width="0.2" />
<rect x="24.0829" y="115.904" width="8" height="7" fill="red" stroke="purple" stroke-width="0.2" />
<rect x="32.0829" y="115.904" width="8" height="7" fill="red" stroke="purple" stroke-width="0.2" />
<rect x="40.0829" y="115.904" width="8" height="7" fill="red" stroke="purple" stroke-width="0.2" />
<rect x="48.0829" y="115.904" width="8" height="7" fill="red" stroke="purple" stroke-width="0.2" />
<rect x="56.0829" y="115.904" width="8" height="7" fill="red" stroke="purple" stroke-width="0.2" />
<rect x="64.0829" y="115.904" width="8" height="7" fill="red" stroke="purple" stroke-width="0.2" />
<rect x="72.0829" y="115.904" width="8" height="7" fill="red" stroke="purple" stroke-width="0.2" />
<rect x="80.0829" y="115.904" width="8" height="7" fill="red" stroke="purple" stroke-width="0.2" />
<rect x="88.0829" y="115.904" width="8" height="7" fill="red" stroke="purple" stroke-width="0.2" />
<rect x="96.0829" y="115.904" width="8" height="7" fill="red" stroke="purple" stroke-width="0.2" />
<rect x="104.083" y="115.904" width="8" height="7" fill="red" stroke="purple" stroke-width="0.2" />
<rect x="112.083" y="115.904" width="8" height="7" fill="red" stroke="purple" stroke-width="0.2" />
<rect x="120.083" y="115.904" width="8" height="7" fill="red" stroke="purple" stroke-width="0.2" />
<rect x="128.083" y="115.904" width="8" height="7" fill="red" stroke="purple" stroke-width="0.2" />
<rect x="12.1244" y="108.904" width="8" height="7" fill="red" stroke="purple" stroke-width="0.2" />
<rect x="20.1244" y="108.904" width="8" height="7" fill="red" stroke="purple" stroke-width="0.2" />
<rect x="28.1244" y="108.904" width="8" height="7" fill="red" stroke="purple" stroke-width="0.2" />
<rect x="36.1244" y="108.904" width="8" height="7" fill="red" stroke="purple" stroke-width="0.2" />
<rect x="44.1244" y="108.904" width="8" height="7" fill="red" stroke="purple" stroke-width="0.2" />
<rect x="52.1244" y="108.904" width="8" height="7" fill="red" stroke="purple" stroke-width="0.2" />
<rect x="60.1244" y="108.904" width="8" height="7" fill="red" stroke="purple" stroke-width="0.2" />
<rect x="68.1244" y="108.904" width="8" height="7" fill="red" stroke="purple" stroke-width="0.2" />
<rect x="76.1244" y="108.904" width="8" height="7" fill="red" stroke="purple" stroke-width="0.2" />
<rect x="84.1244" y="108.904" width="8" height="7" fill="red" stroke="purple" stroke-width="0.2" />
<rect x="92.1244" y="108.904" width="8" height="7" fill="red" stroke="purple" stroke-width="0.2" />
<rect x="100.124" y="108.904" width="8" height="7" fill="red" stroke="purple" stroke-width="0.2" />
<rect x="108.124" y="108.904" width="8" height="7" fill="red" stroke="purple" stroke-width="0.2" />
<rect x="116.124" y="108.904" width="8" height="7" fill="red" stroke="purple" stroke-width="0.2" />
<rect x="124.124" y="108.904" width="8" height="7" fill="red" stroke="purple" stroke-width="0.2" />
<rect x="16.1658" y="101.904" width="8" height="7" fill="red" stroke="purple" stroke-width="0.2" />
<rect x="24.1658" y="101.904" width="8" height="7" fill="red" stroke="purple" stroke-width="0.2" />
<rect x="32.1658" y="101.904" width="8" height="7" fill="red" stroke="purple" stroke-width="0.2" />
<rect x="40.1658" y="101.904" width="8" height="7" fill="red" stroke="purple" stroke-width="0.2" />
<rect x="48.1658" y="101.904" width="8" height="7" fill="red" stroke="purple" stroke-width="0.2" />
<rect x="56.1658" y="101.904" width="8" height="7" fill="red" stroke="purple" stroke-width="0.2" />
<rect x="64.1658" y="101.904" width="8" height="7" fill="red" stroke="purple" stroke-width="0.2" />
<rect x="72.1658" y="101.904" width="8" height="7" fill="red" stroke="purple" stroke-width="0.2" />
<rect x="80.1658" y="101.904" width="8" height="7" fill="red" stroke="purple" stroke-width="0.2" />
<rect x="88.1658" y="101.904" width="8" height="7" fill="red" stroke="purple" stroke-width="0.2" />
<rect x="96.1658" y="101.904" width="8" height="7" fill="red" stroke="purple" stroke-width="0.2" />
<rect x="104.166" y="101.904" width="8" height="7" fill="red" stroke="purple" stroke-width="0.2" />
<rect x="112.166" y="101.904" width="8" height="7" fill="red" stroke="purple" stroke-width="0.2" />
<rect x="120.166" y="101.904" width="8" height="7" fill="red" stroke="purple" stroke-width="0.2" />
<rect x="20.2073" y="94.9038" width="8" height="7" fill="red" stroke="purple" stroke-width="0.2" />
<rect x="28.2073" y="94.9038" width="8" height="7" fill="red" stroke="purple" stroke-width="0.2" />
<rect x="36.2073" y="94.9038" width="8" height="7" fill="red" stroke="purple" stroke-width="0.2" />
<rect x="44.2073" y="94.9038" width="8" height="7" fill="red" stroke="purple" stroke-width="0.2" />
<rect x="52.2073" y="94.9038" width="8" height="7" fill="red" stroke="purple" stroke-width="0.2" />
<rect x="60.2073" y="94.9038" width="8" height="7" fill="red" stroke="purple" stroke-width="0.2" />
<rect x="68.2073" y="94.9038" width="8" height="7" fill="red" stroke="purple" stroke-width="0.2" />
<rect x="76.2073" y="94.9038" width="8" height="7" fill="red" stroke="purple" stroke-width="0.2" />
<rect x="84.2073" y="94.9038" width="8" height="7" fill="red" stroke="purple" stroke-width="0.2" />
<rect x="92.2073" y="94.9038" width="8" height="7" fill="red" stroke="purple" stroke-width="0.2" />
<rect x="100.207" y="94.9038" width="8" height="7" fill="red" stroke="purple" stroke-width="0.2" />
<rect x="108.207" y="94.9038" width="8" height="7" fill="red" stroke="purple" stroke-width="0.2" />
<rect x="116.207" y="94.9038" width="8" height="7" fill="red" stroke="purple" stroke-width="0.2" />
<rect x="24.2487" y="87.9038" width="8" height="7" fill="red" stroke="purple" stroke-width="0.2" />
<rect x="32.2487" y="87.9038" width="8" height="7" fill="red" stroke="purple" stroke-width="0.2" />
<rect x="40.2487" y="87.9038" width="8" height="7" fill="red" stroke="purple" stroke-width="0.2" />
<rect x="48.2487" y="87.9038" width="8" height="7" fill="red" stroke="purple" stroke-width="0.2" />
<rect x="56.2487" y="87.9038" width="8" height="7" fill="red" stroke="purple" stroke-width="0.2" />
<rect x="64.2487" y="87.9038" width="8" height="7" fill="red" stroke="purple" stroke-width="0.2" />
<rect x="72.2487" y="87.9038" width="8" height="7" fill="red" stroke="purple" stroke-width="0.2" />
<rect x="80.2487" y="87.9038" width="8" height="7" fill="red" stroke="purple" stroke-width="0.2" />
<rect x="88.2487" y="87.9038" width="8" height="7" fill="red" stroke="purple" stroke-width="0.2" />
<rect x="96.2487" y="87.9038" width="8" height="7" fill="red" stroke="purple" stroke-width="0.2" />
<rect x="104.249" y="87.9038" width="8" height="7" fill="red" stroke="purple" stroke-width="0.2" />
<rect x="112.249" y="87.9038" width="8" height="7" fill="red" stroke="purple" stroke-width="0.2" />
<rect x="28.2902" y="80.9038" width="8" height="7" fill="red" stroke="purple" stroke-width="0.2" />
<rect x="36.2902" y="80.9038" width="8" height="7" fill="red" stroke="purple" stroke-width="0.2" />
<rect x="44.2902" y="80.9038" width="8" height="7" fill="red" stroke="purple" stroke-width="0.2" />
<rect x="52.2902" y="80.9038" width="8" height="7" fill="red" stroke="purple" stroke-width="0.2" />
<rect x="60.2902" y="80.9038" width="8" height="7" fill="red" stroke="purple" stroke-width="0.2" />
<rect x="68.2902" y="80.9038" width="8" height="7" fill="red" stroke="purple" stroke-width="0.2" />
<rect x="76.2902" y="80.9038" width="8" height="7" fill="red" stroke="purple" stroke-width="0.2" />
<rect x="84.2902" y="80.9038" width="8" height="7" fill="red" stroke="purple" stroke-width="0.2" />
<rect x="92.2902" y="80.9038" width="8" height="7" fill="red" stroke="purple" stroke-width="0.2" />
<rect x="100.29" y="80.9038" width="8" height="7" fill="red" stroke="purple" stroke-width="0.2" />
<rect x="108.29" y="80.9038" width="8" height="7" fill="red" stroke="purple" stroke-width="0.2" />
<rect x="32.3316" y="73.9038" width="8" height="7" fill="red" stroke="purple" stroke-width="0.2" />
<rect x="40.3316" y="73.9038" width="8" height="7" fill="red" stroke="purple" stroke-width="0.2" />
<rect x="48.3316" y="73.9038" width="8" height="7" fill="red" stroke="purple" stroke-width="0.2" />
<rect x="56.3316" y="73.9038" width="8" height="7" fill="red" stroke="purple" stroke-width="0.2" />
<rect x="64.3316" y="73.9038" width="8" height="7" fill="red" stroke="purple" stroke-width="0.2" />
<rect x="72.3316" y="73.9038" width="8" height="7" fill="red" stroke="purple" stroke-width="0.2" />
<rect x="80.3316" y="73.9038" width="8" height="7" fill="red" stroke="purple" stroke-width="0.2" />
<rect x="88.3316" y="73.9038" width="8" height="7" fill="red" stroke="purple" stroke-width="0.2" />
<rect x="96.3316" y="73.9038" width="8" height="7" fill="red" stroke="purple" stroke-width="0.2" />
<rect x="104.332" y="73.9038" width="8" height="7" fill="red" stroke="purple" stroke-width="0.2" />
<rect x="36.3731" y="66.9038" width="8" height="7" fill="red" stroke="purple" stroke-width="0.2" />
<rect x="44.3731" y="66.9038" width="8" height="7" fill="red" stroke="purple" stroke-width="0.2" />
<rect x="52.3731" y="66.9038" width="8" height="7" fill="red" stroke="purple" stroke-width="0.2" />
<rect x="60.3731" y="66.9038" width="8" height="7" fill="red" stroke="purple" stroke-width="0.2" />
<rect x="68.3731" y="66.9038" width="8" height="7" fill="red" stroke="purple" stroke-width="0.2" />
<rect x="76.3731" y="66.9038" width="8" height="7" fill="red" stroke="purple" stroke-width="0.2" />
<rect x="84.3731" y="66.9038" width="8" height="7" fill="red" stroke="purple" stroke-width="0.2" />
<rect x="92.3731" y="66.9038" width="8" height="7" fill="red" stroke="purple" stroke-width="0.2" />
<rect x="100.373" y="66.9038" width="8" height="7" fill="red" stroke="purple" stroke-width="0.2" />
<rect x="40.4145" y="59.9038" width="8" height="7" fill="red" stroke="purple" stroke-width="0.2" />
<rect x="48.4145" y="59.9038" width="8" height="7" fill="red" stroke="purple" stroke-width="0.2" />
<rect x="56.4145" y="59.9038" width="8" height="7" fill="red" stroke="purple" stroke-width="0.2" />
<rect x="64.4145" y="59.9038" width="8" height="7" fill="red" stroke="purple" stroke-width="0.2" />
<rect x="72.4145" y="59.9038" width="8" height="7" fill="red" stroke="purple" stroke-width="0.2" />
<rect x="80.4145" y="59.9038" width="8" height="7" fill="red" stroke="purple" stroke-width="0.2" />
<rect x="88.4145" y="59.9038" width="8" height="7" fill="red" stroke="purple" stroke-width="0.2" />
<rect x="96.4145" y="59.9038" width="8" height="7" fill="red" stroke="purple" stroke-width="0.2" />
<rect x="44.456" y="52.9038" width="8" height="7" fill="red" stroke="purple" stroke-width="0.2" />
<rect x="52.456" y="52.9038" width="8" height="7" fill="red" stroke="purple" stroke-width="0.2" />
<rect x="60.456" y="52.9038" width="8" height="7" fill="red" stroke="purple" stroke-width="0.2" />
<rect x="68.456" y="52.9038" width="8" height="7" fill="red" stroke="purple" stroke-width="0.2" />
<rect x="76.456" y="52.9038" width="8" height="7" fill="red" stroke="purple" stroke-width="0.2" />
<rect x="84.456" y="52.9038" width="8" height="7" fill="red" stroke="purple" stroke-width="0.2" />
<rect x="92.456" y="52.9038" width="8" height="7" fill="red" stroke="purple" stroke-width="0.2" />
<rect x="48.4974" y="45.9038" width="8" height="7" fill="red" stroke="purple" stroke-width="0.2" />
<rect x="56.4974" y="45.9038" width="8" height="7" fill="red" stroke="purple" stroke-width="0.2" />
<rect x="64.4974" y="45.9038" width="8" height="7" fill="red" stroke="purple" stroke-width="0.2" />
<rect x="72.4974" y="45.9038" width="8" height="7" fill="red" stroke="purple" stroke-width="0.2" />
<rect x="80.4974" y="45.9038" width="8" height="7" fill="red" stroke="purple" stroke-width="0.2" />
<rect x="88.4974" y="45.9038" width="8" height="7" fill="red" stroke="purple" stroke-width="0.2" />
<rect x="52.5389" y="38.9038" width="8" height="7" fill="red" stroke="purple" stroke-width="0.2" />
<rect x="60.5389" y="38.9038" width="8" height="7" fill="red" stroke="purple" stroke-width="0.2" />
<rect x="68.5389" y="38.9038" width="8" height="7" fill="red" stroke="purple" stroke-width="0.2" />
<rect x="76.5389" y="38.9038" width="8" height="7" fill="red" stroke="purple" stroke-width="0.2" />
<rect x="84.5389" y="38.9038" width="8" height="7" fill="red" stroke="purple" stroke-width="0.2" />
<rect x="56.5803" y="31.9038" width="8" height="7" fill="red" stroke="purple" stroke-width="0.2" />
<rect x="64.5803" y="31.9038" width="8" height="7" fill="red" stroke="purple" stroke-width="0.2" />
<rect x="72.5803" y="31.9038" width="8" height="7" fill="red" stroke="purple" stroke-width="0.2" />
<rect x="80.5803" y="31.9038" width="8" height="7" fill="red" stroke="purple" stroke-width="0.2" />
<rect x="60.6218" y="24.9038" width="8" height="7" fill="red" stroke="purple" stroke-width="0.2" />
<rect x="68.6218" y="24.9038" width="8" height="7" fill="red" stroke="purple" stroke-width="0.2" />
<rect x="76.6218" y="24.9038" width="8" height="7" fill="red" stroke="purple" stroke-width="0.2" />
<rect x="64.6632" y="17.9038" width="8" height="7" fill="red" stroke="purple" stroke-width="0.2" />
<rect x="72.6632" y="17.9038" width="8" height="7" fill="red" stroke="purple" stroke-width="0.2" />
<rect x="68.7047" y="10.9038" width="8" height="7" fill="red" stroke="purple" stroke-width="0.2" />
</svg>