<svg version="1.1"
baseProfile="full"
width="90" height="77.9423"
xmlns="http://www.w3.org/2000/svg">
<polygon points="45,0 0 ,77.9423 90 ,77.9423" fill="green"/>
<polygon points="2.5,73.6122 5 ,77.9423 0 ,77.9423" style="fill:red;stroke:purple;stroke-width:0.2" />
<polygon points="7.5,73.6122 10 ,77.9423 5 ,77.9423" style="fill:red;stroke:purple;stroke-width:0.2" />
<polygon points="12.5,73.6122 15 ,77.9423 10 ,77.9423" style="fill:red;stroke:purple;stroke-width:0.2" />
<polygon points="17.5,73.6122 20 ,77.9423 15 ,77.9423" style="fill:red;stroke:purple;stroke-width:0.2" />
<polygon points="22.5,73.6122 25 ,77.9423 20 ,77.9423" style="fill:red;stroke:purple;stroke-width:0.2" />
<polygon points="27.5,73.6122 30 ,77.9423 25 ,77.9423" style="fill:red;stroke:purple;stroke-width:0.2" />
<polygon points="32.5,73.6122 35 ,77.9423 30 ,77.9423" style="fill:red;stroke:purple;stroke-width:0.2" />
<polygon points="37.5,73.6122 40 ,77.9423 35 ,77.9423" style="fill:red;stroke:purple;stroke-width:0.2" />
<polygon points="42.5,73.6122 45 ,77.9423 40 ,77.9423" style="fill:red;stroke:purple;stroke-width:0.2" />
<polygon points="47.5,73.6122 50 ,77.9423 45 ,77.9423" style="fill:red;stroke:purple;stroke-width:0.2" />
<polygon points="52.5,73.6122 55 ,77.9423 50 ,77.9423" style="fill:red;stroke:purple;stroke-width:0.2" />
<polygon points="57.5,73.6122 60 ,77.9423 55 ,77.9423" style="fill:red;stroke:purple;stroke-width:0.2" />
<polygon points="62.5,73.6122 65 ,77.9423 60 ,77.9423" style="fill:red;stroke:purple;stroke-width:0.2" />
<polygon points="67.5,73.6122 70 ,77.9423 65 ,77.9423" style="fill:red;stroke:purple;stroke-width:0.2" />
<polygon points="72.5,73.6122 75 ,77.9423 70 ,77.9423" style="fill:red;stroke:purple;stroke-width:0.2" />
<polygon points="77.5,73.6122 80 ,77.9423 75 ,77.9423" style="fill:red;stroke:purple;stroke-width:0.2" />
<polygon points="82.5,73.6122 85 ,77.9423 80 ,77.9423" style="fill:red;stroke:purple;stroke-width:0.2" />
<polygon points="87.5,73.6122 90 ,77.9423 85 ,77.9423" style="fill:red;stroke:purple;stroke-width:0.2" />
<polygon points="5,77.9423 7.5 ,73.6122 2.5 ,73.6122" style="fill:red;stroke:purple;stroke-width:0.2" />
<polygon points="10,77.9423 12.5 ,73.6122 7.5 ,73.6122" style="fill:red;stroke:purple;stroke-width:0.2" />
<polygon points="15,77.9423 17.5 ,73.6122 12.5 ,73.6122" style="fill:red;stroke:purple;stroke-width:0.2" />
<polygon points="20,77.9423 22.5 ,73.6122 17.5 ,73.6122" style="fill:red;stroke:purple;stroke-width:0.2" />
<polygon points="25,77.9423 27.5 ,73.6122 22.5 ,73.6122" style="fill:red;stroke:purple;stroke-width:0.2" />
<polygon points="30,77.9423 32.5 ,73.6122 27.5 ,73.6122" style="fill:red;stroke:purple;stroke-width:0.2" />
<polygon points="35,77.9423 37.5 ,73.6122 32.5 ,73.6122" style="fill:red;stroke:purple;stroke-width:0.2" />
<polygon points="40,77.9423 42.5 ,73.6122 37.5 ,73.6122" style="fill:red;stroke:purple;stroke-width:0.2" />
<polygon points="45,77.9423 47.5 ,73.6122 42.5 ,73.6122" style="fill:red;stroke:purple;stroke-width:0.2" />
<polygon points="50,77.9423 52.5 ,73.6122 47.5 ,73.6122" style="fill:red;stroke:purple;stroke-width:0.2" />
<polygon points="55,77.9423 57.5 ,73.6122 52.5 ,73.6122" style="fill:red;stroke:purple;stroke-width:0.2" />
<polygon points="60,77.9423 62.5 ,73.6122 57.5 ,73.6122" style="fill:red;stroke:purple;stroke-width:0.2" />
<polygon points="65,77.9423 67.5 ,73.6122 62.5 ,73.6122" style="fill:red;stroke:purple;stroke-width:0.2" />
<polygon points="70,77.9423 72.5 ,73.6122 67.5 ,73.6122" style="fill:red;stroke:purple;stroke-width:0.2" />
<polygon points="75,77.9423 77.5 ,73.6122 72.5 ,73.6122" style="fill:red;stroke:purple;stroke-width:0.2" />
<polygon points="80,77.9423 82.5 ,73.6122 77.5 ,73.6122" style="fill:red;stroke:purple;stroke-width:0.2" />
<polygon points="85,77.9423 87.5 ,73.6122 82.5 ,73.6122" style="fill:red;stroke:purple;stroke-width:0.2" />
<polygon points="5,69.282 7.5 ,73.6122 2.5 ,73.6122" style="fill:red;stroke:purple;stroke-width:0.2" />
<polygon points="10,69.282 12.5 ,73.6122 7.5 ,73.6122" style="fill:red;stroke:purple;stroke-width:0.2" />
<polygon points="15,69.282 17.5 ,73.6122 12.5 ,73.6122" style="fill:red;stroke:purple;stroke-width:0.2" />
<polygon points="20,69.282 22.5 ,73.6122 17.5 ,73.6122" style="fill:red;stroke:purple;stroke-width:0.2" />
<polygon points="25,69.282 27.5 ,73.6122 22.5 ,73.6122" style="fill:red;stroke:purple;stroke-width:0.2" />
<polygon points="30,69.282 32.5 ,73.6122 27.5 ,73.6122" style="fill:red;stroke:purple;stroke-width:0.2" />
<polygon points="35,69.282 37.5 ,73.6122 32.5 ,73.6122" style="fill:red;stroke:purple;stroke-width:0.2" />
<polygon points="40,69.282 42.5 ,73.6122 37.5 ,73.6122" style="fill:red;stroke:purple;stroke-width:0.2" />
<polygon points="45,69.282 47.5 ,73.6122 42.5 ,73.6122" style="fill:red;stroke:purple;stroke-width:0.2" />
<polygon points="50,69.282 52.5 ,73.6122 47.5 ,73.6122" style="fill:red;stroke:purple;stroke-width:0.2" />
<polygon points="55,69.282 57.5 ,73.6122 52.5 ,73.6122" style="fill:red;stroke:purple;stroke-width:0.2" />
<polygon points="60,69.282 62.5 ,73.6122 57.5 ,73.6122" style="fill:red;stroke:purple;stroke-width:0.2" />
<polygon points="65,69.282 67.5 ,73.6122 62.5 ,73.6122" style="fill:red;stroke:purple;stroke-width:0.2" />
<polygon points="70,69.282 72.5 ,73.6122 67.5 ,73.6122" style="fill:red;stroke:purple;stroke-width:0.2" />
<polygon points="75,69.282 77.5 ,73.6122 72.5 ,73.6122" style="fill:red;stroke:purple;stroke-width:0.2" />
<polygon points="80,69.282 82.5 ,73.6122 77.5 ,73.6122" style="fill:red;stroke:purple;stroke-width:0.2" />
<polygon points="85,69.282 87.5 ,73.6122 82.5 ,73.6122" style="fill:red;stroke:purple;stroke-width:0.2" />
<polygon points="7.5,73.6122 10 ,69.282 5 ,69.282" style="fill:red;stroke:purple;stroke-width:0.2" />
<polygon points="12.5,73.6122 15 ,69.282 10 ,69.282" style="fill:red;stroke:purple;stroke-width:0.2" />
<polygon points="17.5,73.6122 20 ,69.282 15 ,69.282" style="fill:red;stroke:purple;stroke-width:0.2" />
<polygon points="22.5,73.6122 25 ,69.282 20 ,69.282" style="fill:red;stroke:purple;stroke-width:0.2" />
<polygon points="27.5,73.6122 30 ,69.282 25 ,69.282" style="fill:red;stroke:purple;stroke-width:0.2" />
<polygon points="32.5,73.6122 35 ,69.282 30 ,69.282" style="fill:red;stroke:purple;stroke-width:0.2" />
<polygon points="37.5,73.6122 40 ,69.282 35 ,69.282" style="fill:red;stroke:purple;stroke-width:0.2" />
<polygon points="42.5,73.6122 45 ,69.282 40 ,69.282" style="fill:red;stroke:purple;stroke-width:0.2" />
<polygon points="47.5,73.6122 50 ,69.282 45 ,69.282" style="fill:red;stroke:purple;stroke-width:0.2" />
<polygon points="52.5,73.6122 55 ,69.282 50 ,69.282" style="fill:red;stroke:purple;stroke-width:0.2" />
<polygon points="57.5,73.6122 60 ,69.282 55 ,69.282" style="fill:red;stroke:purple;stroke-width:0.2" />
<polygon points="62.5,73.6122 65 ,69.282 60 ,69.282" style="fill:red;stroke:purple;stroke-width:0.2" />
<polygon points="67.5,73.6122 70 ,69.282 65 ,69.282" style="fill:red;stroke:purple;stroke-width:0.2" />
<polygon points="72.5,73.6122 75 ,69.282 70 ,69.282" style="fill:red;stroke:purple;stroke-width:0.2" />
<polygon points="77.5,73.6122 80 ,69.282 75 ,69.282" style="fill:red;stroke:purple;stroke-width:0.2" />
<polygon points="82.5,73.6122 85 ,69.282 80 ,69.282" style="fill:red;stroke:purple;stroke-width:0.2" />
<polygon points="7.5,64.9519 10 ,69.282 5 ,69.282" style="fill:red;stroke:purple;stroke-width:0.2" />
<polygon points="12.5,64.9519 15 ,69.282 10 ,69.282" style="fill:red;stroke:purple;stroke-width:0.2" />
<polygon points="17.5,64.9519 20 ,69.282 15 ,69.282" style="fill:red;stroke:purple;stroke-width:0.2" />
<polygon points="22.5,64.9519 25 ,69.282 20 ,69.282" style="fill:red;stroke:purple;stroke-width:0.2" />
<polygon points="27.5,64.9519 30 ,69.282 25 ,69.282" style="fill:red;stroke:purple;stroke-width:0.2" />
<polygon points="32.5,64.9519 35 ,69.282 30 ,69.282" style="fill:red;stroke:purple;stroke-width:0.2" />
<polygon points="37.5,64.9519 40 ,69.282 35 ,69.282" style="fill:red;stroke:purple;stroke-width:0.2" />
<polygon points="42.5,64.9519 45 ,69.282 40 ,69.282" style="fill:red;stroke:purple;stroke-width:0.2" />
<polygon points="47.5,64.9519 50 ,69.282 45 ,69.282" style="fill:red;stroke:purple;stroke-width:0.2" />
<polygon points="52.5,64.9519 55 ,69.282 50 ,69.282" style="fill:red;stroke:purple;stroke-width:0.2" />
<polygon points="57.5,64.9519 60 ,69.282 55 ,69.282" style="fill:red;stroke:purple;stroke-width:0.2" />
<polygon points="62.5,64.9519 65 ,69.282 60 ,69.282" style="fill:red;stroke:purple;stroke-width:0.2" />
<polygon points="67.5,64.9519 70 ,69.282 65 ,69.282" style="fill:red;stroke:purple;stroke-width:0.2" />
<polygon points="72.5,64.9519 75 ,69.282 70 ,69.282" style="fill:red;stroke:purple;stroke-width:0.2" />
<polygon points="77.5,64.9519 80 ,69.282 75 ,69.282" style="fill:red;stroke:purple;stroke-width:0.2" />
<polygon points="82.5,64.9519 85 ,69.282 80 ,69.282" style="fill:red;stroke:purple;stroke-width:0.2" />
<polygon points="10,69.282 12.5 ,64.9519 7.5 ,64.9519" style="fill:red;stroke:purple;stroke-width:0.2" />
<polygon points="15,69.282 17.5 ,64.9519 12.5 ,64.9519" style="fill:red;stroke:purple;stroke-width:0.2" />
<polygon points="20,69.282 22.5 ,64.9519 17.5 ,64.9519" style="fill:red;stroke:purple;stroke-width:0.2" />
<polygon points="25,69.282 27.5 ,64.9519 22.5 ,64.9519" style="fill:red;stroke:purple;stroke-width:0.2" />
<polygon points="30,69.282 32.5 ,64.9519 27.5 ,64.9519" style="fill:red;stroke:purple;stroke-width:0.2" />
<polygon points="35,69.282 37.5 ,64.9519 32.5 ,64.9519" style="fill:red;stroke:purple;stroke-width:0.2" />
<polygon points="40,69.282 42.5 ,64.9519 37.5 ,64.9519" style="fill:red;stroke:purple;stroke-width:0.2" />
<polygon points="45,69.282 47.5 ,64.9519 42.5 ,64.9519" style="fill:red;stroke:purple;stroke-width:0.2" />
<polygon points="50,69.282 52.5 ,64.9519 47.5 ,64.9519" style="fill:red;stroke:purple;stroke-width:0.2" />
<polygon points="55,69.282 57.5 ,64.9519 52.5 ,64.9519" style="fill:red;stroke:purple;stroke-width:0.2" />
<polygon points="60,69.282 62.5 ,64.9519 57.5 ,64.9519" style="fill:red;stroke:purple;stroke-width:0.2" />
<polygon points="65,69.282 67.5 ,64.9519 62.5 ,64.9519" style="fill:red;stroke:purple;stroke-width:0.2" />
<polygon points="70,69.282 72.5 ,64.9519 67.5 ,64.9519" style="fill:red;stroke:purple;stroke-width:0.2" />
<polygon points="75,69.282 77.5 ,64.9519 72.5 ,64.9519" style="fill:red;stroke:purple;stroke-width:0.2" />
<polygon points="80,69.282 82.5 ,64.9519 77.5 ,64.9519" style="fill:red;stroke:purple;stroke-width:0.2" />
<polygon points="10,60.6218 12.5 ,64.9519 7.5 ,64.9519" style="fill:red;stroke:purple;stroke-width:0.2" />
<polygon points="15,60.6218 17.5 ,64.9519 12.5 ,64.9519" style="fill:red;stroke:purple;stroke-width:0.2" />
<polygon points="20,60.6218 22.5 ,64.9519 17.5 ,64.9519" style="fill:red;stroke:purple;stroke-width:0.2" />
<polygon points="25,60.6218 27.5 ,64.9519 22.5 ,64.9519" style="fill:red;stroke:purple;stroke-width:0.2" />
<polygon points="30,60.6218 32.5 ,64.9519 27.5 ,64.9519" style="fill:red;stroke:purple;stroke-width:0.2" />
<polygon points="35,60.6218 37.5 ,64.9519 32.5 ,64.9519" style="fill:red;stroke:purple;stroke-width:0.2" />
<polygon points="40,60.6218 42.5 ,64.9519 37.5 ,64.9519" style="fill:red;stroke:purple;stroke-width:0.2" />
<polygon points="45,60.6218 47.5 ,64.9519 42.5 ,64.9519" style="fill:red;stroke:purple;stroke-width:0.2" />
<polygon points="50,60.6218 52.5 ,64.9519 47.5 ,64.9519" style="fill:red;stroke:purple;stroke-width:0.2" />
<polygon points="55,60.6218 57.5 ,64.9519 52.5 ,64.9519" style="fill:red;stroke:purple;stroke-width:0.2" />
<polygon points="60,60.6218 62.5 ,64.9519 57.5 ,64.9519" style="fill:red;stroke:purple;stroke-width:0.2" />
<polygon points="65,60.6218 67.5 ,64.9519 62.5 ,64.9519" style="fill:red;stroke:purple;stroke-width:0.2" />
<polygon points="70,60.6218 72.5 ,64.9519 67.5 ,64.9519" style="fill:red;stroke:purple;stroke-width:0.2" />
<polygon points="75,60.6218 77.5 ,64.9519 72.5 ,64.9519" style="fill:red;stroke:purple;stroke-width:0.2" />
<polygon points="80,60.6218 82.5 ,64.9519 77.5 ,64.9519" style="fill:red;stroke:purple;stroke-width:0.2" />
<polygon points="12.5,64.9519 15 ,60.6218 10 ,60.6218" style="fill:red;stroke:purple;stroke-width:0.2" />
<polygon points="17.5,64.9519 20 ,60.6218 15 ,60.6218" style="fill:red;stroke:purple;stroke-width:0.2" />
<polygon points="22.5,64.9519 25 ,60.6218 20 ,60.6218" style="fill:red;stroke:purple;stroke-width:0.2" />
<polygon points="27.5,64.9519 30 ,60.6218 25 ,60.6218" style="fill:red;stroke:purple;stroke-width:0.2" />
<polygon points="32.5,64.9519 35 ,60.6218 30 ,60.6218" style="fill:red;stroke:purple;stroke-width:0.2" />
<polygon points="37.5,64.9519 40 ,60.6218 35 ,60.6218" style="fill:red;stroke:purple;stroke-width:0.2" />
<polygon points="42.5,64.9519 45 ,60.6218 40 ,60.6218" style="fill:red;stroke:purple;stroke-width:0.2" />
<polygon points="47.5,64.9519 50 ,60.6218 45 ,60.6218" style="fill:red;stroke:purple;stroke-width:0.2" />
<polygon points="52.5,64.9519 55 ,60.6218 50 ,60.6218" style="fill:red;stroke:purple;stroke-width:0.2" />
<polygon points="57.5,64.9519 60 ,60.6218 55 ,60.6218" style="fill:red;stroke:purple;stroke-width:0.2" />
<polygon points="62.5,64.9519 65 ,60.6218 60 ,60.6218" style="fill:red;stroke:purple;stroke-width:0.2" />
<polygon points="67.5,64.9519 70 ,60.6218 65 ,60.6218" style="fill:red;stroke:purple;stroke-width:0.2" />
<polygon points="72.5,64.9519 75 ,60.6218 70 ,60.6218" style="fill:red;stroke:purple;stroke-width:0.2" />
<polygon points="77.5,64.9519 80 ,60.6218 75 ,60.6218" style="fill:red;stroke:purple;stroke-width:0.2" />
<polygon points="12.5,56.2917 15 ,60.6218 10 ,60.6218" style="fill:red;stroke:purple;stroke-width:0.2" />
<polygon points="17.5,56.2917 20 ,60.6218 15 ,60.6218" style="fill:red;stroke:purple;stroke-width:0.2" />
<polygon points="22.5,56.2917 25 ,60.6218 20 ,60.6218" style="fill:red;stroke:purple;stroke-width:0.2" />
<polygon points="27.5,56.2917 30 ,60.6218 25 ,60.6218" style="fill:red;stroke:purple;stroke-width:0.2" />
<polygon points="32.5,56.2917 35 ,60.6218 30 ,60.6218" style="fill:red;stroke:purple;stroke-width:0.2" />
<polygon points="37.5,56.2917 40 ,60.6218 35 ,60.6218" style="fill:red;stroke:purple;stroke-width:0.2" />
<polygon points="42.5,56.2917 45 ,60.6218 40 ,60.6218" style="fill:red;stroke:purple;stroke-width:0.2" />
<polygon points="47.5,56.2917 50 ,60.6218 45 ,60.6218" style="fill:red;stroke:purple;stroke-width:0.2" />
<polygon points="52.5,56.2917 55 ,60.6218 50 ,60.6218" style="fill:red;stroke:purple;stroke-width:0.2" />
<polygon points="57.5,56.2917 60 ,60.6218 55 ,60.6218" style="fill:red;stroke:purple;stroke-width:0.2" />
<polygon points="62.5,56.2917 65 ,60.6218 60 ,60.6218" style="fill:red;stroke:purple;stroke-width:0.2" />
<polygon points="67.5,56.2917 70 ,60.6218 65 ,60.6218" style="fill:red;stroke:purple;stroke-width:0.2" />
<polygon points="72.5,56.2917 75 ,60.6218 70 ,60.6218" style="fill:red;stroke:purple;stroke-width:0.2" />
<polygon points="77.5,56.2917 80 ,60.6218 75 ,60.6218" style="fill:red;stroke:purple;stroke-width:0.2" />
<polygon points="15,60.6218 17.5 ,56.2917 12.5 ,56.2917" style="fill:red;stroke:purple;stroke-width:0.2" />
<polygon points="20,60.6218 22.5 ,56.2917 17.5 ,56.2917" style="fill:red;stroke:purple;stroke-width:0.2" />
<polygon points="25,60.6218 27.5 ,56.2917 22.5 ,56.2917" style="fill:red;stroke:purple;stroke-width:0.2" />
<polygon points="30,60.6218 32.5 ,56.2917 27.5 ,56.2917" style="fill:red;stroke:purple;stroke-width:0.2" />
<polygon points="35,60.6218 37.5 ,56.2917 32.5 ,56.2917" style="fill:red;stroke:purple;stroke-width:0.2" />
<polygon points="40,60.6218 42.5 ,56.2917 37.5 ,56.2917" style="fill:red;stroke:purple;stroke-width:0.2" />
<polygon points="45,60.6218 47.5 ,56.2917 42.5 ,56.2917" style="fill:red;stroke:purple;stroke-width:0.2" />
<polygon points="50,60.6218 52.5 ,56.2917 47.5 ,56.2917" style="fill:red;stroke:purple;stroke-width:0.2" />
<polygon points="55,60.6218 57.5 ,56.2917 52.5 ,56.2917" style="fill:red;stroke:purple;stroke-width:0.2" />
<polygon points="60,60.6218 62.5 ,56.2917 57.5 ,56.2917" style="fill:red;stroke:purple;stroke-width:0.2" />
<polygon points="65,60.6218 67.5 ,56.2917 62.5 ,56.2917" style="fill:red;stroke:purple;stroke-width:0.2" />
<polygon points="70,60.6218 72.5 ,56.2917 67.5 ,56.2917" style="fill:red;stroke:purple;stroke-width:0.2" />
<polygon points="75,60.6218 77.5 ,56.2917 72.5 ,56.2917" style="fill:red;stroke:purple;stroke-width:0.2" />
<polygon points="15,51.9615 17.5 ,56.2917 12.5 ,56.2917" style="fill:red;stroke:purple;stroke-width:0.2" />
<polygon points="20,51.9615 22.5 ,56.2917 17.5 ,56.2917" style="fill:red;stroke:purple;stroke-width:0.2" />
<polygon points="25,51.9615 27.5 ,56.2917 22.5 ,56.2917" style="fill:red;stroke:purple;stroke-width:0.2" />
<polygon points="30,51.9615 32.5 ,56.2917 27.5 ,56.2917" style="fill:red;stroke:purple;stroke-width:0.2" />
<polygon points="35,51.9615 37.5 ,56.2917 32.5 ,56.2917" style="fill:red;stroke:purple;stroke-width:0.2" />
<polygon points="40,51.9615 42.5 ,56.2917 37.5 ,56.2917" style="fill:red;stroke:purple;stroke-width:0.2" />
<polygon points="45,51.9615 47.5 ,56.2917 42.5 ,56.2917" style="fill:red;stroke:purple;stroke-width:0.2" />
<polygon points="50,51.9615 52.5 ,56.2917 47.5 ,56.2917" style="fill:red;stroke:purple;stroke-width:0.2" />
<polygon points="55,51.9615 57.5 ,56.2917 52.5 ,56.2917" style="fill:red;stroke:purple;stroke-width:0.2" />
<polygon points="60,51.9615 62.5 ,56.2917 57.5 ,56.2917" style="fill:red;stroke:purple;stroke-width:0.2" />
<polygon points="65,51.9615 67.5 ,56.2917 62.5 ,56.2917" style="fill:red;stroke:purple;stroke-width:0.2" />
<polygon points="70,51.9615 72.5 ,56.2917 67.5 ,56.2917" style="fill:red;stroke:purple;stroke-width:0.2" />
<polygon points="75,51.9615 77.5 ,56.2917 72.5 ,56.2917" style="fill:red;stroke:purple;stroke-width:0.2" />
<polygon points="17.5,56.2917 20 ,51.9615 15 ,51.9615" style="fill:red;stroke:purple;stroke-width:0.2" />
<polygon points="22.5,56.2917 25 ,51.9615 20 ,51.9615" style="fill:red;stroke:purple;stroke-width:0.2" />
<polygon points="27.5,56.2917 30 ,51.9615 25 ,51.9615" style="fill:red;stroke:purple;stroke-width:0.2" />
<polygon points="32.5,56.2917 35 ,51.9615 30 ,51.9615" style="fill:red;stroke:purple;stroke-width:0.2" />
<polygon points="37.5,56.2917 40 ,51.9615 35 ,51.9615" style="fill:red;stroke:purple;stroke-width:0.2" />
<polygon points="42.5,56.2917 45 ,51.9615 40 ,51.9615" style="fill:red;stroke:purple;stroke-width:0.2" />
<polygon points="47.5,56.2917 50 ,51.9615 45 ,51.9615" style="fill:red;stroke:purple;stroke-width:0.2" />
<polygon points="52.5,56.2917 55 ,51.9615 50 ,51.9615" style="fill:red;stroke:purple;stroke-width:0.2" />
<polygon points="57.5,56.2917 60 ,51.9615 55 ,51.9615" style="fill:red;stroke:purple;stroke-width:0.2" />
<polygon points="62.5,56.2917 65 ,51.9615 60 ,51.9615" style="fill:red;stroke:purple;stroke-width:0.2" />
<polygon points="67.5,56.2917 70 ,51.9615 65 ,51.9615" style="fill:red;stroke:purple;stroke-width:0.2" />
<polygon points="72.5,56.2917 75 ,51.9615 70 ,51.9615" style="fill:red;stroke:purple;stroke-width:0.2" />
<polygon points="17.5,47.6314 20 ,51.9615 15 ,51.9615" style="fill:red;stroke:purple;stroke-width:0.2" />
<polygon points="22.5,47.6314 25 ,51.9615 20 ,51.9615" style="fill:red;stroke:purple;stroke-width:0.2" />
<polygon points="27.5,47.6314 30 ,51.9615 25 ,51.9615" style="fill:red;stroke:purple;stroke-width:0.2" />
<polygon points="32.5,47.6314 35 ,51.9615 30 ,51.9615" style="fill:red;stroke:purple;stroke-width:0.2" />
<polygon points="37.5,47.6314 40 ,51.9615 35 ,51.9615" style="fill:red;stroke:purple;stroke-width:0.2" />
<polygon points="42.5,47.6314 45 ,51.9615 40 ,51.9615" style="fill:red;stroke:purple;stroke-width:0.2" />
<polygon points="47.5,47.6314 50 ,51.9615 45 ,51.9615" style="fill:red;stroke:purple;stroke-width:0.2" />
<polygon points="52.5,47.6314 55 ,51.9615 50 ,51.9615" style="fill:red;stroke:purple;stroke-width:0.2" />
<polygon points="57.5,47.6314 60 ,51.9615 55 ,51.9615" style="fill:red;stroke:purple;stroke-width:0.2" />
<polygon points="62.5,47.6314 65 ,51.9615 60 ,51.9615" style="fill:red;stroke:purple;stroke-width:0.2" />
<polygon points="67.5,47.6314 70 ,51.9615 65 ,51.9615" style="fill:red;stroke:purple;stroke-width:0.2" />
<polygon points="72.5,47.6314 75 ,51.9615 70 ,51.9615" style="fill:red;stroke:purple;stroke-width:0.2" />
<polygon points="20,51.9615 22.5 ,47.6314 17.5 ,47.6314" style="fill:red;stroke:purple;stroke-width:0.2" />
<polygon points="25,51.9615 27.5 ,47.6314 22.5 ,47.6314" style="fill:red;stroke:purple;stroke-width:0.2" />
<polygon points="30,51.9615 32.5 ,47.6314 27.5 ,47.6314" style="fill:red;stroke:purple;stroke-width:0.2" />
<polygon points="35,51.9615 37.5 ,47.6314 32.5 ,47.6314" style="fill:red;stroke:purple;stroke-width:0.2" />
<polygon points="40,51.9615 42.5 ,47.6314 37.5 ,47.6314" style="fill:red;stroke:purple;stroke-width:0.2" />
<polygon points="45,51.9615 47.5 ,47.6314 42.5 ,47.6314" style="fill:red;stroke:purple;stroke-width:0.2" />
<polygon points="50,51.9615 52.5 ,47.6314 47.5 ,47.6314" style="fill:red;stroke:purple;stroke-width:0.2" />
<polygon points="55,51.9615 57.5 ,47.6314 52.5 ,47.6314" style="fill:red;stroke:purple;stroke-width:0.2" />
<polygon points="60,51.9615 62.5 ,47.6314 57.5 ,47.6314" style="fill:red;stroke:purple;stroke-width:0.2" />
<polygon points="65,51.9615 67.5 ,47.6314 62.5 ,47.6314" style="fill:red;stroke:purple;stroke-width:0.2" />
<polygon points="70,51.9615 72.5 ,47.6314 67.5 ,47.6314" style="fill:red;stroke:purple;stroke-width:0.2" />
<polygon points="20,43.3013 22.5 ,47.6314 17.5 ,47.6314" style="fill:red;stroke:purple;stroke-width:0.2" />
<polygon points="25,43.3013 27.5 ,47.6314 22.5 ,47.6314" style="fill:red;stroke:purple;stroke-width:0.2" />
<polygon points="30,43.3013 32.5 ,47.6314 27.5 ,47.6314" style="fill:red;stroke:purple;stroke-width:0.2" />
<polygon points="35,43.3013 37.5 ,47.6314 32.5 ,47.6314" style="fill:red;stroke:purple;stroke-width:0.2" />
<polygon points="40,43.3013 42.5 ,47.6314 37.5 ,47.6314" style="fill:red;stroke:purple;stroke-width:0.2" />
<polygon points="45,43.3013 47.5 ,47.6314 42.5 ,47.6314" style="fill:red;stroke:purple;stroke-width:0.2" />
<polygon points="50,43.3013 52.5 ,47.6314 47.5 ,47.6314" style="fill:red;stroke:purple;stroke-width:0.2" />
<polygon points="55,43.3013 57.5 ,47.6314 52.5 ,47.6314" style="fill:red;stroke:purple;stroke-width:0.2" />
<polygon points="60,43.3013 62.5 ,47.6314 57.5 ,47.6314" style="fill:red;stroke:purple;stroke-width:0.2" />
<polygon points="65,43.3013 67.5 ,47.6314 62.5 ,47.6314" style="fill:red;stroke:purple;stroke-width:0.2" />
<polygon points="70,43.3013 72.5 ,47.6314 67.5 ,47.6314" style="fill:red;stroke:purple;stroke-width:0.2" />
<polygon points="22.5,47.6314 25 ,43.3013 20 ,43.3013" style="fill:red;stroke:purple;stroke-width:0.2" />
<polygon points="27.5,47.6314 30 ,43.3013 25 ,43.3013" style="fill:red;stroke:purple;stroke-width:0.2" />
<polygon points="32.5,47.6314 35 ,43.3013 30 ,43.3013" style="fill:red;stroke:purple;stroke-width:0.2" />
<polygon points="37.5,47.6314 40 ,43.3013 35 ,43.3013" style="fill:red;stroke:purple;stroke-width:0.2" />
<polygon points="42.5,47.6314 45 ,43.3013 40 ,43.3013" style="fill:red;stroke:purple;stroke-width:0.2" />
<polygon points="47.5,47.6314 50 ,43.3013 45 ,43.3013" style="fill:red;stroke:purple;stroke-width:0.2" />
<polygon points="52.5,47.6314 55 ,43.3013 50 ,43.3013" style="fill:red;stroke:purple;stroke-width:0.2" />
<polygon points="57.5,47.6314 60 ,43.3013 55 ,43.3013" style="fill:red;stroke:purple;stroke-width:0.2" />
<polygon points="62.5,47.6314 65 ,43.3013 60 ,43.3013" style="fill:red;stroke:purple;stroke-width:0.2" />
<polygon points="67.5,47.6314 70 ,43.3013 65 ,43.3013" style="fill:red;stroke:purple;stroke-width:0.2" />
<polygon points="22.5,38.9711 25 ,43.3013 20 ,43.3013" style="fill:red;stroke:purple;stroke-width:0.2" />
<polygon points="27.5,38.9711 30 ,43.3013 25 ,43.3013" style="fill:red;stroke:purple;stroke-width:0.2" />
<polygon points="32.5,38.9711 35 ,43.3013 30 ,43.3013" style="fill:red;stroke:purple;stroke-width:0.2" />
<polygon points="37.5,38.9711 40 ,43.3013 35 ,43.3013" style="fill:red;stroke:purple;stroke-width:0.2" />
<polygon points="42.5,38.9711 45 ,43.3013 40 ,43.3013" style="fill:red;stroke:purple;stroke-width:0.2" />
<polygon points="47.5,38.9711 50 ,43.3013 45 ,43.3013" style="fill:red;stroke:purple;stroke-width:0.2" />
<polygon points="52.5,38.9711 55 ,43.3013 50 ,43.3013" style="fill:red;stroke:purple;stroke-width:0.2" />
<polygon points="57.5,38.9711 60 ,43.3013 55 ,43.3013" style="fill:red;stroke:purple;stroke-width:0.2" />
<polygon points="62.5,38.9711 65 ,43.3013 60 ,43.3013" style="fill:red;stroke:purple;stroke-width:0.2" />
<polygon points="67.5,38.9711 70 ,43.3013 65 ,43.3013" style="fill:red;stroke:purple;stroke-width:0.2" />
<polygon points="25,43.3013 27.5 ,38.9711 22.5 ,38.9711" style="fill:red;stroke:purple;stroke-width:0.2" />
<polygon points="30,43.3013 32.5 ,38.9711 27.5 ,38.9711" style="fill:red;stroke:purple;stroke-width:0.2" />
<polygon points="35,43.3013 37.5 ,38.9711 32.5 ,38.9711" style="fill:red;stroke:purple;stroke-width:0.2" />
<polygon points="40,43.3013 42.5 ,38.9711 37.5 ,38.9711" style="fill:red;stroke:purple;stroke-width:0.2" />
<polygon points="45,43.3013 47.5 ,38.9711 42.5 ,38.9711" style="fill:red;stroke:purple;stroke-width:0.2" />
<polygon points="50,43.3013 52.5 ,38.9711 47.5 ,38.9711" style="fill:red;stroke:purple;stroke-width:0.2" />
<polygon points="55,43.3013 57.5 ,38.9711 52.5 ,38.9711" style="fill:red;stroke:purple;stroke-width:0.2" />
<polygon points="60,43.3013 62.5 ,38.9711 57.5 ,38.9711" style="fill:red;stroke:purple;stroke-width:0.2" />
<polygon points="65,43.3013 67.5 ,38.9711 62.5 ,38.9711" style="fill:red;stroke:purple;stroke-width:0.2" />
<polygon points="25,34.641 27.5 ,38.9711 22.5 ,38.9711" style="fill:red;stroke:purple;stroke-width:0.2" />
<polygon points="30,34.641 32.5 ,38.9711 27.5 ,38.9711" style="fill:red;stroke:purple;stroke-width:0.2" />
<polygon points="35,34.641 37.5 ,38.9711 32.5 ,38.9711" style="fill:red;stroke:purple;stroke-width:0.2" />
<polygon points="40,34.641 42.5 ,38.9711 37.5 ,38.9711" style="fill:red;stroke:purple;stroke-width:0.2" />
<polygon points="45,34.641 47.5 ,38.9711 42.5 ,38.9711" style="fill:red;stroke:purple;stroke-width:0.2" />
<polygon points="50,34.641 52.5 ,38.9711 47.5 ,38.9711" style="fill:red;stroke:purple;stroke-width:0.2" />
<polygon points="55,34.641 57.5 ,38.9711 52.5 ,38.9711" style="fill:red;stroke:purple;stroke-width:0.2" />
<polygon points="60,34.641 62.5 ,38.9711 57.5 ,38.9711" style="fill:red;stroke:purple;stroke-width:0.2" />
<polygon points="65,34.641 67.5 ,38.9711 62.5 ,38.9711" style="fill:red;stroke:purple;stroke-width:0.2" />
<polygon points="27.5,38.9711 30 ,34.641 25 ,34.641" style="fill:red;stroke:purple;stroke-width:0.2" />
<polygon points="32.5,38.9711 35 ,34.641 30 ,34.641" style="fill:red;stroke:purple;stroke-width:0.2" />
<polygon points="37.5,38.9711 40 ,34.641 35 ,34.641" style="fill:red;stroke:purple;stroke-width:0.2" />
<polygon points="42.5,38.9711 45 ,34.641 40 ,34.641" style="fill:red;stroke:purple;stroke-width:0.2" />
<polygon points="47.5,38.9711 50 ,34.641 45 ,34.641" style="fill:red;stroke:purple;stroke-width:0.2" />
<polygon points="52.5,38.9711 55 ,34.641 50 ,34.641" style="fill:red;stroke:purple;stroke-width:0.2" />
<polygon points="57.5,38.9711 60 ,34.641 55 ,34.641" style="fill:red;stroke:purple;stroke-width:0.2" />
<polygon points="62.5,38.9711 65 ,34.641 60 ,34.641" style="fill:red;stroke:purple;stroke-width:0.2" />
<polygon points="27.5,30.3109 30 ,34.641 25 ,34.641" style="fill:red;stroke:purple;stroke-width:0.2" />
<polygon points="32.5,30.3109 35 ,34.641 30 ,34.641" style="fill:red;stroke:purple;stroke-width:0.2" />
<polygon points="37.5,30.3109 40 ,34.641 35 ,34.641" style="fill:red;stroke:purple;stroke-width:0.2" />
<polygon points="42.5,30.3109 45 ,34.641 40 ,34.641" style="fill:red;stroke:purple;stroke-width:0.2" />
<polygon points="47.5,30.3109 50 ,34.641 45 ,34.641" style="fill:red;stroke:purple;stroke-width:0.2" />
<polygon points="52.5,30.3109 55 ,34.641 50 ,34.641" style="fill:red;stroke:purple;stroke-width:0.2" />
<polygon points="57.5,30.3109 60 ,34.641 55 ,34.641" style="fill:red;stroke:purple;stroke-width:0.2" />
<polygon points="62.5,30.3109 65 ,34.641 60 ,34.641" style="fill:red;stroke:purple;stroke-width:0.2" />
<polygon points="30,34.641 32.5 ,30.3109 27.5 ,30.3109" style="fill:red;stroke:purple;stroke-width:0.2" />
<polygon points="35,34.641 37.5 ,30.3109 32.5 ,30.3109" style="fill:red;stroke:purple;stroke-width:0.2" />
<polygon points="40,34.641 42.5 ,30.3109 37.5 ,30.3109" style="fill:red;stroke:purple;stroke-width:0.2" />
<polygon points="45,34.641 47.5 ,30.3109 42.5 ,30.3109" style="fill:red;stroke:purple;stroke-width:0.2" />
<polygon points="50,34.641 52.5 ,30.3109 47.5 ,30.3109" style="fill:red;stroke:purple;stroke-width:0.2" />
<polygon points="55,34.641 57.5 ,30.3109 52.5 ,30.3109" style="fill:red;stroke:purple;stroke-width:0.2" />
<polygon points="60,34.641 62.5 ,30.3109 57.5 ,30.3109" style="fill:red;stroke:purple;stroke-width:0.2" />
<polygon points="30,25.9808 32.5 ,30.3109 27.5 ,30.3109" style="fill:red;stroke:purple;stroke-width:0.2" />
<polygon points="35,25.9808 37.5 ,30.3109 32.5 ,30.3109" style="fill:red;stroke:purple;stroke-width:0.2" />
<polygon points="40,25.9808 42.5 ,30.3109 37.5 ,30.3109" style="fill:red;stroke:purple;stroke-width:0.2" />
<polygon points="45,25.9808 47.5 ,30.3109 42.5 ,30.3109" style="fill:red;stroke:purple;stroke-width:0.2" />
<polygon points="50,25.9808 52.5 ,30.3109 47.5 ,30.3109" style="fill:red;stroke:purple;stroke-width:0.2" />
<polygon points="55,25.9808 57.5 ,30.3109 52.5 ,30.3109" style="fill:red;stroke:purple;stroke-width:0.2" />
<polygon points="60,25.9808 62.5 ,30.3109 57.5 ,30.3109" style="fill:red;stroke:purple;stroke-width:0.2" />
<polygon points="32.5,30.3109 35 ,25.9808 30 ,25.9808" style="fill:red;stroke:purple;stroke-width:0.2" />
<polygon points="37.5,30.3109 40 ,25.9808 35 ,25.9808" style="fill:red;stroke:purple;stroke-width:0.2" />
<polygon points="42.5,30.3109 45 ,25.9808 40 ,25.9808" style="fill:red;stroke:purple;stroke-width:0.2" />
<polygon points="47.5,30.3109 50 ,25.9808 45 ,25.9808" style="fill:red;stroke:purple;stroke-width:0.2" />
<polygon points="52.5,30.3109 55 ,25.9808 50 ,25.9808" style="fill:red;stroke:purple;stroke-width:0.2" />
<polygon points="57.5,30.3109 60 ,25.9808 55 ,25.9808" style="fill:red;stroke:purple;stroke-width:0.2" />
<polygon points="32.5,21.6506 35 ,25.9808 30 ,25.9808" style="fill:red;stroke:purple;stroke-width:0.2" />
<polygon points="37.5,21.6506 40 ,25.9808 35 ,25.9808" style="fill:red;stroke:purple;stroke-width:0.2" />
<polygon points="42.5,21.6506 45 ,25.9808 40 ,25.9808" style="fill:red;stroke:purple;stroke-width:0.2" />
<polygon points="47.5,21.6506 50 ,25.9808 45 ,25.9808" style="fill:red;stroke:purple;stroke-width:0.2" />
<polygon points="52.5,21.6506 55 ,25.9808 50 ,25.9808" style="fill:red;stroke:purple;stroke-width:0.2" />
<polygon points="57.5,21.6506 60 ,25.9808 55 ,25.9808" style="fill:red;stroke:purple;stroke-width:0.2" />
<polygon points="35,25.9808 37.5 ,21.6506 32.5 ,21.6506" style="fill:red;stroke:purple;stroke-width:0.2" />
<polygon points="40,25.9808 42.5 ,21.6506 37.5 ,21.6506" style="fill:red;stroke:purple;stroke-width:0.2" />
<polygon points="45,25.9808 47.5 ,21.6506 42.5 ,21.6506" style="fill:red;stroke:purple;stroke-width:0.2" />
<polygon points="50,25.9808 52.5 ,21.6506 47.5 ,21.6506" style="fill:red;stroke:purple;stroke-width:0.2" />
<polygon points="55,25.9808 57.5 ,21.6506 52.5 ,21.6506" style="fill:red;stroke:purple;stroke-width:0.2" />
<polygon points="35,17.3205 37.5 ,21.6506 32.5 ,21.6506" style="fill:red;stroke:purple;stroke-width:0.2" />
<polygon points="40,17.3205 42.5 ,21.6506 37.5 ,21.6506" style="fill:red;stroke:purple;stroke-width:0.2" />
<polygon points="45,17.3205 47.5 ,21.6506 42.5 ,21.6506" style="fill:red;stroke:purple;stroke-width:0.2" />
<polygon points="50,17.3205 52.5 ,21.6506 47.5 ,21.6506" style="fill:red;stroke:purple;stroke-width:0.2" />
<polygon points="55,17.3205 57.5 ,21.6506 52.5 ,21.6506" style="fill:red;stroke:purple;stroke-width:0.2" />
<polygon points="37.5,21.6506 40 ,17.3205 35 ,17.3205" style="fill:red;stroke:purple;stroke-width:0.2" />
<polygon points="42.5,21.6506 45 ,17.3205 40 ,17.3205" style="fill:red;stroke:purple;stroke-width:0.2" />
<polygon points="47.5,21.6506 50 ,17.3205 45 ,17.3205" style="fill:red;stroke:purple;stroke-width:0.2" />
<polygon points="52.5,21.6506 55 ,17.3205 50 ,17.3205" style="fill:red;stroke:purple;stroke-width:0.2" />
<polygon points="37.5,12.9904 40 ,17.3205 35 ,17.3205" style="fill:red;stroke:purple;stroke-width:0.2" />
<polygon points="42.5,12.9904 45 ,17.3205 40 ,17.3205" style="fill:red;stroke:purple;stroke-width:0.2" />
<polygon points="47.5,12.9904 50 ,17.3205 45 ,17.3205" style="fill:red;stroke:purple;stroke-width:0.2" />
<polygon points="52.5,12.9904 55 ,17.3205 50 ,17.3205" style="fill:red;stroke:purple;stroke-width:0.2" />
<polygon points="40,17.3205 42.5 ,12.9904 37.5 ,12.9904" style="fill:red;stroke:purple;stroke-width:0.2" />
<polygon points="45,17.3205 47.5 ,12.9904 42.5 ,12.9904" style="fill:red;stroke:purple;stroke-width:0.2" />
<polygon points="50,17.3205 52.5 ,12.9904 47.5 ,12.9904" style="fill:red;stroke:purple;stroke-width:0.2" />
<polygon points="40,8.66025 42.5 ,12.9904 37.5 ,12.9904" style="fill:red;stroke:purple;stroke-width:0.2" />
<polygon points="45,8.66025 47.5 ,12.9904 42.5 ,12.9904" style="fill:red;stroke:purple;stroke-width:0.2" />
<polygon points="50,8.66025 52.5 ,12.9904 47.5 ,12.9904" style="fill:red;stroke:purple;stroke-width:0.2" />
<polygon points="42.5,12.9904 45 ,8.66025 40 ,8.66025" style="fill:red;stroke:purple;stroke-width:0.2" />
<polygon points="47.5,12.9904 50 ,8.66025 45 ,8.66025" style="fill:red;stroke:purple;stroke-width:0.2" />
<polygon points="42.5,4.33013 45 ,8.66025 40 ,8.66025" style="fill:red;stroke:purple;stroke-width:0.2" />
<polygon points="47.5,4.33013 50 ,8.66025 45 ,8.66025" style="fill:red;stroke:purple;stroke-width:0.2" />
<polygon points="45,8.66025 47.5 ,4.33013 42.5 ,4.33013" style="fill:red;stroke:purple;stroke-width:0.2" />
<polygon points="45,0 47.5 ,4.33013 42.5 ,4.33013" style="fill:red;stroke:purple;stroke-width:0.2" />
</svg>