<svg version="1.1"
baseProfile="full" width="300" height="300"  xmlns="http://www.w3.org/2000/svg">
<polygon points=" 150,300  159.419,299.704  168.8,298.817  178.107,297.343  187.303,295.287  196.353,292.658  205.219,289.466  213.867,285.724  222.263,281.446  230.374,276.649  238.168,271.353  245.614,265.577  252.682,259.345  259.345,252.682  265.577,245.614  271.353,238.168  276.649,230.374  281.446,222.263  285.724,213.867  289.466,205.219  292.658,196.353  295.287,187.304  297.343,178.107  298.817,168.8  299.704,159.419  300,150  299.704,140.581  298.817,131.2  297.343,121.893  295.287,112.697  292.658,103.648  289.466,94.7814  285.724,86.1332  281.446,77.737  276.649,69.626  271.353,61.8323  265.577,54.3865  259.345,47.318  252.682,40.6548  245.614,34.4231  238.168,28.6475  230.374,23.3509  222.263,18.554  213.867,14.276  205.219,10.5336  196.353,7.34155  187.304,4.71255  178.107,2.65693  168.8,1.18281  159.419,0.295997  150,3.2041e-11  140.582,0.295984  131.2,1.18278  121.893,2.65689  112.697,4.7125  103.648,7.34149  94.7814,10.5335  86.1332,14.2759  77.737,18.5539  69.6261,23.3507  61.8323,28.6474  54.3865,34.4229  47.318,40.6546  40.6548,47.3178  34.4231,54.3863  28.6475,61.8321  23.3509,69.6259  18.5541,77.7368  14.276,86.133  10.5336,94.7812  7.34156,103.647  4.71256,112.696  2.65694,121.893  1.18281,131.2  0.296,140.581  7.20923e-11,150  0.295981,159.418  1.18278,168.8  2.65688,178.107  4.71249,187.303  7.34147,196.352  10.5335,205.219  14.2759,213.867  18.5539,222.263  23.3507,230.374  28.6474,238.168  34.4229,245.613  40.6546,252.682  47.3178,259.345  54.3863,265.577  61.8321,271.352  69.6258,276.649  77.7368,281.446  86.1329,285.724  94.7811,289.466  103.647,292.658  112.696,295.287  121.893,297.343  131.2,298.817  140.581,299.704"
 style="fill:red;stroke:purple;stroke-width:0.2" />
</svg>