<svg version="1.1"
baseProfile="full"
width="280" height="270"
xmlns="http://www.w3.org/2000/svg">
<polygon points=" 0,0  280,0  280,270  0,270"
 fill="green" />
<svg version="1.1"
baseProfile="full" width="18" height="25"  xmlns="http://www.w3.org/2000/svg">
<polygon points=" 0,0  18,0  18,25  0,25"
 style="fill:red;stroke:purple;stroke-width:0.2" />
</svg><svg version="1.1"
baseProfile="full" width="36" height="25"  xmlns="http://www.w3.org/2000/svg">
<polygon points=" 18,0  36,0  36,25  18,25"
 style="fill:red;stroke:purple;stroke-width:0.2" />
</svg><svg version="1.1"
baseProfile="full" width="54" height="25"  xmlns="http://www.w3.org/2000/svg">
<polygon points=" 36,0  54,0  54,25  36,25"
 style="fill:red;stroke:purple;stroke-width:0.2" />
</svg><svg version="1.1"
baseProfile="full" width="72" height="25"  xmlns="http://www.w3.org/2000/svg">
<polygon points=" 54,0  72,0  72,25  54,25"
 style="fill:red;stroke:purple;stroke-width:0.2" />
</svg><svg version="1.1"
baseProfile="full" width="90" height="25"  xmlns="http://www.w3.org/2000/svg">
<polygon points=" 72,0  90,0  90,25  72,25"
 style="fill:red;stroke:purple;stroke-width:0.2" />
</svg><svg version="1.1"
baseProfile="full" width="108" height="25"  xmlns="http://www.w3.org/2000/svg">
<polygon points=" 90,0  108,0  108,25  90,25"
 style="fill:red;stroke:purple;stroke-width:0.2" />
</svg><svg version="1.1"
baseProfile="full" width="126" height="25"  xmlns="http://www.w3.org/2000/svg">
<polygon points=" 108,0  126,0  126,25  108,25"
 style="fill:red;stroke:purple;stroke-width:0.2" />
</svg><svg version="1.1"
baseProfile="full" width="144" height="25"  xmlns="http://www.w3.org/2000/svg">
<polygon points=" 126,0  144,0  144,25  126,25"
 style="fill:red;stroke:purple;stroke-width:0.2" />
</svg><svg version="1.1"
baseProfile="full" width="162" height="25"  xmlns="http://www.w3.org/2000/svg">
<polygon points=" 144,0  162,0  162,25  144,25"
 style="fill:red;stroke:purple;stroke-width:0.2" />
</svg><svg version="1.1"
baseProfile="full" width="180" height="25"  xmlns="http://www.w3.org/2000/svg">
<polygon points=" 162,0  180,0  180,25  162,25"
 style="fill:red;stroke:purple;stroke-width:0.2" />
</svg><svg version="1.1"
baseProfile="full" width="198" height="25"  xmlns="http://www.w3.org/2000/svg">
<polygon points=" 180,0  198,0  198,25  180,25"
 style="fill:red;stroke:purple;stroke-width:0.2" />
</svg><svg version="1.1"
baseProfile="full" width="216" height="25"  xmlns="http://www.w3.org/2000/svg">
<polygon points=" 198,0  216,0  216,25  198,25"
 style="fill:red;stroke:purple;stroke-width:0.2" />
</svg><svg version="1.1"
baseProfile="full" width="234" height="25"  xmlns="http://www.w3.org/2000/svg">
<polygon points=" 216,0  234,0  234,25  216,25"
 style="fill:red;stroke:purple;stroke-width:0.2" />
</svg><svg version="1.1"
baseProfile="full" width="252" height="25"  xmlns="http://www.w3.org/2000/svg">
<polygon points=" 234,0  252,0  252,25  234,25"
 style="fill:red;stroke:purple;stroke-width:0.2" />
</svg><svg version="1.1"
baseProfile="full" width="270" height="25"  xmlns="http://www.w3.org/2000/svg">
<polygon points=" 252,0  270,0  270,25  252,25"
 style="fill:red;stroke:purple;stroke-width:0.2" />
</svg><svg version="1.1"
baseProfile="full" width="18" height="50"  xmlns="http://www.w3.org/2000/svg">
<polygon points=" 0,25  18,25  18,50  0,50"
 style="fill:red;stroke:purple;stroke-width:0.2" />
</svg><svg version="1.1"
baseProfile="full" width="36" height="50"  xmlns="http://www.w3.org/2000/svg">
<polygon points=" 18,25  36,25  36,50  18,50"
 style="fill:red;stroke:purple;stroke-width:0.2" />
</svg><svg version="1.1"
baseProfile="full" width="54" height="50"  xmlns="http://www.w3.org/2000/svg">
<polygon points=" 36,25  54,25  54,50  36,50"
 style="fill:red;stroke:purple;stroke-width:0.2" />
</svg><svg version="1.1"
baseProfile="full" width="72" height="50"  xmlns="http://www.w3.org/2000/svg">
<polygon points=" 54,25  72,25  72,50  54,50"
 style="fill:red;stroke:purple;stroke-width:0.2" />
</svg><svg version="1.1"
baseProfile="full" width="90" height="50"  xmlns="http://www.w3.org/2000/svg">
<polygon points=" 72,25  90,25  90,50  72,50"
 style="fill:red;stroke:purple;stroke-width:0.2" />
</svg><svg version="1.1"
baseProfile="full" width="108" height="50"  xmlns="http://www.w3.org/2000/svg">
<polygon points=" 90,25  108,25  108,50  90,50"
 style="fill:red;stroke:purple;stroke-width:0.2" />
</svg><svg version="1.1"
baseProfile="full" width="126" height="50"  xmlns="http://www.w3.org/2000/svg">
<polygon points=" 108,25  126,25  126,50  108,50"
 style="fill:red;stroke:purple;stroke-width:0.2" />
</svg><svg version="1.1"
baseProfile="full" width="144" height="50"  xmlns="http://www.w3.org/2000/svg">
<polygon points=" 126,25  144,25  144,50  126,50"
 style="fill:red;stroke:purple;stroke-width:0.2" />
</svg><svg version="1.1"
baseProfile="full" width="162" height="50"  xmlns="http://www.w3.org/2000/svg">
<polygon points=" 144,25  162,25  162,50  144,50"
 style="fill:red;stroke:purple;stroke-width:0.2" />
</svg><svg version="1.1"
baseProfile="full" width="180" height="50"  xmlns="http://www.w3.org/2000/svg">
<polygon points=" 162,25  180,25  180,50  162,50"
 style="fill:red;stroke:purple;stroke-width:0.2" />
</svg><svg version="1.1"
baseProfile="full" width="198" height="50"  xmlns="http://www.w3.org/2000/svg">
<polygon points=" 180,25  198,25  198,50  180,50"
 style="fill:red;stroke:purple;stroke-width:0.2" />
</svg><svg version="1.1"
baseProfile="full" width="216" height="50"  xmlns="http://www.w3.org/2000/svg">
<polygon points=" 198,25  216,25  216,50  198,50"
 style="fill:red;stroke:purple;stroke-width:0.2" />
</svg><svg version="1.1"
baseProfile="full" width="234" height="50"  xmlns="http://www.w3.org/2000/svg">
<polygon points=" 216,25  234,25  234,50  216,50"
 style="fill:red;stroke:purple;stroke-width:0.2" />
</svg><svg version="1.1"
baseProfile="full" width="252" height="50"  xmlns="http://www.w3.org/2000/svg">
<polygon points=" 234,25  252,25  252,50  234,50"
 style="fill:red;stroke:purple;stroke-width:0.2" />
</svg><svg version="1.1"
baseProfile="full" width="270" height="50"  xmlns="http://www.w3.org/2000/svg">
<polygon points=" 252,25  270,25  270,50  252,50"
 style="fill:red;stroke:purple;stroke-width:0.2" />
</svg><svg version="1.1"
baseProfile="full" width="18" height="75"  xmlns="http://www.w3.org/2000/svg">
<polygon points=" 0,50  18,50  18,75  0,75"
 style="fill:red;stroke:purple;stroke-width:0.2" />
</svg><svg version="1.1"
baseProfile="full" width="36" height="75"  xmlns="http://www.w3.org/2000/svg">
<polygon points=" 18,50  36,50  36,75  18,75"
 style="fill:red;stroke:purple;stroke-width:0.2" />
</svg><svg version="1.1"
baseProfile="full" width="54" height="75"  xmlns="http://www.w3.org/2000/svg">
<polygon points=" 36,50  54,50  54,75  36,75"
 style="fill:red;stroke:purple;stroke-width:0.2" />
</svg><svg version="1.1"
baseProfile="full" width="72" height="75"  xmlns="http://www.w3.org/2000/svg">
<polygon points=" 54,50  72,50  72,75  54,75"
 style="fill:red;stroke:purple;stroke-width:0.2" />
</svg><svg version="1.1"
baseProfile="full" width="90" height="75"  xmlns="http://www.w3.org/2000/svg">
<polygon points=" 72,50  90,50  90,75  72,75"
 style="fill:red;stroke:purple;stroke-width:0.2" />
</svg><svg version="1.1"
baseProfile="full" width="108" height="75"  xmlns="http://www.w3.org/2000/svg">
<polygon points=" 90,50  108,50  108,75  90,75"
 style="fill:red;stroke:purple;stroke-width:0.2" />
</svg><svg version="1.1"
baseProfile="full" width="126" height="75"  xmlns="http://www.w3.org/2000/svg">
<polygon points=" 108,50  126,50  126,75  108,75"
 style="fill:red;stroke:purple;stroke-width:0.2" />
</svg><svg version="1.1"
baseProfile="full" width="144" height="75"  xmlns="http://www.w3.org/2000/svg">
<polygon points=" 126,50  144,50  144,75  126,75"
 style="fill:red;stroke:purple;stroke-width:0.2" />
</svg><svg version="1.1"
baseProfile="full" width="162" height="75"  xmlns="http://www.w3.org/2000/svg">
<polygon points=" 144,50  162,50  162,75  144,75"
 style="fill:red;stroke:purple;stroke-width:0.2" />
</svg><svg version="1.1"
baseProfile="full" width="180" height="75"  xmlns="http://www.w3.org/2000/svg">
<polygon points=" 162,50  180,50  180,75  162,75"
 style="fill:red;stroke:purple;stroke-width:0.2" />
</svg><svg version="1.1"
baseProfile="full" width="198" height="75"  xmlns="http://www.w3.org/2000/svg">
<polygon points=" 180,50  198,50  198,75  180,75"
 style="fill:red;stroke:purple;stroke-width:0.2" />
</svg><svg version="1.1"
baseProfile="full" width="216" height="75"  xmlns="http://www.w3.org/2000/svg">
<polygon points=" 198,50  216,50  216,75  198,75"
 style="fill:red;stroke:purple;stroke-width:0.2" />
</svg><svg version="1.1"
baseProfile="full" width="234" height="75"  xmlns="http://www.w3.org/2000/svg">
<polygon points=" 216,50  234,50  234,75  216,75"
 style="fill:red;stroke:purple;stroke-width:0.2" />
</svg><svg version="1.1"
baseProfile="full" width="252" height="75"  xmlns="http://www.w3.org/2000/svg">
<polygon points=" 234,50  252,50  252,75  234,75"
 style="fill:red;stroke:purple;stroke-width:0.2" />
</svg><svg version="1.1"
baseProfile="full" width="270" height="75"  xmlns="http://www.w3.org/2000/svg">
<polygon points=" 252,50  270,50  270,75  252,75"
 style="fill:red;stroke:purple;stroke-width:0.2" />
</svg><svg version="1.1"
baseProfile="full" width="18" height="100"  xmlns="http://www.w3.org/2000/svg">
<polygon points=" 0,75  18,75  18,100  0,100"
 style="fill:red;stroke:purple;stroke-width:0.2" />
</svg><svg version="1.1"
baseProfile="full" width="36" height="100"  xmlns="http://www.w3.org/2000/svg">
<polygon points=" 18,75  36,75  36,100  18,100"
 style="fill:red;stroke:purple;stroke-width:0.2" />
</svg><svg version="1.1"
baseProfile="full" width="54" height="100"  xmlns="http://www.w3.org/2000/svg">
<polygon points=" 36,75  54,75  54,100  36,100"
 style="fill:red;stroke:purple;stroke-width:0.2" />
</svg><svg version="1.1"
baseProfile="full" width="72" height="100"  xmlns="http://www.w3.org/2000/svg">
<polygon points=" 54,75  72,75  72,100  54,100"
 style="fill:red;stroke:purple;stroke-width:0.2" />
</svg><svg version="1.1"
baseProfile="full" width="90" height="100"  xmlns="http://www.w3.org/2000/svg">
<polygon points=" 72,75  90,75  90,100  72,100"
 style="fill:red;stroke:purple;stroke-width:0.2" />
</svg><svg version="1.1"
baseProfile="full" width="108" height="100"  xmlns="http://www.w3.org/2000/svg">
<polygon points=" 90,75  108,75  108,100  90,100"
 style="fill:red;stroke:purple;stroke-width:0.2" />
</svg><svg version="1.1"
baseProfile="full" width="126" height="100"  xmlns="http://www.w3.org/2000/svg">
<polygon points=" 108,75  126,75  126,100  108,100"
 style="fill:red;stroke:purple;stroke-width:0.2" />
</svg><svg version="1.1"
baseProfile="full" width="144" height="100"  xmlns="http://www.w3.org/2000/svg">
<polygon points=" 126,75  144,75  144,100  126,100"
 style="fill:red;stroke:purple;stroke-width:0.2" />
</svg><svg version="1.1"
baseProfile="full" width="162" height="100"  xmlns="http://www.w3.org/2000/svg">
<polygon points=" 144,75  162,75  162,100  144,100"
 style="fill:red;stroke:purple;stroke-width:0.2" />
</svg><svg version="1.1"
baseProfile="full" width="180" height="100"  xmlns="http://www.w3.org/2000/svg">
<polygon points=" 162,75  180,75  180,100  162,100"
 style="fill:red;stroke:purple;stroke-width:0.2" />
</svg><svg version="1.1"
baseProfile="full" width="198" height="100"  xmlns="http://www.w3.org/2000/svg">
<polygon points=" 180,75  198,75  198,100  180,100"
 style="fill:red;stroke:purple;stroke-width:0.2" />
</svg><svg version="1.1"
baseProfile="full" width="216" height="100"  xmlns="http://www.w3.org/2000/svg">
<polygon points=" 198,75  216,75  216,100  198,100"
 style="fill:red;stroke:purple;stroke-width:0.2" />
</svg><svg version="1.1"
baseProfile="full" width="234" height="100"  xmlns="http://www.w3.org/2000/svg">
<polygon points=" 216,75  234,75  234,100  216,100"
 style="fill:red;stroke:purple;stroke-width:0.2" />
</svg><svg version="1.1"
baseProfile="full" width="252" height="100"  xmlns="http://www.w3.org/2000/svg">
<polygon points=" 234,75  252,75  252,100  234,100"
 style="fill:red;stroke:purple;stroke-width:0.2" />
</svg><svg version="1.1"
baseProfile="full" width="270" height="100"  xmlns="http://www.w3.org/2000/svg">
<polygon points=" 252,75  270,75  270,100  252,100"
 style="fill:red;stroke:purple;stroke-width:0.2" />
</svg><svg version="1.1"
baseProfile="full" width="18" height="125"  xmlns="http://www.w3.org/2000/svg">
<polygon points=" 0,100  18,100  18,125  0,125"
 style="fill:red;stroke:purple;stroke-width:0.2" />
</svg><svg version="1.1"
baseProfile="full" width="36" height="125"  xmlns="http://www.w3.org/2000/svg">
<polygon points=" 18,100  36,100  36,125  18,125"
 style="fill:red;stroke:purple;stroke-width:0.2" />
</svg><svg version="1.1"
baseProfile="full" width="54" height="125"  xmlns="http://www.w3.org/2000/svg">
<polygon points=" 36,100  54,100  54,125  36,125"
 style="fill:red;stroke:purple;stroke-width:0.2" />
</svg><svg version="1.1"
baseProfile="full" width="72" height="125"  xmlns="http://www.w3.org/2000/svg">
<polygon points=" 54,100  72,100  72,125  54,125"
 style="fill:red;stroke:purple;stroke-width:0.2" />
</svg><svg version="1.1"
baseProfile="full" width="90" height="125"  xmlns="http://www.w3.org/2000/svg">
<polygon points=" 72,100  90,100  90,125  72,125"
 style="fill:red;stroke:purple;stroke-width:0.2" />
</svg><svg version="1.1"
baseProfile="full" width="108" height="125"  xmlns="http://www.w3.org/2000/svg">
<polygon points=" 90,100  108,100  108,125  90,125"
 style="fill:red;stroke:purple;stroke-width:0.2" />
</svg><svg version="1.1"
baseProfile="full" width="126" height="125"  xmlns="http://www.w3.org/2000/svg">
<polygon points=" 108,100  126,100  126,125  108,125"
 style="fill:red;stroke:purple;stroke-width:0.2" />
</svg><svg version="1.1"
baseProfile="full" width="144" height="125"  xmlns="http://www.w3.org/2000/svg">
<polygon points=" 126,100  144,100  144,125  126,125"
 style="fill:red;stroke:purple;stroke-width:0.2" />
</svg><svg version="1.1"
baseProfile="full" width="162" height="125"  xmlns="http://www.w3.org/2000/svg">
<polygon points=" 144,100  162,100  162,125  144,125"
 style="fill:red;stroke:purple;stroke-width:0.2" />
</svg><svg version="1.1"
baseProfile="full" width="180" height="125"  xmlns="http://www.w3.org/2000/svg">
<polygon points=" 162,100  180,100  180,125  162,125"
 style="fill:red;stroke:purple;stroke-width:0.2" />
</svg><svg version="1.1"
baseProfile="full" width="198" height="125"  xmlns="http://www.w3.org/2000/svg">
<polygon points=" 180,100  198,100  198,125  180,125"
 style="fill:red;stroke:purple;stroke-width:0.2" />
</svg><svg version="1.1"
baseProfile="full" width="216" height="125"  xmlns="http://www.w3.org/2000/svg">
<polygon points=" 198,100  216,100  216,125  198,125"
 style="fill:red;stroke:purple;stroke-width:0.2" />
</svg><svg version="1.1"
baseProfile="full" width="234" height="125"  xmlns="http://www.w3.org/2000/svg">
<polygon points=" 216,100  234,100  234,125  216,125"
 style="fill:red;stroke:purple;stroke-width:0.2" />
</svg><svg version="1.1"
baseProfile="full" width="252" height="125"  xmlns="http://www.w3.org/2000/svg">
<polygon points=" 234,100  252,100  252,125  234,125"
 style="fill:red;stroke:purple;stroke-width:0.2" />
</svg><svg version="1.1"
baseProfile="full" width="270" height="125"  xmlns="http://www.w3.org/2000/svg">
<polygon points=" 252,100  270,100  270,125  252,125"
 style="fill:red;stroke:purple;stroke-width:0.2" />
</svg><svg version="1.1"
baseProfile="full" width="18" height="150"  xmlns="http://www.w3.org/2000/svg">
<polygon points=" 0,125  18,125  18,150  0,150"
 style="fill:red;stroke:purple;stroke-width:0.2" />
</svg><svg version="1.1"
baseProfile="full" width="36" height="150"  xmlns="http://www.w3.org/2000/svg">
<polygon points=" 18,125  36,125  36,150  18,150"
 style="fill:red;stroke:purple;stroke-width:0.2" />
</svg><svg version="1.1"
baseProfile="full" width="54" height="150"  xmlns="http://www.w3.org/2000/svg">
<polygon points=" 36,125  54,125  54,150  36,150"
 style="fill:red;stroke:purple;stroke-width:0.2" />
</svg><svg version="1.1"
baseProfile="full" width="72" height="150"  xmlns="http://www.w3.org/2000/svg">
<polygon points=" 54,125  72,125  72,150  54,150"
 style="fill:red;stroke:purple;stroke-width:0.2" />
</svg><svg version="1.1"
baseProfile="full" width="90" height="150"  xmlns="http://www.w3.org/2000/svg">
<polygon points=" 72,125  90,125  90,150  72,150"
 style="fill:red;stroke:purple;stroke-width:0.2" />
</svg><svg version="1.1"
baseProfile="full" width="108" height="150"  xmlns="http://www.w3.org/2000/svg">
<polygon points=" 90,125  108,125  108,150  90,150"
 style="fill:red;stroke:purple;stroke-width:0.2" />
</svg><svg version="1.1"
baseProfile="full" width="126" height="150"  xmlns="http://www.w3.org/2000/svg">
<polygon points=" 108,125  126,125  126,150  108,150"
 style="fill:red;stroke:purple;stroke-width:0.2" />
</svg><svg version="1.1"
baseProfile="full" width="144" height="150"  xmlns="http://www.w3.org/2000/svg">
<polygon points=" 126,125  144,125  144,150  126,150"
 style="fill:red;stroke:purple;stroke-width:0.2" />
</svg><svg version="1.1"
baseProfile="full" width="162" height="150"  xmlns="http://www.w3.org/2000/svg">
<polygon points=" 144,125  162,125  162,150  144,150"
 style="fill:red;stroke:purple;stroke-width:0.2" />
</svg><svg version="1.1"
baseProfile="full" width="180" height="150"  xmlns="http://www.w3.org/2000/svg">
<polygon points=" 162,125  180,125  180,150  162,150"
 style="fill:red;stroke:purple;stroke-width:0.2" />
</svg><svg version="1.1"
baseProfile="full" width="198" height="150"  xmlns="http://www.w3.org/2000/svg">
<polygon points=" 180,125  198,125  198,150  180,150"
 style="fill:red;stroke:purple;stroke-width:0.2" />
</svg><svg version="1.1"
baseProfile="full" width="216" height="150"  xmlns="http://www.w3.org/2000/svg">
<polygon points=" 198,125  216,125  216,150  198,150"
 style="fill:red;stroke:purple;stroke-width:0.2" />
</svg><svg version="1.1"
baseProfile="full" width="234" height="150"  xmlns="http://www.w3.org/2000/svg">
<polygon points=" 216,125  234,125  234,150  216,150"
 style="fill:red;stroke:purple;stroke-width:0.2" />
</svg><svg version="1.1"
baseProfile="full" width="252" height="150"  xmlns="http://www.w3.org/2000/svg">
<polygon points=" 234,125  252,125  252,150  234,150"
 style="fill:red;stroke:purple;stroke-width:0.2" />
</svg><svg version="1.1"
baseProfile="full" width="270" height="150"  xmlns="http://www.w3.org/2000/svg">
<polygon points=" 252,125  270,125  270,150  252,150"
 style="fill:red;stroke:purple;stroke-width:0.2" />
</svg><svg version="1.1"
baseProfile="full" width="18" height="175"  xmlns="http://www.w3.org/2000/svg">
<polygon points=" 0,150  18,150  18,175  0,175"
 style="fill:red;stroke:purple;stroke-width:0.2" />
</svg><svg version="1.1"
baseProfile="full" width="36" height="175"  xmlns="http://www.w3.org/2000/svg">
<polygon points=" 18,150  36,150  36,175  18,175"
 style="fill:red;stroke:purple;stroke-width:0.2" />
</svg><svg version="1.1"
baseProfile="full" width="54" height="175"  xmlns="http://www.w3.org/2000/svg">
<polygon points=" 36,150  54,150  54,175  36,175"
 style="fill:red;stroke:purple;stroke-width:0.2" />
</svg><svg version="1.1"
baseProfile="full" width="72" height="175"  xmlns="http://www.w3.org/2000/svg">
<polygon points=" 54,150  72,150  72,175  54,175"
 style="fill:red;stroke:purple;stroke-width:0.2" />
</svg><svg version="1.1"
baseProfile="full" width="90" height="175"  xmlns="http://www.w3.org/2000/svg">
<polygon points=" 72,150  90,150  90,175  72,175"
 style="fill:red;stroke:purple;stroke-width:0.2" />
</svg><svg version="1.1"
baseProfile="full" width="108" height="175"  xmlns="http://www.w3.org/2000/svg">
<polygon points=" 90,150  108,150  108,175  90,175"
 style="fill:red;stroke:purple;stroke-width:0.2" />
</svg><svg version="1.1"
baseProfile="full" width="126" height="175"  xmlns="http://www.w3.org/2000/svg">
<polygon points=" 108,150  126,150  126,175  108,175"
 style="fill:red;stroke:purple;stroke-width:0.2" />
</svg><svg version="1.1"
baseProfile="full" width="144" height="175"  xmlns="http://www.w3.org/2000/svg">
<polygon points=" 126,150  144,150  144,175  126,175"
 style="fill:red;stroke:purple;stroke-width:0.2" />
</svg><svg version="1.1"
baseProfile="full" width="162" height="175"  xmlns="http://www.w3.org/2000/svg">
<polygon points=" 144,150  162,150  162,175  144,175"
 style="fill:red;stroke:purple;stroke-width:0.2" />
</svg><svg version="1.1"
baseProfile="full" width="180" height="175"  xmlns="http://www.w3.org/2000/svg">
<polygon points=" 162,150  180,150  180,175  162,175"
 style="fill:red;stroke:purple;stroke-width:0.2" />
</svg><svg version="1.1"
baseProfile="full" width="198" height="175"  xmlns="http://www.w3.org/2000/svg">
<polygon points=" 180,150  198,150  198,175  180,175"
 style="fill:red;stroke:purple;stroke-width:0.2" />
</svg><svg version="1.1"
baseProfile="full" width="216" height="175"  xmlns="http://www.w3.org/2000/svg">
<polygon points=" 198,150  216,150  216,175  198,175"
 style="fill:red;stroke:purple;stroke-width:0.2" />
</svg><svg version="1.1"
baseProfile="full" width="234" height="175"  xmlns="http://www.w3.org/2000/svg">
<polygon points=" 216,150  234,150  234,175  216,175"
 style="fill:red;stroke:purple;stroke-width:0.2" />
</svg><svg version="1.1"
baseProfile="full" width="252" height="175"  xmlns="http://www.w3.org/2000/svg">
<polygon points=" 234,150  252,150  252,175  234,175"
 style="fill:red;stroke:purple;stroke-width:0.2" />
</svg><svg version="1.1"
baseProfile="full" width="270" height="175"  xmlns="http://www.w3.org/2000/svg">
<polygon points=" 252,150  270,150  270,175  252,175"
 style="fill:red;stroke:purple;stroke-width:0.2" />
</svg><svg version="1.1"
baseProfile="full" width="18" height="200"  xmlns="http://www.w3.org/2000/svg">
<polygon points=" 0,175  18,175  18,200  0,200"
 style="fill:red;stroke:purple;stroke-width:0.2" />
</svg><svg version="1.1"
baseProfile="full" width="36" height="200"  xmlns="http://www.w3.org/2000/svg">
<polygon points=" 18,175  36,175  36,200  18,200"
 style="fill:red;stroke:purple;stroke-width:0.2" />
</svg><svg version="1.1"
baseProfile="full" width="54" height="200"  xmlns="http://www.w3.org/2000/svg">
<polygon points=" 36,175  54,175  54,200  36,200"
 style="fill:red;stroke:purple;stroke-width:0.2" />
</svg><svg version="1.1"
baseProfile="full" width="72" height="200"  xmlns="http://www.w3.org/2000/svg">
<polygon points=" 54,175  72,175  72,200  54,200"
 style="fill:red;stroke:purple;stroke-width:0.2" />
</svg><svg version="1.1"
baseProfile="full" width="90" height="200"  xmlns="http://www.w3.org/2000/svg">
<polygon points=" 72,175  90,175  90,200  72,200"
 style="fill:red;stroke:purple;stroke-width:0.2" />
</svg><svg version="1.1"
baseProfile="full" width="108" height="200"  xmlns="http://www.w3.org/2000/svg">
<polygon points=" 90,175  108,175  108,200  90,200"
 style="fill:red;stroke:purple;stroke-width:0.2" />
</svg><svg version="1.1"
baseProfile="full" width="126" height="200"  xmlns="http://www.w3.org/2000/svg">
<polygon points=" 108,175  126,175  126,200  108,200"
 style="fill:red;stroke:purple;stroke-width:0.2" />
</svg><svg version="1.1"
baseProfile="full" width="144" height="200"  xmlns="http://www.w3.org/2000/svg">
<polygon points=" 126,175  144,175  144,200  126,200"
 style="fill:red;stroke:purple;stroke-width:0.2" />
</svg><svg version="1.1"
baseProfile="full" width="162" height="200"  xmlns="http://www.w3.org/2000/svg">
<polygon points=" 144,175  162,175  162,200  144,200"
 style="fill:red;stroke:purple;stroke-width:0.2" />
</svg><svg version="1.1"
baseProfile="full" width="180" height="200"  xmlns="http://www.w3.org/2000/svg">
<polygon points=" 162,175  180,175  180,200  162,200"
 style="fill:red;stroke:purple;stroke-width:0.2" />
</svg><svg version="1.1"
baseProfile="full" width="198" height="200"  xmlns="http://www.w3.org/2000/svg">
<polygon points=" 180,175  198,175  198,200  180,200"
 style="fill:red;stroke:purple;stroke-width:0.2" />
</svg><svg version="1.1"
baseProfile="full" width="216" height="200"  xmlns="http://www.w3.org/2000/svg">
<polygon points=" 198,175  216,175  216,200  198,200"
 style="fill:red;stroke:purple;stroke-width:0.2" />
</svg><svg version="1.1"
baseProfile="full" width="234" height="200"  xmlns="http://www.w3.org/2000/svg">
<polygon points=" 216,175  234,175  234,200  216,200"
 style="fill:red;stroke:purple;stroke-width:0.2" />
</svg><svg version="1.1"
baseProfile="full" width="252" height="200"  xmlns="http://www.w3.org/2000/svg">
<polygon points=" 234,175  252,175  252,200  234,200"
 style="fill:red;stroke:purple;stroke-width:0.2" />
</svg><svg version="1.1"
baseProfile="full" width="270" height="200"  xmlns="http://www.w3.org/2000/svg">
<polygon points=" 252,175  270,175  270,200  252,200"
 style="fill:red;stroke:purple;stroke-width:0.2" />
</svg><svg version="1.1"
baseProfile="full" width="18" height="225"  xmlns="http://www.w3.org/2000/svg">
<polygon points=" 0,200  18,200  18,225  0,225"
 style="fill:red;stroke:purple;stroke-width:0.2" />
</svg><svg version="1.1"
baseProfile="full" width="36" height="225"  xmlns="http://www.w3.org/2000/svg">
<polygon points=" 18,200  36,200  36,225  18,225"
 style="fill:red;stroke:purple;stroke-width:0.2" />
</svg><svg version="1.1"
baseProfile="full" width="54" height="225"  xmlns="http://www.w3.org/2000/svg">
<polygon points=" 36,200  54,200  54,225  36,225"
 style="fill:red;stroke:purple;stroke-width:0.2" />
</svg><svg version="1.1"
baseProfile="full" width="72" height="225"  xmlns="http://www.w3.org/2000/svg">
<polygon points=" 54,200  72,200  72,225  54,225"
 style="fill:red;stroke:purple;stroke-width:0.2" />
</svg><svg version="1.1"
baseProfile="full" width="90" height="225"  xmlns="http://www.w3.org/2000/svg">
<polygon points=" 72,200  90,200  90,225  72,225"
 style="fill:red;stroke:purple;stroke-width:0.2" />
</svg><svg version="1.1"
baseProfile="full" width="108" height="225"  xmlns="http://www.w3.org/2000/svg">
<polygon points=" 90,200  108,200  108,225  90,225"
 style="fill:red;stroke:purple;stroke-width:0.2" />
</svg><svg version="1.1"
baseProfile="full" width="126" height="225"  xmlns="http://www.w3.org/2000/svg">
<polygon points=" 108,200  126,200  126,225  108,225"
 style="fill:red;stroke:purple;stroke-width:0.2" />
</svg><svg version="1.1"
baseProfile="full" width="144" height="225"  xmlns="http://www.w3.org/2000/svg">
<polygon points=" 126,200  144,200  144,225  126,225"
 style="fill:red;stroke:purple;stroke-width:0.2" />
</svg><svg version="1.1"
baseProfile="full" width="162" height="225"  xmlns="http://www.w3.org/2000/svg">
<polygon points=" 144,200  162,200  162,225  144,225"
 style="fill:red;stroke:purple;stroke-width:0.2" />
</svg><svg version="1.1"
baseProfile="full" width="180" height="225"  xmlns="http://www.w3.org/2000/svg">
<polygon points=" 162,200  180,200  180,225  162,225"
 style="fill:red;stroke:purple;stroke-width:0.2" />
</svg><svg version="1.1"
baseProfile="full" width="198" height="225"  xmlns="http://www.w3.org/2000/svg">
<polygon points=" 180,200  198,200  198,225  180,225"
 style="fill:red;stroke:purple;stroke-width:0.2" />
</svg><svg version="1.1"
baseProfile="full" width="216" height="225"  xmlns="http://www.w3.org/2000/svg">
<polygon points=" 198,200  216,200  216,225  198,225"
 style="fill:red;stroke:purple;stroke-width:0.2" />
</svg><svg version="1.1"
baseProfile="full" width="234" height="225"  xmlns="http://www.w3.org/2000/svg">
<polygon points=" 216,200  234,200  234,225  216,225"
 style="fill:red;stroke:purple;stroke-width:0.2" />
</svg><svg version="1.1"
baseProfile="full" width="252" height="225"  xmlns="http://www.w3.org/2000/svg">
<polygon points=" 234,200  252,200  252,225  234,225"
 style="fill:red;stroke:purple;stroke-width:0.2" />
</svg><svg version="1.1"
baseProfile="full" width="270" height="225"  xmlns="http://www.w3.org/2000/svg">
<polygon points=" 252,200  270,200  270,225  252,225"
 style="fill:red;stroke:purple;stroke-width:0.2" />
</svg><svg version="1.1"
baseProfile="full" width="18" height="250"  xmlns="http://www.w3.org/2000/svg">
<polygon points=" 0,225  18,225  18,250  0,250"
 style="fill:red;stroke:purple;stroke-width:0.2" />
</svg><svg version="1.1"
baseProfile="full" width="36" height="250"  xmlns="http://www.w3.org/2000/svg">
<polygon points=" 18,225  36,225  36,250  18,250"
 style="fill:red;stroke:purple;stroke-width:0.2" />
</svg><svg version="1.1"
baseProfile="full" width="54" height="250"  xmlns="http://www.w3.org/2000/svg">
<polygon points=" 36,225  54,225  54,250  36,250"
 style="fill:red;stroke:purple;stroke-width:0.2" />
</svg><svg version="1.1"
baseProfile="full" width="72" height="250"  xmlns="http://www.w3.org/2000/svg">
<polygon points=" 54,225  72,225  72,250  54,250"
 style="fill:red;stroke:purple;stroke-width:0.2" />
</svg><svg version="1.1"
baseProfile="full" width="90" height="250"  xmlns="http://www.w3.org/2000/svg">
<polygon points=" 72,225  90,225  90,250  72,250"
 style="fill:red;stroke:purple;stroke-width:0.2" />
</svg><svg version="1.1"
baseProfile="full" width="108" height="250"  xmlns="http://www.w3.org/2000/svg">
<polygon points=" 90,225  108,225  108,250  90,250"
 style="fill:red;stroke:purple;stroke-width:0.2" />
</svg><svg version="1.1"
baseProfile="full" width="126" height="250"  xmlns="http://www.w3.org/2000/svg">
<polygon points=" 108,225  126,225  126,250  108,250"
 style="fill:red;stroke:purple;stroke-width:0.2" />
</svg><svg version="1.1"
baseProfile="full" width="144" height="250"  xmlns="http://www.w3.org/2000/svg">
<polygon points=" 126,225  144,225  144,250  126,250"
 style="fill:red;stroke:purple;stroke-width:0.2" />
</svg><svg version="1.1"
baseProfile="full" width="162" height="250"  xmlns="http://www.w3.org/2000/svg">
<polygon points=" 144,225  162,225  162,250  144,250"
 style="fill:red;stroke:purple;stroke-width:0.2" />
</svg><svg version="1.1"
baseProfile="full" width="180" height="250"  xmlns="http://www.w3.org/2000/svg">
<polygon points=" 162,225  180,225  180,250  162,250"
 style="fill:red;stroke:purple;stroke-width:0.2" />
</svg><svg version="1.1"
baseProfile="full" width="198" height="250"  xmlns="http://www.w3.org/2000/svg">
<polygon points=" 180,225  198,225  198,250  180,250"
 style="fill:red;stroke:purple;stroke-width:0.2" />
</svg><svg version="1.1"
baseProfile="full" width="216" height="250"  xmlns="http://www.w3.org/2000/svg">
<polygon points=" 198,225  216,225  216,250  198,250"
 style="fill:red;stroke:purple;stroke-width:0.2" />
</svg><svg version="1.1"
baseProfile="full" width="234" height="250"  xmlns="http://www.w3.org/2000/svg">
<polygon points=" 216,225  234,225  234,250  216,250"
 style="fill:red;stroke:purple;stroke-width:0.2" />
</svg><svg version="1.1"
baseProfile="full" width="252" height="250"  xmlns="http://www.w3.org/2000/svg">
<polygon points=" 234,225  252,225  252,250  234,250"
 style="fill:red;stroke:purple;stroke-width:0.2" />
</svg><svg version="1.1"
baseProfile="full" width="270" height="250"  xmlns="http://www.w3.org/2000/svg">
<polygon points=" 252,225  270,225  270,250  252,250"
 style="fill:red;stroke:purple;stroke-width:0.2" />
</svg><svg version="1.1"
baseProfile="full" width="25" height="268"  xmlns="http://www.w3.org/2000/svg">
<polygon points=" 0,250  25,250  25,268  0,268"
 style="fill:red;stroke:purple;stroke-width:0.2" />
</svg><svg version="1.1"
baseProfile="full" width="50" height="268"  xmlns="http://www.w3.org/2000/svg">
<polygon points=" 25,250  50,250  50,268  25,268"
 style="fill:red;stroke:purple;stroke-width:0.2" />
</svg><svg version="1.1"
baseProfile="full" width="75" height="268"  xmlns="http://www.w3.org/2000/svg">
<polygon points=" 50,250  75,250  75,268  50,268"
 style="fill:red;stroke:purple;stroke-width:0.2" />
</svg><svg version="1.1"
baseProfile="full" width="100" height="268"  xmlns="http://www.w3.org/2000/svg">
<polygon points=" 75,250  100,250  100,268  75,268"
 style="fill:red;stroke:purple;stroke-width:0.2" />
</svg><svg version="1.1"
baseProfile="full" width="125" height="268"  xmlns="http://www.w3.org/2000/svg">
<polygon points=" 100,250  125,250  125,268  100,268"
 style="fill:red;stroke:purple;stroke-width:0.2" />
</svg><svg version="1.1"
baseProfile="full" width="150" height="268"  xmlns="http://www.w3.org/2000/svg">
<polygon points=" 125,250  150,250  150,268  125,268"
 style="fill:red;stroke:purple;stroke-width:0.2" />
</svg><svg version="1.1"
baseProfile="full" width="175" height="268"  xmlns="http://www.w3.org/2000/svg">
<polygon points=" 150,250  175,250  175,268  150,268"
 style="fill:red;stroke:purple;stroke-width:0.2" />
</svg><svg version="1.1"
baseProfile="full" width="200" height="268"  xmlns="http://www.w3.org/2000/svg">
<polygon points=" 175,250  200,250  200,268  175,268"
 style="fill:red;stroke:purple;stroke-width:0.2" />
</svg><svg version="1.1"
baseProfile="full" width="225" height="268"  xmlns="http://www.w3.org/2000/svg">
<polygon points=" 200,250  225,250  225,268  200,268"
 style="fill:red;stroke:purple;stroke-width:0.2" />
</svg><svg version="1.1"
baseProfile="full" width="250" height="268"  xmlns="http://www.w3.org/2000/svg">
<polygon points=" 225,250  250,250  250,268  225,268"
 style="fill:red;stroke:purple;stroke-width:0.2" />
</svg><svg version="1.1"
baseProfile="full" width="275" height="268"  xmlns="http://www.w3.org/2000/svg">
<polygon points=" 250,250  275,250  275,268  250,268"
 style="fill:red;stroke:purple;stroke-width:0.2" />
</svg></svg>